<?xml version="1.0" encoding="UTF-8"?>
<svg width="24px" height="24px" viewBox="0 0 24 24" version="1.1" xmlns="http://www.w3.org/2000/svg" xmlns:xlink="http://www.w3.org/1999/xlink">
    <title>Icon/cam_mute</title>
    <g id="Icon/cam_mute" stroke="none" stroke-width="1" fill="none" fill-rule="evenodd">
        <g id="videocam_off-24px">
            <polygon id="Path" points="0 0 24 0 24 24 0 24"></polygon>
            <g id="Group-10" transform="translate(1.000000, 5.000000)" fill="#000">
                <path d="M10.8096,12.2158 C10.8096,11.6628 10.3616,11.2158 9.8096,11.2158 L3.2916,11.2158 C2.5796,11.2158 1.9996,10.6358 1.9996,9.9238 L1.9996,3.2918 C1.9996,2.5798 2.5796,1.9998 3.2916,1.9998 L13.1526,1.9998 C13.8646,1.9998 14.4446,2.5798 14.4446,3.2918 L14.4446,5.9238 C14.4446,6.4758 14.8926,6.9238 15.4446,6.9238 C15.9966,6.9238 16.4446,6.4758 16.4446,5.9238 L16.4446,5.4248 L19.9266,3.0298 L19.9426,3.0618 C19.9806,3.0878 19.9996,3.1258 19.9996,3.1758 L19.9996,6.0388 C19.9996,6.5908 20.4476,7.0388 20.9996,7.0388 C21.5526,7.0388 21.9996,6.5908 21.9996,6.0388 L21.9996,3.1758 C21.9996,2.4618 21.6486,1.7988 21.0596,1.4028 C20.4786,1.0118 19.7446,0.9358 19.0986,1.1998 C19.0326,1.2268 18.9686,1.2608 18.9096,1.3018 L16.4166,3.0168 C16.2746,1.3318 14.8736,-0.0002 13.1526,-0.0002 L3.2916,-0.0002 C1.4766,-0.0002 -0.0004,1.4768 -0.0004,3.2918 L-0.0004,9.9238 C-0.0004,11.5888 1.2466,12.9538 2.8526,13.1718 C3.1766,14.7828 4.5856,15.9998 6.2706,15.9998 L9.8096,15.9998 C10.3616,15.9998 10.8096,15.5528 10.8096,14.9998 C10.8096,14.4468 10.3616,13.9998 9.8096,13.9998 L6.2706,13.9998 C5.7156,13.9998 5.2366,13.6818 4.9806,13.2158 L9.8096,13.2158 C10.3616,13.2158 10.8096,12.7688 10.8096,12.2158" id="Fill-3"></path>
                <path d="M17.5,8 C20.538,8 23,10.462 23,13.5 C23,16.537 20.538,19 17.5,19 C14.462,19 12,16.537 12,13.5 C12,10.462 14.462,8 17.5,8 Z M19.1034,10.978 L17.5004,12.581 L15.8974,10.978 C15.6434,10.724 15.2314,10.724 14.9784,10.978 C14.7244,11.231 14.7244,11.644 14.9784,11.897 L16.5804,13.5 L14.9784,15.103 C14.7244,15.356 14.7244,15.769 14.9784,16.022 C15.1054,16.149 15.2714,16.213 15.4374,16.213 C15.6044,16.213 15.7704,16.149 15.8974,16.022 L17.5004,14.419 L19.1034,16.022 C19.2304,16.149 19.3964,16.213 19.5624,16.213 C19.7294,16.213 19.8954,16.149 20.0224,16.022 C20.2754,15.769 20.2754,15.356 20.0224,15.103 L18.4194,13.5 L20.0224,11.897 C20.2754,11.644 20.2754,11.231 20.0224,10.978 C19.7684,10.724 19.3564,10.724 19.1034,10.978 Z" id="Combined-Shape"></path>
            </g>
        </g>
    </g>
</svg>
