<?xml version="1.0" encoding="UTF-8"?>
<svg width="24px" height="24px" viewBox="0 0 24 24" version="1.1" xmlns="http://www.w3.org/2000/svg" xmlns:xlink="http://www.w3.org/1999/xlink">
    <title>Icon/cam</title>
    <g id="Icon/cam" stroke="none" stroke-width="1" fill="none" fill-rule="evenodd">
        <g id="videocam-24px">
            <polygon id="Path" points="0 0 24 0 24 24 0 24"></polygon>
            <path d="M21,15.039 C21,15.086 20.984,15.122 20.881,15.155 L17.444,12.79 L17.444,10.425 L20.927,8.03 L20.943,8.062 C20.981,8.087 21,8.126 21,8.176 L21,15.039 Z M15.444,14.924 C15.444,15.636 14.865,16.216 14.152,16.216 L4.292,16.216 C3.58,16.216 3,15.636 3,14.924 L3,8.292 C3,7.58 3.58,7 4.292,7 L14.152,7 C14.865,7 15.444,7.58 15.444,8.292 L15.444,14.924 Z M11.182,19 L7.271,19 C6.716,19 6.236,18.682 5.98,18.216 L12.473,18.216 C12.217,18.682 11.737,19 11.182,19 L11.182,19 Z M22.059,6.402 C21.479,6.012 20.745,5.936 20.099,6.2 C20.032,6.227 19.969,6.261 19.909,6.302 L17.417,8.017 C17.274,6.332 15.874,5 14.152,5 L4.292,5 C2.477,5 1,6.476 1,8.292 L1,14.924 C1,16.589 2.246,17.954 3.853,18.172 C4.176,19.783 5.585,21 7.271,21 L11.182,21 C12.868,21 14.277,19.783 14.601,18.171 C16.112,17.962 17.287,16.733 17.417,15.199 L19.909,16.914 C19.969,16.954 20.032,16.989 20.099,17.017 C20.354,17.12 20.622,17.171 20.889,17.171 C21.3,17.171 21.708,17.05 22.06,16.812 C22.648,16.417 23,15.754 23,15.039 L23,8.176 C23,7.462 22.648,6.798 22.059,6.402 L22.059,6.402 Z" id="Fill-1" fill="#000"></path>
        </g>
    </g>
</svg>
