<?xml version="1.0" encoding="UTF-8" standalone="no"?>
<svg
   xmlns:dc="http://purl.org/dc/elements/1.1/"
   xmlns:cc="http://creativecommons.org/ns#"
   xmlns:rdf="http://www.w3.org/1999/02/22-rdf-syntax-ns#"
   xmlns:svg="http://www.w3.org/2000/svg"
   xmlns="http://www.w3.org/2000/svg"
   xmlns:sodipodi="http://sodipodi.sourceforge.net/DTD/sodipodi-0.dtd"
   xmlns:inkscape="http://www.inkscape.org/namespaces/inkscape"
   width="20px"
   height="20px"
   viewBox="0 0 20 20"
   version="1.1"
   id="svg7"
   sodipodi:docname="new_change_camera.svg"
   inkscape:version="1.0.1 (3bc2e813f5, 2020-09-07)">
  <metadata
     id="metadata13">
    <rdf:RDF>
      <cc:Work
         rdf:about="">
        <dc:format>image/svg+xml</dc:format>
        <dc:type
           rdf:resource="http://purl.org/dc/dcmitype/StillImage" />
        <dc:title>Icon/change_camera</dc:title>
      </cc:Work>
    </rdf:RDF>
  </metadata>
  <defs
     id="defs11" />
  <sodipodi:namedview
     pagecolor="#ffffff"
     bordercolor="#666666"
     borderopacity="1"
     objecttolerance="10"
     gridtolerance="10"
     guidetolerance="10"
     inkscape:pageopacity="0"
     inkscape:pageshadow="2"
     inkscape:window-width="1920"
     inkscape:window-height="1017"
     id="namedview9"
     showgrid="false"
     inkscape:zoom="42.5"
     inkscape:cx="10"
     inkscape:cy="10"
     inkscape:window-x="-8"
     inkscape:window-y="-8"
     inkscape:window-maximized="1"
     inkscape:current-layer="svg7" />
  <title
     id="title2">Icon/change_camera</title>
  <g
     id="Icon/change_camera"
     stroke="none"
     stroke-width="1"
     fill="none"
     fill-rule="evenodd">
    <rect
       id="Rectangle"
       fill="#D8D8D8"
       opacity="0"
       x="0"
       y="0"
       width="20"
       height="20" />
    <path
       d="M12.2106453,1 C12.8169414,1 13.371154,1.29985855 13.6420524,1.77446757 L14.3984,3.1 L15.6,3.1 C16.4836556,3.1 17.2,3.72680135 17.2,4.5 L17.2012789,9.73045389 C18.3307442,10.55768 19,11.5858539 19,12.7 C19,14.9022993 16.3850669,16.7686859 12.7697281,17.4111698 L12.7550043,17.4147767 L12.7430117,17.4167682 C12.7258304,17.4189134 12.7080392,17.4220081 12.6902242,17.4250732 C12.6158509,17.4286449 12.5437857,17.4221174 12.4752526,17.4049966 C12.2242553,17.3422933 12.0206356,17.1374997 11.9725105,16.8663867 C11.9073385,16.4992407 12.1520082,16.1495019 12.5189957,16.0852233 L12.477,16.0948687 L12.4769124,16.0920072 C15.5310891,15.5640502 17.65,14.1134035 17.65,12.7 C17.65,12.3147263 17.4925586,11.9266854 17.2016492,11.5553196 L17.2,12.2 C17.2,12.9731986 16.4836556,13.6 15.6,13.6 L4.4,13.6 C3.5163444,13.6 2.8,12.9731986 2.8,12.2 L2.79935875,11.5540336 C2.50780511,11.9257895 2.35,12.3142816 2.35,12.7 C2.35,14.170909 4.64483769,15.6821534 7.90043761,16.1518016 L7.31329043,15.5339583 C7.05763173,15.2649701 7.0631296,14.8381378 7.32557027,14.5806016 C7.58801094,14.3230654 8.00801347,14.3323491 8.26367217,14.6013373 L9.80670894,16.2248246 C10.0109723,16.4397378 10.048526,16.7554111 9.92151912,17.0049953 C9.90719727,17.0389156 9.88758107,17.076323 9.86227528,17.1179547 L9.82,17.1836627 L8.17787569,18.8184974 C7.93587199,19.0605011 7.54350647,19.0605011 7.30150277,18.8184974 C7.08638838,18.603383 7.06248678,18.2694642 7.22979797,18.0279488 L7.30150277,17.9421245 L7.75020365,17.4940822 C3.86833909,16.9446182 1,15.0065416 1,12.7 C1,11.5858873 1.66921569,10.5577417 2.79861942,9.73052834 L2.8,4.5 C2.8,3.72680135 3.5163444,3.1 4.4,3.1 L5.6,3.1 L6.35782445,1.77407292 C6.62881263,1.29968077 7.18289176,1 7.7890062,1 L12.2106453,1 Z M12.0843228,2.26 L7.9153487,2.26 C7.79629051,2.26 7.68575,2.30905489 7.61518151,2.39022919 L7.57788869,2.44265261 L6.86336849,3.69281243 C6.68767,4.00022318 6.34385134,4.20383711 5.95769818,4.23563797 L5.85142857,4.24 L4.72,4.24 C4.53485311,4.24 4.38086683,4.35673761 4.34893342,4.51068208 L4.34285714,4.57 L4.34285714,11.83 C4.34285714,11.9920035 4.47627155,12.1267415 4.65220809,12.1546833 L4.72,12.16 L15.28,12.16 C15.4651469,12.16 15.6191332,12.0432624 15.6510666,11.8893179 L15.6571429,11.83 L15.6571429,4.57 C15.6571429,4.40799647 15.5237285,4.27325848 15.3477919,4.24531674 L15.28,4.24 L14.1470629,4.24 C13.7540051,4.24 13.3919069,4.06178208 13.1867537,3.77352089 L13.1347887,3.69222707 L12.4217259,2.44255307 C12.3685137,2.3493263 12.2689256,2.28470451 12.1545037,2.26575355 L12.0843228,2.26 Z M10,5.05 C11.4911688,5.05 12.7,6.25883118 12.7,7.75 C12.7,9.24116882 11.4911688,10.45 10,10.45 C8.50883118,10.45 7.3,9.24116882 7.3,7.75 C7.3,6.25883118 8.50883118,5.05 10,5.05 Z M10,6.4 C9.25441559,6.4 8.65,7.00441559 8.65,7.75 C8.65,8.49558441 9.25441559,9.1 10,9.1 C10.7455844,9.1 11.35,8.49558441 11.35,7.75 C11.35,7.00441559 10.7455844,6.4 10,6.4 Z"
       id="Combined-Shape"
       fill="#000000" />
  </g>
  <path
     style="fill:#ffffff;stroke-width:0.0235294"
     d="M 7.5306722,18.948838 C 7.3722544,18.891005 7.2114461,18.717204 7.1633833,18.551874 7.0825976,18.273981 7.1492781,18.119951 7.5103101,17.75048 L 7.7676694,17.487105 7.5955995,17.45895 C 6.0045315,17.198615 4.7016918,16.776137 3.6176087,16.168988 2.5734245,15.584185 1.8615613,14.932799 1.4144311,14.152984 0.98756943,13.408517 0.90081145,12.583899 1.1661782,11.793385 1.248942,11.546836 1.4570604,11.147676 1.6310964,10.901696 1.8156604,10.640837 2.3089056,10.131718 2.5844642,9.9176471 L 2.7964785,9.7529412 2.804637,7.0235294 C 2.812332,4.4491842 2.815253,4.2867654 2.8560521,4.1647059 3.0166122,3.6843551 3.3992094,3.3323378 3.933444,3.1734273 4.0909685,3.126571 4.1711953,3.1212448 4.8610468,3.1118453 L 5.6162113,3.101556 6.0257527,2.3842307 C 6.2689289,1.9582995 6.4809661,1.6156376 6.5477252,1.5406991 6.7564988,1.3063458 7.0933014,1.1208765 7.4402332,1.0492158 7.7062899,0.9942603 12.285359,0.9925354 12.550447,1.0472958 c 0.352838,0.072881 0.693935,0.2596686 0.901828,0.4938499 0.06596,0.074296 0.281852,0.4229832 0.522289,0.8435346 l 0.409858,0.7168865 0.754848,0.010287 c 0.68953,0.0094 0.769769,0.014725 0.927286,0.061579 0.534235,0.1589105 0.916832,0.5109278 1.077392,0.9912786 0.0408,0.1220609 0.04372,0.2844489 0.0514,2.8588235 l 0.0081,2.7294118 0.156688,0.117647 c 0.21092,0.1583673 0.682874,0.6177533 0.858146,0.8352943 0.323792,0.401879 0.566672,0.870915 0.678188,1.309676 0.586605,2.308002 -1.831411,4.514011 -5.83901,5.32706 -0.421577,0.08553 -0.547665,0.08272 -0.729506,-0.01625 -0.376569,-0.204955 -0.464139,-0.688077 -0.182678,-1.007834 0.132584,-0.150623 0.214928,-0.185895 0.63203,-0.270733 2.092447,-0.425598 3.709069,-1.235918 4.460984,-2.236035 0.281951,-0.375022 0.413256,-0.724533 0.415177,-1.105128 0.0018,-0.355277 -0.106239,-0.676055 -0.344959,-1.024284 l -0.09678,-0.141177 -0.01519,0.411765 c -0.0084,0.226471 -0.02752,0.4647 -0.04259,0.529399 -0.100961,0.43346 -0.508876,0.848258 -0.993478,1.010244 -0.09937,0.03322 -0.279371,0.07079 -0.4,0.0835 -0.29783,0.03137 -11.2231759,0.03137 -11.5210056,0 -0.1206294,-0.01271 -0.3006294,-0.05028 -0.4,-0.0835 C 3.3548946,13.330598 2.9469806,12.9158 2.8460188,12.48234 c -0.01507,-0.0647 -0.034236,-0.302928 -0.042591,-0.529399 l -0.015192,-0.411765 -0.09678,0.141177 c -0.4539797,0.662238 -0.4630272,1.328352 -0.02711,1.99593 0.2623096,0.40171 0.80868,0.886285 1.3846137,1.228013 0.9156692,0.543308 2.1557708,0.969172 3.4917998,1.19912 0.1917898,0.03301 0.353732,0.05499 0.3598713,0.04886 0.00614,-0.0061 -0.1304617,-0.159949 -0.3035575,-0.341799 -0.3796668,-0.398868 -0.4538202,-0.521444 -0.4538202,-0.750167 0,-0.367516 0.2822353,-0.650987 0.6449826,-0.647807 0.2755221,0.0024 0.2891362,0.01343 1.2087433,0.977854 0.9209699,0.965855 0.979492,1.042999 0.979492,1.291173 0,0.08256 -0.020143,0.193086 -0.050012,0.274415 -0.046471,0.126537 -0.1126765,0.199103 -0.9352942,1.025144 -0.6283993,0.631015 -0.9159077,0.903798 -0.9908247,0.940076 -0.134308,0.06504 -0.3322127,0.07586 -0.469668,0.02568 z m 7.9512908,-6.827695 c 0.04468,-0.02396 0.102746,-0.07238 0.129045,-0.107606 0.04752,-0.06365 0.04786,-0.08664 0.05475,-3.7623186 0.0049,-2.5913438 -6.5e-4,-3.7245019 -0.01841,-3.7858942 -0.01584,-0.054753 -0.05744,-0.1121188 -0.110918,-0.1529411 L 15.45085,4.2470591 14.684245,4.2339961 C 13.967943,4.2217892 13.907788,4.2174565 13.767375,4.1679569 13.577163,4.1009024 13.403037,3.9893306 13.2815,3.8566329 13.229266,3.7996026 13.023848,3.4670588 12.825015,3.1176471 12.420729,2.4071902 12.379228,2.344214 12.282305,2.2940929 12.179347,2.240851 7.8206534,2.240851 7.7176948,2.2940929 7.6207155,2.3442428 7.5791125,2.4074086 7.1752751,3.1176471 6.7732976,3.8246139 6.6777174,3.9474419 6.4281064,4.077816 6.1675026,4.2139318 6.1432699,4.2173071 5.3157478,4.2327515 l -0.766605,0.014307 -0.085577,0.065324 c -0.053479,0.040822 -0.095082,0.098188 -0.1109181,0.1529411 -0.017756,0.061392 -0.023266,1.1945504 -0.018406,3.7858942 0.00689,3.6756752 0.00723,3.6986682 0.054751,3.7623182 0.026299,0.03522 0.084369,0.08365 0.1290447,0.107606 0.07838,0.04204 0.2706117,0.04356 5.4819626,0.04356 5.211351,0 5.403583,-0.0015 5.481963,-0.04356 z"
     id="path15" />
  <path
     style="fill:#ffffff;stroke-width:0.0235294"
     d="M 9.6964442,10.42076 C 8.9189037,10.330596 8.1807935,9.8712322 7.7489608,9.2087424 7.2263474,8.4069826 7.175696,7.3564695 7.6187607,6.5083821 7.9363709,5.900432 8.5388765,5.3955521 9.1882353,5.1932138 9.5233917,5.08878 9.6420499,5.071851 10.023529,5.0740424 c 0.310746,0.00179 0.398035,0.010902 0.589968,0.061618 0.523383,0.1382989 0.898812,0.3458985 1.254162,0.6935095 0.564855,0.5525545 0.843097,1.2587575 0.808051,2.0509104 -0.05847,1.3216558 -1.070488,2.3915277 -2.405122,2.5426187 -0.239268,0.02709 -0.3263673,0.02679 -0.5741438,-0.0019 z M 10.326986,9.0697073 C 10.5534,9.0163367 10.789119,8.8819699 10.964818,8.7061231 11.495176,8.1753202 11.490881,7.3165571 10.955227,6.7882353 10.679472,6.5162554 10.394398,6.4005585 10,6.4005585 c -0.3943979,0 -0.6794725,0.1156969 -0.9552271,0.3876768 -0.4265651,0.4207261 -0.524974,1.0428649 -0.2512243,1.5882353 0.1643752,0.327472 0.5144304,0.6063849 0.8686855,0.6921414 0.1832579,0.044362 0.4791319,0.04485 0.6647519,0.00109 z"
     id="path17" />
</svg>
