<?xml version="1.0" encoding="UTF-8"?>
<svg width="24px" height="24px" viewBox="0 0 24 24" version="1.1" xmlns="http://www.w3.org/2000/svg" xmlns:xlink="http://www.w3.org/1999/xlink">
    <title>Icon/error</title>
    <g id="Icon/error" stroke="none" stroke-width="1" fill="none" fill-rule="evenodd">
        <path d="M12,2 C17.5228475,2 22,6.4771525 22,12 C22,17.5228475 17.5228475,22 12,22 C6.4771525,22 2,17.5228475 2,12 C2,6.4771525 6.4771525,2 12,2 Z M12.1111111,16.4444444 L11.8888889,16.4444444 C11.3366041,16.4444444 10.8888889,16.8921597 10.8888889,17.4444444 L10.8888889,17.6666667 C10.8888889,18.2189514 11.3366041,18.6666667 11.8888889,18.6666667 L12.1111111,18.6666667 C12.6633959,18.6666667 13.1111111,18.2189514 13.1111111,17.6666667 L13.1111111,17.4444444 C13.1111111,16.8921597 12.6633959,16.4444444 12.1111111,16.4444444 Z M12.1111111,5.44444444 L11.8888889,5.44444444 C11.3366041,5.44444444 10.8888889,5.89215969 10.8888889,6.44444444 L10.8888889,6.44444444 L10.8888889,14.4444444 C10.8888889,14.9967292 11.3366041,15.4444444 11.8888889,15.4444444 L11.8888889,15.4444444 L12.1111111,15.4444444 C12.6633959,15.4444444 13.1111111,14.9967292 13.1111111,14.4444444 L13.1111111,14.4444444 L13.1111111,6.44444444 C13.1111111,5.89215969 12.6633959,5.44444444 12.1111111,5.44444444 L12.1111111,5.44444444 Z" id="Combined-Shape" fill="#ff5d5d"></path>
    </g>
</svg>