<?xml version="1.0" encoding="UTF-8"?>
<svg width="24px" height="24px" viewBox="0 0 24 24" version="1.1" xmlns="http://www.w3.org/2000/svg" xmlns:xlink="http://www.w3.org/1999/xlink">
    <title>Icon/flip</title>
    <g id="Icon/flip" stroke="none" stroke-width="1" fill="none" fill-rule="evenodd">
        <path d="M12,1 C12.553,1 13,1.447 13,2 L13,22 C13,22.553 12.553,23 12,23 C11.447,23 11,22.553 11,22 L11,2 C11,1.447 11.447,1 12,1 Z M8,4 C8.553,4 9,4.447 9,5 C9,5.553 8.553,6 8,6 L5,6 C3.897,6 3,6.897 3,8 L3,16 C3,17.103 3.897,18 5,18 L8,18 C8.553,18 9,18.447 9,19 C9,19.553 8.553,20 8,20 L5,20 C2.794,20 1,18.206 1,16 L1,8 C1,5.794 2.794,4 5,4 L8,4 Z M16.5,18 C17.053,18 17.5,18.447 17.5,19 C17.5,19.553 17.053,20 16.5,20 L16,20 C15.447,20 15,19.553 15,19 C15,18.447 15.447,18 16,18 L16.5,18 Z M22.1322,16.4184 C22.6292,16.6584 22.8362,17.2564 22.5952,17.7534 C22.4062,18.1434 22.1542,18.4994 21.8472,18.8104 C21.6502,19.0084 21.3922,19.1084 21.1352,19.1084 C20.8812,19.1084 20.6272,19.0124 20.4322,18.8204 C20.0392,18.4314 20.0352,17.7984 20.4232,17.4064 C20.5772,17.2504 20.7022,17.0734 20.7962,16.8804 C21.0372,16.3834 21.6342,16.1754 22.1322,16.4184 Z M22.0002,10.5174 C22.5532,10.5174 23.0002,10.9644 23.0002,11.5174 L23.0002,12.4924 C23.0002,13.0444 22.5532,13.4924 22.0002,13.4924 C21.4472,13.4924 21.0002,13.0444 21.0002,12.4924 L21.0002,11.5174 C21.0002,10.9644 21.4472,10.5174 22.0002,10.5174 Z M21.8542,5.1974 C22.1592,5.5074 22.4102,5.8634 22.5992,6.2534 C22.8412,6.7514 22.6342,7.3494 22.1372,7.5894 C21.9962,7.6584 21.8472,7.6904 21.7012,7.6904 C21.3302,7.6904 20.9732,7.4834 20.8012,7.1274 C20.7062,6.9314 20.5812,6.7534 20.4292,6.5994 C20.0412,6.2064 20.0472,5.5724 20.4402,5.1854 C20.8352,4.7974 21.4682,4.8024 21.8542,5.1974 Z M16.5,4 C17.053,4 17.5,4.447 17.5,5 C17.5,5.553 17.053,6 16.5,6 L16,6 C15.447,6 15,5.553 15,5 C15,4.447 15.447,4 16,4 L16.5,4 Z" id="Combined-Shape" fill="#000"></path>
    </g>
</svg>