<?xml version="1.0" encoding="UTF-8"?>
<svg width="24px" height="24px" viewBox="0 0 24 24" version="1.1" xmlns="http://www.w3.org/2000/svg" xmlns:xlink="http://www.w3.org/1999/xlink">
    <title>Icon/leader</title>
    <g id="Icon/leader" stroke="none" stroke-width="1" fill="none" fill-rule="evenodd">
        <g id="Group-6" transform="translate(1.000000, 2.000000)" fill="#FFFFFF">
            <path d="M16.0654,18 L6.1534,18 C5.6004,18 5.1534,18.447 5.1534,19 C5.1534,19.553 5.6004,20 6.1534,20 L16.0654,20 C16.6184,20 17.0654,19.553 17.0654,19 C17.0654,18.447 16.6184,18 16.0654,18" id="Fill-1"></path>
            <path d="M19.3115,12.1689 C18.4555,13.8359 17.3005,14.7659 16.5245,14.9649 C17.2225,13.9329 17.7365,12.5759 17.9625,11.1089 C18.1075,10.1669 18.1265,9.2199 18.0215,8.3359 C18.6495,7.8489 19.2675,7.6389 19.6035,7.8119 C20.2315,8.1349 20.4295,9.9929 19.3115,12.1689 M2.8075,12.1689 C1.6885,9.9929 1.8875,8.1349 2.5155,7.8119 C2.5945,7.7709 2.6895,7.7519 2.7955,7.7519 C3.1435,7.7519 3.6175,7.9629 4.0975,8.3349 C3.9915,9.2219 4.0105,10.1689 4.1565,11.1089 C4.3825,12.5769 4.8965,13.9339 5.5935,14.9659 C4.8185,14.7659 3.6645,13.8359 2.8075,12.1689 M7.4235,6.0529 C7.7385,6.0049 8.1695,6.1779 8.5765,6.5229 C9.2505,7.0949 9.9695,8.2499 10.0575,9.8079 C10.0545,9.8819 10.0445,9.9559 10.0435,10.0309 C10.0405,10.4079 10.0455,10.7589 10.0575,11.0969 C9.9555,13.6119 9.3645,14.8599 8.7945,14.9469 C8.4555,14.9989 8.0975,14.7639 7.8595,14.5559 C7.0405,13.8379 6.3785,12.4009 6.1325,10.8049 L6.1325,10.8039 C5.9895,9.8769 5.9965,8.9509 6.1515,8.1259 L6.1515,8.1259 C6.3695,6.9689 6.8805,6.1369 7.4235,6.0529 M13.5415,6.5229 C13.9465,6.1799 14.3725,6.0059 14.6955,6.0519 C15.2385,6.1359 15.7495,6.9689 15.9675,8.1259 L15.9675,8.1259 C16.1235,8.9479 16.1285,9.8749 15.9865,10.8049 C15.7405,12.3989 15.0785,13.8369 14.2595,14.5549 C14.0225,14.7639 13.6565,14.9999 13.3235,14.9469 C12.7545,14.8599 12.1645,13.6129 12.0605,11.0979 C12.0725,10.7599 12.0795,10.4079 12.0745,10.0309 C12.0735,9.9559 12.0635,9.8829 12.0605,9.8079 C12.1485,8.2509 12.8675,7.0949 13.5415,6.5229 M20.5175,6.0329 C19.6335,5.5779 18.5615,5.6889 17.4925,6.2939 C16.9505,5.0429 16.0725,4.2409 14.9995,4.0759 C14.0895,3.9389 13.1155,4.2639 12.2495,4.9969 C12.2005,5.0389 12.1575,5.0879 12.1095,5.1309 L12.1095,3.7229 C12.7055,3.3759 13.1095,2.7379 13.1095,1.9999 C13.1095,0.8959 12.2135,-0.0001 11.1095,-0.0001 C10.0045,-0.0001 9.1095,0.8959 9.1095,1.9999 C9.1095,2.7379 9.5135,3.3759 10.1095,3.7229 L10.1095,5.2279 C10.0295,5.1499 9.9535,5.0679 9.8695,4.9969 C9.0015,4.2629 8.0235,3.9379 7.1195,4.0759 C6.0465,4.2409 5.1685,5.0439 4.6255,6.2949 C3.5575,5.6899 2.4855,5.5809 1.6015,6.0329 C-0.2915,7.0059 -0.5375,10.0369 1.0285,13.0829 C2.2815,15.5209 4.2015,17.0099 5.8875,17.0099 C5.9565,17.0099 6.0205,16.9919 6.0875,16.9869 C6.1115,16.9879 6.1295,16.9999 6.1535,16.9999 L16.0655,16.9999 C16.0765,16.9999 16.0835,16.9939 16.0945,16.9939 C16.1405,16.9959 16.1845,17.0099 16.2315,17.0099 C17.9175,17.0099 19.8375,15.5209 21.0905,13.0829 C22.6555,10.0369 22.4095,7.0059 20.5175,6.0329" id="Fill-3"></path>
        </g>
    </g>
</svg>
