<?xml version="1.0" encoding="UTF-8"?>
<svg width="364px" height="53px" viewBox="0 0 364 53" version="1.1" xmlns="http://www.w3.org/2000/svg" xmlns:xlink="http://www.w3.org/1999/xlink">
    <title>logo/logotype</title>
    <defs>
        <polygon id="path-1" points="0.122099498 0.109236622 28.5895633 0.109236622 28.5895633 41.1529412 0.122099498 41.1529412"></polygon>
        <polygon id="path-3" points="0.298964207 0.0273729412 29.8688466 0.0273729412 29.8688466 40.8997259 0.298964207 40.8997259"></polygon>
    </defs>
    <g id="logo/logotype" stroke="none" stroke-width="1" fill="none" fill-rule="evenodd">
        <g id="Group-29">
            <path d="M30.4003277,1.45466294 C29.7182364,0.752257059 28.7920052,0.381257059 27.7213532,0.381257059 L27.7188524,0.381257059 C26.6803981,0.382504118 25.7888654,0.734798235 25.0680118,1.43034529 C24.3471582,2.12651588 23.966725,3.05931588 23.9676628,4.12835706 L23.9770408,17.0226335 L7.51838414,17.0369747 L7.50900617,4.14301 C7.50838097,3.08238647 7.1398266,2.15488647 6.44241794,1.45965118 C5.74594709,0.767221765 4.81752768,0.40121 3.75687884,0.40121 L3.75187725,0.40121 C2.72811511,0.401833529 1.81157446,0.764104118 1.10072405,1.44998647 C0.37987046,2.14646882 -0.00056267843,3.07926882 6.17504861e-05,4.14831 L0.0238200535,37.3761924 C0.0244452518,38.4059512 0.401752399,39.3256571 1.11385321,40.0342982 C1.82564143,40.7429394 2.74718365,41.1179924 3.77876078,41.1179924 L3.78094897,41.1179924 C4.85285138,41.1179924 5.78814797,40.7363924 6.48555662,40.0162159 C7.17139911,39.3063276 7.5333889,38.3919218 7.5327637,37.3705806 L7.52307313,23.9369512 L23.9817298,23.9222982 L23.9914204,37.3556159 C23.9920456,38.3859982 24.3693527,39.3053924 25.0814535,40.0143453 C25.7935543,40.72361 26.714784,41.0980394 27.7466737,41.0980394 L27.7488619,41.0980394 C28.8288919,41.0967924 29.7601247,40.7108276 30.4425286,39.9806747 C31.1124285,39.2636159 31.4519112,38.3791394 31.4509753,37.3509394 L31.4275284,4.12305706 C31.4265906,3.05495118 31.0811686,2.15738059 30.4003277,1.45466294" id="Fill-1" fill="#FFFFFF"></path>
            <g id="Group-5" transform="translate(36.261499, 11.712376)">
                <mask id="mask-2" fill="white">
                    <use xlink:href="#path-1"></use>
                </mask>
                <g id="Clip-4"></g>
                <path d="M26.3197525,0.468021176 C24.3069267,-0.370625882 22.614515,0.273791765 21.665464,2.26659176 L14.7914092,17.7840565 L6.91047262,2.20018588 C6.47939842,1.29513294 5.82919223,0.671915294 4.97517142,0.346432941 C4.122401,0.0231329412 3.22742969,0.0533741176 2.31307725,0.437156471 C1.41122876,0.817509412 0.741328831,1.46816235 0.375900451,2.31959176 C-0.0120350664,3.22464471 0.0457957722,4.19890941 0.542203187,5.13576235 L11.3443786,25.5653918 L6.68946503,36.0737329 C6.22713092,37.06608 6.14710555,37.9842271 6.4515771,38.8032329 C6.75979984,39.6319035 7.43657695,40.2878565 8.48691002,40.7626741 C9.1014799,41.02518 9.6413386,41.1530035 10.1364956,41.1530035 L10.1396216,41.1530035 C10.9383124,41.1520682 12.3887723,40.8568271 13.160267,38.8961388 L28.1806551,5.15166235 C28.6429892,4.13468588 28.7136366,3.20188588 28.3907217,2.37976235 C28.0659312,1.55265059 27.3703981,0.910103529 26.3197525,0.468021176" id="Fill-3" fill="#FFFFFF" mask="url(#mask-2)"></path>
            </g>
            <path d="M88.8025037,30.5748271 C88.1282274,31.7928918 87.2445097,32.72538 86.1007095,33.4259153 C84.9709762,34.1174094 83.7105765,34.4538035 82.2482378,34.4550506 L82.2416732,34.4550506 C80.8118448,34.4550506 79.5592601,34.1189682 78.4120213,33.4271624 C77.256655,32.7319271 76.375438,31.8047388 75.7177294,30.5935329 C75.0612713,29.3870035 74.7280406,28.0015212 74.7271008,26.4751212 C74.726165,24.9169212 75.0575201,23.5136682 75.7121027,22.30558 C76.3682482,21.0937506 77.2485274,20.1653153 78.4020182,19.4678976 C79.5511325,18.7732859 80.8052802,18.4359565 82.2366717,18.4350212 L82.2432362,18.4350212 C83.702449,18.4350212 84.9609731,18.7698565 86.0907063,19.4585447 C87.2351317,20.1572094 88.1204124,21.0884506 88.7959392,22.3052682 C89.4655265,23.5117976 89.8053217,24.9109976 89.8062615,26.4638976 C89.8071973,27.9853094 89.4695903,29.3686094 88.8025037,30.5748271 M89.7781256,13.5833388 C87.5689876,12.2892035 85.0341212,11.6326271 82.2422984,11.6326271 L82.2316701,11.6326271 C79.4682938,11.6344976 76.9465566,12.2948153 74.7364808,13.5945624 C72.5314065,14.8915035 70.7649089,16.6825918 69.4860658,18.9176329 C68.2097236,21.1495565 67.5457631,23.6885682 67.5132527,26.4797976 L67.5295079,48.8604506 C67.5301331,49.8902094 67.8986875,50.8011859 68.5951583,51.4948624 C69.2906914,52.1872918 70.2028556,52.5533035 71.233495,52.5533035 L71.2381839,52.5533035 C72.308836,52.5523682 73.2353798,52.1804329 73.9187215,51.4752212 C74.587371,50.7818565 74.9409206,49.8758682 74.9402954,48.8557741 L74.932793,38.4129035 C75.6830309,38.9971506 76.4957887,39.5056388 77.3663772,39.9343153 C79.1463167,40.8116212 81.1175668,41.2565094 83.2251101,41.2565094 L83.2369889,41.2565094 C85.8509428,41.2549506 88.2335733,40.5883976 90.3192347,39.2764918 C92.3889535,37.9761212 94.0426029,36.1900212 95.2354812,33.9683859 C96.4217949,31.7573506 97.0222978,29.2304976 97.0201156,26.4592212 C97.0179214,23.6736035 96.357712,21.1283565 95.0576123,18.8930035 C93.7593881,16.6629506 91.9831999,14.8762271 89.7781256,13.5833388" id="Fill-6" fill="#FFFFFF"></path>
            <path d="M108.398093,23.0501676 C108.507502,22.7346618 108.632855,22.4294441 108.775087,22.1348265 C109.368088,20.9086559 110.210855,19.9705559 111.350904,19.2672147 C112.482513,18.5701088 113.885458,18.2162559 115.520664,18.2146971 L115.527228,18.2146971 C116.91892,18.2146971 118.103983,18.5280206 119.04772,19.1450029 C120.020528,19.7825618 120.752948,20.6283794 121.286242,21.7310912 C121.48568,22.1444912 121.651358,22.5812735 121.782962,23.0411265 L108.398093,23.0501676 Z M128.754235,23.0358265 C128.507282,21.4423971 128.053701,19.9668147 127.397555,18.6262265 C126.331905,16.4504206 124.76422,14.7173206 122.73889,13.4746265 C120.721375,12.2369206 118.295919,11.60965 115.530042,11.60965 L115.515975,11.60965 C112.723214,11.6108971 110.203353,12.2531324 108.0261,13.5185853 C105.845721,14.7865324 104.116422,16.5592265 102.884782,18.7867853 C101.661269,21.0028088 101.041697,23.5832853 101.04388,26.4565088 C101.045761,29.3097794 101.706908,31.8815265 103.008884,34.0994206 C104.31336,36.32355 106.140189,38.0893853 108.438731,39.3482912 C110.720079,40.5987794 113.351538,41.2329088 116.260899,41.2329088 L116.275278,41.2329088 L116.275278,41.2329088 C117.909546,41.2319735 119.635719,40.9289382 121.405655,40.3328441 C123.184344,39.7339441 124.704826,38.9401912 125.907082,37.9871265 C127.011808,37.1431794 127.198429,36.1430382 127.15998,35.4509206 C127.108088,34.5349559 126.673888,33.7122088 125.849564,32.9876676 C125.201859,32.4436382 124.407857,32.1761441 123.542583,32.1932912 C122.72326,32.2179206 121.959268,32.48635 121.261859,32.9967088 C120.703557,33.4144735 119.941753,33.79545 118.996453,34.12935 C118.064283,34.4595088 117.14743,34.6266147 116.270902,34.62755 L116.264024,34.62755 C114.613814,34.62755 113.14241,34.2677735 111.889512,33.5588206 C110.621923,32.8423853 109.655366,31.8949324 108.935138,30.6612794 C108.695062,30.2506853 108.494998,29.8167088 108.33526,29.3609088 L125.518834,29.3490618 C126.477888,29.3484382 127.32597,29.02015 127.970549,28.4006735 C128.629196,27.7687265 128.976806,26.9366265 128.975559,25.9947853 C128.975243,25.0766382 128.915849,24.1893559 128.797999,23.3348088 L128.754235,23.0358265 Z" id="Fill-8" fill="#FFFFFF"></path>
            <path d="M152.732526,12.6392218 C151.554966,11.8647982 149.903504,11.4884982 147.683425,11.4884982 L147.667795,11.4884982 C145.502734,11.4897453 143.485219,12.0047806 141.671832,13.0192629 C141.205434,13.2795865 140.762793,13.5648512 140.34391,13.8744335 C140.182609,13.4388982 139.944409,13.0632218 139.630247,12.7498982 C138.989106,12.1132747 138.085694,11.7905982 136.945645,11.7905982 L136.940019,11.7905982 C135.827478,11.79091 134.930944,12.1241865 134.274798,12.7795159 C133.618028,13.4351571 133.285422,14.3305453 133.286358,15.4391806 L133.30199,37.3789982 C133.30324,38.5303453 133.642723,39.4385159 134.310122,40.07701 C134.964392,40.7045924 135.854987,41.0222806 136.957837,41.0222806 L136.96065,41.0222806 L136.961275,41.0222806 C138.115079,41.0210335 139.025367,40.6827688 139.668071,40.0162159 C140.297021,39.3624453 140.615246,38.4729806 140.614309,37.3733865 L140.604931,24.2337512 L140.605243,24.2337512 L140.603993,23.0415629 C140.603055,21.8506218 140.965045,20.9041041 141.711219,20.1468276 C142.506471,19.33811 143.63683,18.7713218 145.070409,18.4617394 C146.573386,18.1375041 148.313,18.1708629 150.209539,18.5524629 C150.794724,18.6865218 151.355215,18.7064747 151.872254,18.6116982 C152.447123,18.5075688 152.964162,18.2565982 153.411179,17.8637747 C153.878827,17.4506865 154.193615,16.8863924 154.347101,16.1883512 C154.549353,15.37901 154.595617,13.8669512 152.732526,12.6392218" id="Fill-10" fill="#FFFFFF"></path>
            <path d="M197.234701,0.984272353 L197.234076,0.983648824 C196.55511,0.330813529 195.714219,3.11764706e-05 194.733595,3.11764706e-05 L194.73172,3.11764706e-05 C193.394421,0.00127823529 192.317829,0.647878235 191.61917,1.87030765 L178.508763,29.1456665 L165.021986,1.93577824 L164.997291,1.88994882 C164.295818,0.66939 163.219852,0.0243488235 161.884429,0.0243488235 L161.881928,0.0243488235 C160.900992,0.0252841176 160.059475,0.357313529 159.380822,1.01233118 C158.694354,1.67576647 158.346432,2.53124882 158.347056,3.55508412 L158.371752,37.5218488 C158.372377,38.5070253 158.717487,39.3503488 159.398015,40.0275018 C160.077918,40.7043429 160.922248,41.0475959 161.908186,41.0475959 L161.911625,41.0475959 C162.899438,41.0466606 163.744393,40.7021606 164.423984,40.0240724 C165.103262,39.3453606 165.447121,38.5017253 165.446496,37.5171724 L165.431803,16.9363371 L175.089866,37.4585606 C175.748513,38.8141135 176.869493,39.5302371 178.331832,39.5302371 L178.335583,39.5302371 C179.582853,39.5293018 180.631936,38.9338312 181.369357,37.8074253 L181.400305,37.7600371 L191.206539,16.5092194 L191.221544,37.4975312 C191.222482,38.4823959 191.567591,39.3254076 192.24812,40.0034959 C192.928023,40.6797135 193.772353,41.0232782 194.757978,41.0232782 L194.761417,41.0232782 C195.708905,41.0226547 196.541981,40.6818959 197.23814,40.0100429 C197.941175,39.3300841 198.297225,38.4830194 198.296601,37.4928547 L198.271905,3.52577824 C198.27128,2.50131941 197.922419,1.64646059 197.234701,0.984272353" id="Fill-12" fill="#FFFFFF"></path>
            <path d="M210.144514,23.2178971 C210.286121,22.7384029 210.461489,22.2816676 210.668742,21.8520559 C211.300192,20.5457618 212.198602,19.5459324 213.414613,18.7958265 C214.618745,18.0538265 216.106091,17.6769029 217.835077,17.6756559 L217.84383,17.6756559 C219.324925,17.6756559 220.590639,18.01205 221.605648,18.6754853 C222.647228,19.3576265 223.430289,20.2620559 223.999845,21.4395912 C224.264303,21.9876735 224.472807,22.5790912 224.624105,23.2079206 L210.144514,23.2178971 Z M225.05643,13.3848382 C223.041728,12.1490029 220.615334,11.5223559 217.843205,11.5223559 L217.830388,11.5223559 C215.028875,11.5242265 212.504012,12.1677088 210.325196,13.4334735 C208.144192,14.7017324 206.413643,16.47505 205.18169,18.7044794 C203.955676,20.9242441 203.334854,23.5128265 203.336725,26.3994559 C203.338918,29.2630147 204.001003,31.8406853 205.304229,34.0616971 C206.60933,36.2880088 208.43866,38.0557147 210.74064,39.3164912 C213.027928,40.5700971 215.669078,41.2057853 218.591255,41.2057853 L218.606572,41.2057853 C220.243341,41.2045382 221.97514,40.9002559 223.754454,40.3010441 C225.540333,39.6999618 227.063941,38.9055853 228.269324,37.9497147 C229.294961,37.1668735 229.468141,36.2468559 229.43313,35.6117912 C229.384365,34.7581794 228.97486,33.9865618 228.200552,33.3059794 C227.587857,32.7903206 226.862002,32.5455853 226.04393,32.5642912 C225.269622,32.5876735 224.545643,32.8417618 223.88387,33.3262441 C223.289619,33.7711324 222.484051,34.1748676 221.488423,34.5262265 C220.504049,34.8750912 219.533116,35.0521735 218.602195,35.0527971 L218.592818,35.0527971 C216.855079,35.0527971 215.301774,34.6724441 213.974791,33.9214029 C212.649683,33.1728559 211.596224,32.1390441 210.843485,30.8492735 C210.521195,30.2977618 210.265802,29.7022912 210.080118,29.0700324 L228.055193,29.0569382 C228.969233,29.0569382 229.742603,28.7585794 230.354047,28.1715265 C230.966429,27.5829147 231.289656,26.8072441 231.288721,25.9283794 C231.286843,23.1595971 230.754487,20.6695324 229.706342,18.5273971 C228.641629,16.3543971 227.07707,14.6247265 225.05643,13.3848382 L225.05643,13.3848382 Z" id="Fill-14" fill="#FFFFFF"></path>
            <path d="M241.629404,23.1962918 C241.771011,22.7167976 241.946379,22.2600624 242.153945,21.8301388 C242.78477,20.5244682 243.682868,19.5246388 244.899191,18.7742212 C246.103948,18.0322212 247.591294,17.6552976 249.319655,17.6537388 L249.326845,17.6537388 C250.808565,17.6537388 252.075216,17.9901329 253.090226,18.65388 C254.132119,19.3360212 254.915179,20.2404506 255.484422,21.4176741 C255.748881,21.9657565 255.957697,22.5577976 256.108995,23.1860035 L241.629404,23.1962918 Z M256.54132,13.3632329 L256.54132,13.3629212 C254.525993,12.1270859 252.099286,11.5004388 249.327783,11.5004388 L249.315279,11.5004388 C246.51314,11.5026212 243.987964,12.1461035 241.810399,13.4118682 C239.629707,14.6798153 237.899158,16.4528212 236.66658,18.6825624 C235.440254,20.9023271 234.819432,23.4912212 234.821925,26.3781624 C234.823808,29.2414094 235.485893,31.8193918 236.789119,34.0400918 C238.09422,36.26578 239.92355,38.0337976 242.225218,39.2945741 C244.512818,40.54818 247.153968,41.1838682 250.076145,41.1838682 L250.091462,41.1838682 C251.727919,41.1829329 253.46003,40.8789624 255.239345,40.2797506 C257.024286,39.67898 258.547894,38.8842918 259.754526,37.9281094 C260.780164,37.1443329 260.953032,36.2249388 260.917708,35.5901859 C260.869255,34.7362624 260.459438,33.9646447 259.685442,33.2843741 C259.072435,32.7687153 258.347205,32.5258506 257.528195,32.5423741 C256.753887,32.56638 256.029908,32.8204682 255.368448,33.3043271 C254.77451,33.7492153 253.968942,34.1532624 252.973626,34.5046212 C251.988001,34.8534859 251.017068,35.0305682 250.087086,35.0311918 L250.077708,35.0311918 C248.339969,35.0311918 246.786352,34.6505271 245.459994,33.9001094 C244.134261,33.1509388 243.080802,32.1171271 242.328063,30.8276682 C242.006086,30.2758447 241.750692,29.6806859 241.564696,29.0484271 L259.540396,29.0353329 C260.454749,29.0347094 261.227806,28.7369741 261.838937,28.1502329 C262.451007,27.5613094 262.774547,26.7856388 262.773611,25.9064624 C262.771733,23.13768 262.239377,20.6476153 261.190919,18.5051682 C260.126519,16.3327918 258.561961,14.6031212 256.54132,13.3632329 L256.54132,13.3632329 Z" id="Fill-16" fill="#FFFFFF"></path>
            <path d="M280.433209,34.1065288 L280.431646,34.1065288 L278.720791,34.1077759 L278.71829,34.1077759 C277.919599,34.1077759 277.284085,33.7854112 276.717968,33.09267 C276.112151,32.3528524 275.817058,31.4431229 275.816432,30.3126641 L275.807992,18.8387876 L279.162806,18.8366053 C280.102479,18.83567 280.888041,18.5507171 281.498234,17.9886053 C282.119369,17.4149582 282.446972,16.6604876 282.446347,15.8078112 C282.446035,14.8884171 282.116868,14.1002759 281.494483,13.5278759 C280.884915,12.9676347 280.100603,12.6839288 279.162181,12.6839288 L279.15843,12.6839288 L275.803928,12.6861112 L275.799239,6.38004647 C275.798302,5.39580529 275.470385,4.57025235 274.822992,3.92458765 C274.176225,3.28110529 273.348462,2.95499941 272.36315,2.95499941 L272.359711,2.95499941 C271.371898,2.95593471 270.54351,3.28328765 269.897993,3.92801706 C269.251851,4.57337 268.924872,5.40017 268.925497,6.38503471 L268.930186,12.6910994 L267.537244,12.6920347 C266.596321,12.6926582 265.810447,12.9779229 265.203067,13.5390994 C264.581307,14.1114994 264.253078,14.9005759 264.253702,15.8209053 C264.254328,16.6754524 264.583495,17.4292994 265.205568,18.0007641 C265.814511,18.5610053 266.599134,18.8447112 267.53787,18.8447112 L267.541933,18.8447112 L268.93425,18.8437759 L268.94269,30.3176524 C268.944253,32.2992288 269.370013,34.1136994 270.208404,35.7093112 C271.052109,37.3173935 272.227482,38.6074759 273.701699,39.54277 C275.185607,40.4852347 276.87333,40.9628582 278.71829,40.9628582 L278.726105,40.9628582 L279.631705,40.9622347 C280.724551,40.9612994 281.644218,40.6510935 282.364759,40.0400347 C283.120311,39.4002935 283.5195,38.5329641 283.518876,37.5315759 C283.517937,36.5682229 283.22722,35.7551406 282.653288,35.1135288 C282.061225,34.4544582 281.293482,34.1065288 280.433209,34.1065288" id="Fill-18" fill="#FFFFFF"></path>
            <path d="M291.928104,0.582688235 L291.924978,0.582688235 C290.770549,0.583623529 289.764605,1.00419412 288.934967,1.83255294 C288.105642,2.66091176 287.685509,3.66479412 287.686445,4.81614118 C287.687072,5.96748824 288.108455,6.97105882 288.939344,7.79879412 C289.769294,8.62465882 290.774613,9.04367059 291.927791,9.04367059 L291.930917,9.04367059 C293.085659,9.04273529 294.091603,8.62247647 294.920928,7.79411765 C295.750566,6.96575882 296.170387,5.96156471 296.169762,4.81021765 C296.169136,3.65855882 295.74744,2.6553 294.916864,1.8285 C294.087226,1.00201176 293.081595,0.582688235 291.928104,0.582688235" id="Fill-20" fill="#FFFFFF"></path>
            <path d="M294.447215,12.6413418 L294.446278,12.6404065 C293.79951,11.9969241 292.95518,11.67113 291.936419,11.67113 L291.932981,11.67113 C290.951107,11.6717535 290.118343,11.9956771 289.457508,12.6332359 C288.786983,13.2795241 288.447813,14.1269006 288.448437,15.1513594 L288.464381,37.4780771 C288.465318,38.4645006 288.8023,39.2994065 289.46501,39.9581653 C290.127095,40.6184829 290.963611,40.95363 291.952362,40.95363 L291.954237,40.95363 C292.980813,40.9530065 293.829832,40.6131829 294.477537,39.9435124 C295.116177,39.2838182 295.439405,38.4523418 295.438781,37.4730888 L295.422837,15.1466829 C295.421899,14.1290829 295.09367,13.2863829 294.447215,12.6413418" id="Fill-22" fill="#FFFFFF"></path>
            <path d="M328.144589,17.6880329 L328.144589,17.6880329 C327.005165,15.6353741 325.424664,14.0541035 323.446536,12.9875565 C321.492166,11.9350388 319.258646,11.4016094 316.807243,11.4016094 L316.794114,11.4016094 C314.434929,11.4031682 312.272368,11.9322329 310.366138,12.9741506 C309.875983,13.2419565 309.407709,13.5390682 308.964444,13.86268 C308.802517,13.3950329 308.543998,12.98288 308.189511,12.6293388 C307.542743,11.98648 306.698413,11.6603741 305.680277,11.6603741 L305.676526,11.6603741 C304.694965,11.6606859 303.861888,11.9846094 303.200741,12.6227918 C302.530529,13.2693918 302.191046,14.1164565 302.19167,15.1406035 L302.207926,37.5175153 C302.208551,38.5036271 302.545533,39.3382212 303.208556,39.9979153 C303.870641,40.6585447 304.706844,40.9930682 305.693719,40.9930682 L305.697158,40.9930682 C306.724358,40.9927565 307.573378,40.6529329 308.221083,39.9835741 C308.859411,39.3232565 309.182951,38.49178 309.182325,37.5128388 L309.172322,23.3612153 C309.171697,22.3077624 309.445534,21.4070741 310.00915,20.6049035 C310.586521,19.78278 311.384899,19.1127976 312.38209,18.6149094 C313.387409,18.1120329 314.534648,17.8573212 315.792859,17.8563859 L315.801299,17.8563859 C317.189865,17.8563859 318.429633,18.1192035 319.48528,18.6370447 C320.520921,19.1455329 321.324301,19.90468 321.941371,20.9578212 C322.559693,22.0137682 322.873855,23.4276212 322.875105,25.1604094 L322.88417,37.5028624 C322.884796,38.4886624 323.221465,39.3232565 323.8848,39.9829506 C324.547198,40.64358 325.3834,40.9784153 326.370588,40.9784153 L326.373714,40.9784153 C327.36184,40.97748 328.198668,40.6417094 328.861066,39.9798329 C329.523463,39.3179565 329.858882,38.4827388 329.858258,37.4981859 L329.849504,25.1557329 C329.847316,22.2357447 329.273697,19.7232329 328.144589,17.6880329" id="Fill-24" fill="#FFFFFF"></path>
            <g id="Group-28" transform="translate(333.855868, 11.400612)">
                <mask id="mask-4" fill="white">
                    <use xlink:href="#path-3"></use>
                </mask>
                <g id="Clip-27"></g>
                <path d="M22.0683731,19.3221788 C21.3978479,20.5723553 20.4547364,21.5681318 19.2646715,22.2814494 C18.0746066,22.9944553 16.6769759,23.3564141 15.1114795,23.3576612 L15.1042897,23.3576612 C13.5403563,23.3576612 12.1446011,22.9975729 10.9560993,22.2873729 C9.7625958,21.5746788 8.80791806,20.5779671 8.11863698,19.3246729 C7.42560472,18.0648318 7.0733055,16.5761553 7.07205177,14.9001082 C7.07080471,13.2234376 7.42154093,11.7244729 8.1148858,10.4446788 C8.80197868,9.17610824 9.75446822,8.17066706 10.9454709,7.45703765 C12.1349106,6.74403176 13.5322287,6.38207294 15.0989755,6.38082588 L15.1058527,6.38082588 C16.6691609,6.38082588 18.064916,6.74122588 19.2537305,7.45111412 C20.4434828,8.16224941 21.3875322,9.16363765 22.0599329,10.4275318 C22.7407738,11.7085729 23.086821,13.2094082 23.0880748,14.8885729 C23.0893218,16.5664906 22.746088,18.0582847 22.0683731,19.3221788 L22.0683731,19.3221788 Z M29.8611567,14.8838965 C29.8586559,11.9935259 29.2156395,9.40244941 27.9493004,7.18112588 C26.6798354,4.95668471 24.9127125,3.18804353 22.6970099,1.92414941 C20.4872467,0.665555294 17.9336244,0.0273729412 15.1067905,0.0273729412 L15.0942865,0.0273729412 C12.2280651,0.0292435294 9.6538113,0.671478824 7.44404807,1.93537294 C5.22990845,3.20176118 3.46559897,4.97320824 2.1995725,7.19983176 C0.936046828,9.42146706 0.296781612,12.0141024 0.298964207,14.9050965 C0.301158,17.7530671 0.897284536,20.3192024 2.07109426,22.5330435 C3.25271896,24.7606024 4.89699037,26.5326729 6.95858162,27.7987494 C9.02298626,29.0688788 11.424998,29.7120494 14.0980331,29.7120494 L14.1099119,29.7120494 C16.5985135,29.7101788 18.8357855,29.0570318 20.7585827,27.7706906 C21.6147917,27.1979788 22.3941013,26.5223847 23.09151,25.7488965 C23.0493091,27.5989082 22.6829429,29.1832965 22.0002264,30.4621553 C21.2840618,31.8039906 20.3134416,32.8290729 19.1158743,33.5096553 C17.9048653,34.1961612 16.5600638,34.5450259 15.119607,34.5459612 L15.1105417,34.5459612 C13.5134727,34.5459612 12.0723908,34.2547729 10.8273084,33.6814376 C9.59066628,33.11122 8.55158678,32.3053082 7.7547716,31.3070376 C7.21428771,30.5887318 6.49499712,30.1341788 5.61721876,29.9555376 C4.71630808,29.77222 3.8475951,29.9533553 3.0238964,30.5017494 C2.28366167,31.0096141 1.82539135,31.6954965 1.661902,32.5394435 C1.49497407,33.3952376 1.72035804,34.2563318 2.32492475,35.0432259 C3.85290929,36.9552788 5.7463222,38.42712 7.95233425,39.4188435 C10.1392777,40.4015259 12.5131555,40.8997259 15.008947,40.8997259 L15.0230139,40.8997259 C17.9311236,40.8978553 20.5375751,40.2094788 22.7701581,38.8536141 C24.9961765,37.5014906 26.7564222,35.6530376 28.0021297,33.36032 C29.2428356,31.0757082 29.8708473,28.5052082 29.8689759,25.7211494 L29.8611567,14.8838965 Z" id="Fill-26" fill="#FFFFFF" mask="url(#mask-4)"></path>
            </g>
        </g>
    </g>
</svg>