<?xml version="1.0" encoding="UTF-8"?>
<svg width="20px" height="20px" viewBox="0 0 20 20" version="1.1" xmlns="http://www.w3.org/2000/svg" xmlns:xlink="http://www.w3.org/1999/xlink">
    <!-- Generator: Sketch 63.1 (92452) - https://sketch.com -->
    <title>Icon/system/mic</title>
    <desc>Created with Sketch.</desc>
    <g id="Icon/system/mic" stroke="none" stroke-width="1" fill="none" fill-rule="evenodd">
        <polygon id="Path" points="0 0 20 0 20 20 0 20"></polygon>
        <path d="M4.50114593,10.0003423 C4.61058038,10.0003423 4.74041897,10.0118103 4.81138334,10.0828162 C4.86460662,10.1360707 4.89230158,10.1865868 4.91773284,10.2538695 L4.94327118,10.3274635 C5.62226071,12.3927753 7.41951395,13.8932047 9.55614095,13.9942268 L9.786,14 L10,14 C12.1598745,14 14.0081927,12.5707883 14.7660648,10.5468897 L14.8430572,10.3278058 C14.8784,10.2203022 14.9039807,10.1541645 14.9749451,10.0831585 C15.0459094,10.0121526 15.175748,10.000744 15.2851825,10.0007082 L16.388136,10.0003423 C16.5454033,10.0003423 16.6073137,9.9993051 16.6964495,10.0831585 C16.8165283,10.1961212 16.7944818,10.3186498 16.7547744,10.4749211 C16.0309077,13.3237455 13.7790428,15.4977977 11.000787,15.923927 L11,18.5 C11,18.7761424 10.7761424,19 10.5,19 L9.5,19 C9.22385763,19 9,18.7761424 9,18.5 L8.99994082,15.9528582 C6.12358861,15.6083304 3.77395269,13.3963369 3.03155403,10.4745788 C2.99184658,10.3183075 2.96980009,10.1957789 3.08987889,10.0828162 C3.16118755,10.0157335 3.21507192,10.0029512 3.3142942,10.0005479 L4.50114593,10.0003423 Z M10,1 C11.6568542,1 13,2.34314575 13,4 L13,9 C13,10.6568542 11.6568542,12 10,12 C8.34314575,12 7,10.6568542 7,9 L7,4 C7,2.34314575 8.34314575,1 10,1 Z M10,3 C9.48716416,3 9.06449284,3.38604019 9.00672773,3.88337887 L9,4 L9,9 C9,9.55228475 9.44771525,10 10,10 C10.5128358,10 10.9355072,9.61395981 10.9932723,9.11662113 L11,9 L11,4 C11,3.44771525 10.5522847,3 10,3 Z" id="Shape" fill="#000"></path>
    </g>
</svg>