<?xml version="1.0" encoding="UTF-8"?>
<svg width="24px" height="24px" viewBox="0 0 24 24" version="1.1" xmlns="http://www.w3.org/2000/svg" xmlns:xlink="http://www.w3.org/1999/xlink">
    <title>Icon/reversal_1</title>
    <g id="Icon/reversal_1" stroke="none" stroke-width="1" fill="none" fill-rule="evenodd">
        <path d="M13.699,10.04615 C14.115,9.91515 14.568,10.06915 14.819,10.42715 L14.819,10.42715 L21.819,20.42715 C22.033,20.73215 22.059,21.13115 21.887,21.46215 C21.715,21.79315 21.373,22.00015 21,22.00015 L21,22.00015 L14,22.00015 C13.448,22.00015 13,21.55315 13,21.00015 L13,21.00015 L13,11.00015 C13,10.56315 13.283,10.17815 13.699,10.04615 Z M9.181,10.42715 C9.431,10.06915 9.884,9.91415 10.301,10.04615 C10.717,10.17815 11,10.56315 11,11.00015 L11,11.00015 L11,21.00015 C11,21.55315 10.552,22.00015 10,22.00015 L10,22.00015 L3,22.00015 C2.627,22.00015 2.285,21.79315 2.113,21.46215 C1.941,21.13115 1.967,20.73215 2.181,20.42715 L2.181,20.42715 Z M15,14.17215 L15,20.00015 L19.08,20.00015 L15,14.17215 Z M18.394,2.29325 C18.785,1.90225 19.417,1.90225 19.808,2.29325 L19.808,2.29325 L22.432,4.91725 C22.479,4.96525 22.501,5.02725 22.541,5.08025 C22.811,5.25925 23,5.55125 23,5.89925 C23,6.24825 22.811,6.54025 22.54,6.71925 C22.499,6.77325 22.476,6.83825 22.427,6.88725 L22.427,6.88725 L19.789,9.49825 C19.594,9.69025 19.34,9.78725 19.085,9.78725 C18.828,9.78725 18.57,9.68825 18.375,9.49025 C17.986,9.09925 17.989,8.46525 18.382,8.07625 L18.382,8.07625 L19.57,6.89925 L12.101,6.89925 C12.065,6.89925 12.035,6.88325 12,6.87925 C11.965,6.88325 11.935,6.89925 11.899,6.89925 L11.899,6.89925 L4.415,6.89925 L5.606,8.09125 C5.997,8.48125 5.997,9.11425 5.606,9.50525 C5.411,9.70025 5.155,9.79825 4.899,9.79825 C4.643,9.79825 4.387,9.70025 4.192,9.50525 L4.192,9.50525 L1.568,6.88125 C1.521,6.83425 1.501,6.77325 1.463,6.72125 C1.19,6.54325 1,6.25025 1,5.89925 C1,5.55025 1.19,5.25825 1.461,5.07925 C1.501,5.02525 1.522,4.96325 1.571,4.91425 L1.571,4.91425 L4.211,2.30125 C4.604,1.91425 5.237,1.91525 5.625,2.30925 C6.014,2.70125 6.011,3.33425 5.618,3.72325 L5.618,3.72325 L4.429,4.89925 L11.899,4.89925 C11.935,4.89925 11.965,4.91625 12,4.92025 C12.035,4.91625 12.065,4.89925 12.101,4.89925 L12.101,4.89925 L19.586,4.89925 L18.394,3.70725 C18.003,3.31625 18.003,2.68425 18.394,2.29325 Z" id="Combined-Shape" fill="#000"></path>
    </g>
</svg>
