<?xml version="1.0" encoding="UTF-8"?>
<svg width="20px" height="20px" viewBox="0 0 20 20" version="1.1" xmlns="http://www.w3.org/2000/svg" xmlns:xlink="http://www.w3.org/1999/xlink">
    <!-- Generator: Sketch 63.1 (92452) - https://sketch.com -->
    <title>Icon/system/no_device</title>
    <desc>Created with Sketch.</desc>
    <g id="Icon/system/no_device" stroke="none" stroke-width="1" fill="none" fill-rule="evenodd">
        <path d="M2.86289944,1.45970461 L2.95710678,1.54289322 L18.4571068,17.0428932 C18.8476311,17.4334175 18.8476311,18.0665825 18.4571068,18.4571068 C18.0966228,18.8175907 17.5293918,18.8453203 17.1371006,18.5402954 L17.0428932,18.4571068 L13.9163087,15.3302714 C13.7526668,15.7236506 13.3667151,16 12.9166667,16 L2.08333333,16 C1.48502485,16 1,15.5115834 1,14.9090909 L1,5.09090909 C1,4.48841664 1.48502485,4 2.08333333,4 L2.585,4 L1.54289322,2.95710678 C1.15236893,2.56658249 1.15236893,1.93341751 1.54289322,1.54289322 C1.90337718,1.18240926 2.47060824,1.15467972 2.86289944,1.45970461 Z M12.9166667,4 C13.5149751,4 14,4.48841664 14,5.09090909 L14,7.388 L17.7298976,4.99435118 C17.9622806,4.84517772 18.2715933,4.91263244 18.4207668,5.14501551 C18.472499,5.22560417 18.5,5.31935388 18.5,5.41511794 L18.5,14.285 L11.833,7.619 L11.8333333,6.18181818 L10.395,6.181 L8.214,4 L12.9166667,4 Z M4.766,6.181 L3.16666667,6.18181818 L3.16666667,13.8181818 L11.8333333,13.8181818 L11.833,13.248 L4.766,6.181 Z" id="Combined-Shape" fill="#000"></path>
    </g>
</svg>