<?xml version="1.0" encoding="UTF-8" standalone="no"?>
<svg
   xmlns:dc="http://purl.org/dc/elements/1.1/"
   xmlns:cc="http://creativecommons.org/ns#"
   xmlns:rdf="http://www.w3.org/1999/02/22-rdf-syntax-ns#"
   xmlns:svg="http://www.w3.org/2000/svg"
   xmlns="http://www.w3.org/2000/svg"
   xmlns:sodipodi="http://sodipodi.sourceforge.net/DTD/sodipodi-0.dtd"
   xmlns:inkscape="http://www.inkscape.org/namespaces/inkscape"
   width="24px"
   height="24px"
   viewBox="0 0 24 24"
   version="1.1"
   id="svg8"
   sodipodi:docname="new_info.svg"
   inkscape:version="1.0.1 (3bc2e813f5, 2020-09-07)">
  <metadata
     id="metadata14">
    <rdf:RDF>
      <cc:Work
         rdf:about="">
        <dc:format>image/svg+xml</dc:format>
        <dc:type
           rdf:resource="http://purl.org/dc/dcmitype/StillImage" />
        <dc:title>Icon/info</dc:title>
      </cc:Work>
    </rdf:RDF>
  </metadata>
  <defs
     id="defs12" />
  <sodipodi:namedview
     pagecolor="#ffffff"
     bordercolor="#666666"
     borderopacity="1"
     objecttolerance="10"
     gridtolerance="10"
     guidetolerance="10"
     inkscape:pageopacity="0"
     inkscape:pageshadow="2"
     inkscape:window-width="1920"
     inkscape:window-height="1017"
     id="namedview10"
     showgrid="false"
     inkscape:zoom="35.416667"
     inkscape:cx="12"
     inkscape:cy="12"
     inkscape:window-x="-8"
     inkscape:window-y="-8"
     inkscape:window-maximized="1"
     inkscape:current-layer="svg8" />
  <title
     id="title2">Icon/info</title>
  <g
     id="Icon/info"
     stroke="none"
     stroke-width="1"
     fill="none"
     fill-rule="evenodd">
    <g
       id="info-24px">
      <polygon
         id="Path"
         points="0 0 24 0 24 24 0 24" />
      <path
         d="M11,7 L13,7 L13,9 L11,9 L11,7 Z M11,11 L13,11 L13,17 L11,17 L11,11 Z M12,2 C6.48,2 2,6.48 2,12 C2,17.52 6.48,22 12,22 C17.52,22 22,17.52 22,12 C22,6.48 17.52,2 12,2 Z M12,20 C7.59,20 4,16.41 4,12 C4,7.59 7.59,4 12,4 C16.41,4 20,7.59 20,12 C20,16.41 16.41,20 12,20 Z"
         id="Shape"
         fill="#3A3A3A" />
    </g>
  </g>
  <path
     style="fill:#ffffff;stroke-width:0.0282353"
     d="M 11.348954,21.964393 C 8.453387,21.778975 5.769868,20.317892 4.0032324,17.964901 1.7678748,14.987618 1.3889985,10.997431 3.022556,7.6367777 3.5166423,6.6203133 4.1076702,5.7988247 4.9532473,4.9532473 5.7988247,4.1076702 6.6203133,3.5166423 7.6367777,3.022556 10.671849,1.5472584 14.264556,1.7056104 17.132873,3.4411055 c 0.751033,0.4544177 1.243346,0.8427419 1.899793,1.4985079 0.488546,0.4880397 0.780359,0.8275567 1.117676,1.3003866 0.821109,1.1509793 1.422341,2.5781458 1.672379,3.969789 0.209436,1.165661 0.209436,2.414761 0,3.580422 -0.281041,1.564197 -0.952557,3.050494 -1.978542,4.379201 -0.346175,0.448316 -1.235287,1.335995 -1.683543,1.680832 -1.680746,1.292972 -3.504295,1.984316 -5.581812,2.116176 -0.500664,0.03178 -0.707288,0.03144 -1.22987,-0.002 z m 1.665524,-2.016386 c 3.249636,-0.408411 5.949219,-2.799009 6.752198,-5.979365 0.384007,-1.520937 0.315045,-3.115804 -0.199088,-4.6042497 C 18.777926,7.0782762 16.921724,5.2220736 14.635608,4.432412 12.925127,3.8415843 11.077419,3.8406859 9.3718148,4.4298527 7.0733421,5.2238137 5.2238137,7.0733421 4.4298527,9.3718148 c -1.006761,2.9145162 -0.2710154,6.1099532 1.908682,8.2896502 1.3600495,1.36005 3.0732147,2.153682 5.0261713,2.328398 0.378161,0.03383 1.216856,0.01255 1.649772,-0.04186 z"
     id="path16" />
  <path
     style="fill:#ffffff;stroke-width:0.0282353"
     d="M 11.011765,14.004706 V 11.011765 H 12 12.988235 v 2.992941 2.992941 H 12 11.011765 Z"
     id="path18" />
  <path
     style="fill:#ffffff;stroke-width:0.0282353"
     d="M 11.011765,7.9905882 V 7.0023529 H 12 12.988235 V 7.9905882 8.9788235 H 12 11.011765 Z"
     id="path20" />
</svg>
