<?xml version="1.0" encoding="UTF-8"?>
<svg width="24px" height="24px" viewBox="0 0 24 24" version="1.1" xmlns="http://www.w3.org/2000/svg" xmlns:xlink="http://www.w3.org/1999/xlink">
    <title>Icon/up</title>
    <g id="Icon/up" stroke="none" stroke-width="1" fill="none" fill-rule="evenodd">
        <g id="cancel-24px">
            <polygon id="Path" opacity="0.87" points="0 0 24 0 24 24 0 24"></polygon>
            <path d="M12,2 C6.47,2 2,6.47 2,12 C2,17.53 6.47,22 12,22 C17.53,22 22,17.53 22,12 C22,6.47 17.53,2 12,2 Z M12,20 C7.59,20 4,16.41 4,12 C4,7.59 7.59,4 12,4 C16.41,4 20,7.59 20,12 C20,16.41 16.41,20 12,20 Z" id="Shape" fill="#FFFFFF" fill-rule="nonzero"></path>
            <polygon id="Path" fill="#FFFFFF" fill-rule="nonzero" transform="translate(12.000000, 12.000000) rotate(-180.000000) translate(-11.000000, -11.000000) " points="7.175 9 11 12.708502 14.825 9 16 10.1417004 11 15 6 10.1417004"></polygon>
        </g>
    </g>
</svg>