<?xml version="1.0" encoding="UTF-8"?>
<svg width="24px" height="24px" viewBox="0 0 24 24" version="1.1" xmlns="http://www.w3.org/2000/svg" xmlns:xlink="http://www.w3.org/1999/xlink">
    <title>Icon/group</title>
    <g id="Icon/group" stroke="none" stroke-width="1" fill="none" fill-rule="evenodd">
        <g id="group-24px">
            <polygon id="Path" points="0 0 24 0 24 24 0 24"></polygon>
            <g id="Group-8" transform="translate(1.000000, 3.000000)" fill="#FFFFFF">
                <path d="M5.585,4.5377 C5.947,4.1777 6.422,3.9977 6.897,3.9977 C7.373,3.9977 7.848,4.1777 8.21,4.5377 C8.558,4.8837 8.75,5.3437 8.75,5.8327 C8.75,6.3217 8.558,6.7817 8.21,7.1277 C7.487,7.8477 6.31,7.8487 5.585,7.1277 C5.236,6.7817 5.044,6.3217 5.044,5.8327 C5.044,5.3437 5.236,4.8837 5.585,4.5377 M6.897,9.6657 C7.883,9.6657 8.869,9.2927 9.62,8.5467 C10.349,7.8227 10.75,6.8587 10.75,5.8327 C10.75,4.8077 10.349,3.8437 9.62,3.1187 C8.118,1.6267 5.675,1.6267 4.175,3.1187 C3.446,3.8437 3.044,4.8077 3.044,5.8327 C3.044,6.8587 3.446,7.8227 4.175,8.5467 C4.925,9.2927 5.911,9.6657 6.897,9.6657" id="Fill-1"></path>
                <path d="M14.2905,2.5377 C14.6525,2.1777 15.1275,1.9977 15.6025,1.9977 C16.0785,1.9977 16.5535,2.1777 16.9155,2.5377 C17.2635,2.8837 17.4555,3.3437 17.4555,3.8327 C17.4555,4.3217 17.2635,4.7817 16.9155,5.1277 C16.1915,5.8487 15.0145,5.8477 14.2905,5.1277 C13.9415,4.7817 13.7495,4.3217 13.7495,3.8327 C13.7495,3.3437 13.9415,2.8837 14.2905,2.5377 M15.6025,7.6657 C16.5885,7.6657 17.5745,7.2927 18.3255,6.5467 C19.0545,5.8227 19.4555,4.8587 19.4555,3.8327 C19.4555,2.8077 19.0545,1.8437 18.3255,1.1187 C16.8235,-0.3733 14.3805,-0.3733 12.8805,1.1187 C12.1515,1.8437 11.7495,2.8077 11.7495,3.8327 C11.7495,4.8587 12.1515,5.8227 12.8805,6.5467 C13.6305,7.2927 14.6165,7.6657 15.6025,7.6657" id="Fill-3"></path>
                <path d="M19.084,13.65 L13.607,13.65 C13.308,12.72 12.644,11.961 11.775,11.54 C12.048,11.314 12.391,11.175 12.764,11.175 L18.441,11.175 C19.301,11.175 20,11.875 20,12.734 C20,13.239 19.589,13.65 19.084,13.65 M10.879,15.65 L2.916,15.65 C2.411,15.65 2,15.239 2,14.734 C2,13.875 2.699,13.175 3.559,13.175 L10.236,13.175 C11.095,13.175 11.794,13.875 11.794,14.734 C11.794,15.239 11.384,15.65 10.879,15.65 M18.441,9.175 L12.764,9.175 C11.387,9.175 10.159,9.973 9.571,11.175 L3.559,11.175 C1.597,11.175 0,12.772 0,14.734 C0,16.342 1.308,17.65 2.916,17.65 L10.879,17.65 C12.165,17.65 13.246,16.808 13.633,15.65 L19.084,15.65 C20.692,15.65 22,14.342 22,12.734 C22,10.772 20.403,9.175 18.441,9.175" id="Fill-6"></path>
            </g>
        </g>
    </g>
</svg>
