<?xml version="1.0" encoding="UTF-8"?>
<svg width="24px" height="24px" viewBox="0 0 24 24" version="1.1" xmlns="http://www.w3.org/2000/svg" xmlns:xlink="http://www.w3.org/1999/xlink">
    <title>Icon/view_focus</title>
    <g id="Icon/view_focus" stroke="none" stroke-width="1" fill="none" fill-rule="evenodd">
        <g id="view_sidebar-24px">
            <rect id="Rectangle" x="0" y="0" width="24" height="24"></rect>
            <g id="Group-13" transform="translate(0.000000, 3.000000)" fill="#FFFFFF">
                <path d="M4.0239,2.8672 C2.8349,2.8672 1.8659,3.8352 1.8659,5.0242 L1.8659,13.0942 C1.8659,14.2832 2.8349,15.2512 4.0239,15.2512 L11.4409,15.2512 C12.6299,15.2512 13.5979,14.2832 13.5979,13.0942 L13.5979,5.0242 C13.5979,3.8352 12.6299,2.8672 11.4409,2.8672 L4.0239,2.8672 Z M11.4409,17.1182 L4.0239,17.1182 C1.8049,17.1182 -0.0001,15.3122 -0.0001,13.0942 L-0.0001,5.0242 C-0.0001,2.8052 1.8049,1.0002 4.0239,1.0002 L11.4409,1.0002 C13.6599,1.0002 15.4639,2.8052 15.4639,5.0242 L15.4639,13.0942 C15.4639,15.3122 13.6599,17.1182 11.4409,17.1182 L11.4409,17.1182 Z" id="Fill-1"></path>
                <path d="M18.894,2.8252 C18.581,2.8252 18.326,3.0802 18.326,3.3932 L18.326,3.5332 C18.326,3.8462 18.581,4.1012 18.894,4.1012 L21.733,4.1012 C22.046,4.1012 22.301,3.8462 22.301,3.5332 L22.301,3.3932 C22.301,3.0802 22.046,2.8252 21.733,2.8252 L18.894,2.8252 Z M21.733,5.7652 L18.894,5.7652 C17.664,5.7652 16.662,4.7642 16.662,3.5332 L16.662,3.3932 C16.662,2.1622 17.664,1.1612 18.894,1.1612 L21.733,1.1612 C22.964,1.1612 23.965,2.1622 23.965,3.3932 L23.965,3.5332 C23.965,4.7642 22.964,5.7652 21.733,5.7652 L21.733,5.7652 Z" id="Fill-4"></path>
                <path d="M18.894,8.502 C18.581,8.502 18.326,8.757 18.326,9.069 L18.326,9.21 C18.326,9.523 18.581,9.777 18.894,9.777 L21.733,9.777 C22.046,9.777 22.301,9.523 22.301,9.21 L22.301,9.069 C22.301,8.757 22.046,8.502 21.733,8.502 L18.894,8.502 Z M21.733,11.441 L18.894,11.441 C17.664,11.441 16.662,10.44 16.662,9.21 L16.662,9.069 C16.662,7.839 17.664,6.838 18.894,6.838 L21.733,6.838 C22.964,6.838 23.965,7.839 23.965,9.069 L23.965,9.21 C23.965,10.44 22.964,11.441 21.733,11.441 L21.733,11.441 Z" id="Fill-7"></path>
                <path d="M18.894,14.1777 C18.581,14.1777 18.326,14.4327 18.326,14.7447 L18.326,14.8857 C18.326,15.1987 18.581,15.4537 18.894,15.4537 L21.733,15.4537 C22.046,15.4537 22.301,15.1987 22.301,14.8857 L22.301,14.7447 C22.301,14.4327 22.046,14.1777 21.733,14.1777 L18.894,14.1777 Z M21.733,17.1177 L18.894,17.1177 C17.664,17.1177 16.662,16.1167 16.662,14.8857 L16.662,14.7447 C16.662,13.5147 17.664,12.5137 18.894,12.5137 L21.733,12.5137 C22.964,12.5137 23.965,13.5147 23.965,14.7447 L23.965,14.8857 C23.965,16.1167 22.964,17.1177 21.733,17.1177 L21.733,17.1177 Z" id="Fill-10"></path>
            </g>
        </g>
    </g>
</svg>
