<?xml version="1.0" encoding="UTF-8"?>
<svg width="24px" height="24px" viewBox="0 0 24 24" version="1.1" xmlns="http://www.w3.org/2000/svg" xmlns:xlink="http://www.w3.org/1999/xlink">
    <title>Icon/view_grid</title>
    <g id="Icon/view_grid" stroke="none" stroke-width="1" fill="none" fill-rule="evenodd">
        <g id="view_module-24px">
            <polygon id="Path" points="0 0 24 0 24 24 0 24"></polygon>
            <path d="M4.577,12.4414 C6.155,12.4414 7.44,13.7264 7.44,15.3044 L7.44,15.3044 L7.44,17.1284 C7.44,18.7064 6.155,19.9914 4.577,19.9914 L4.577,19.9914 L2.863,19.9914 C1.285,19.9914 5.37347944e-14,18.7064 5.37347944e-14,17.1284 L5.37347944e-14,17.1284 L5.37347944e-14,15.3044 C5.37347944e-14,13.7264 1.285,12.4414 2.863,12.4414 L2.863,12.4414 Z M12.8572,12.4414 C14.4362,12.4414 15.7202,13.7264 15.7202,15.3044 L15.7202,15.3044 L15.7202,17.1284 C15.7202,18.7064 14.4362,19.9914 12.8572,19.9914 L12.8572,19.9914 L11.1432,19.9914 C9.5652,19.9914 8.2802,18.7064 8.2802,17.1284 L8.2802,17.1284 L8.2802,15.3044 C8.2802,13.7264 9.5652,12.4414 11.1432,12.4414 L11.1432,12.4414 Z M21.1375,12.4414 C22.7165,12.4414 24.0005,13.7264 24.0005,15.3044 L24.0005,15.3044 L24.0005,17.1284 C24.0005,18.7064 22.7165,19.9914 21.1375,19.9914 L21.1375,19.9914 L19.4245,19.9914 C17.8455,19.9914 16.5605,18.7064 16.5605,17.1284 L16.5605,17.1284 L16.5605,15.3044 C16.5605,13.7264 17.8455,12.4414 19.4245,12.4414 L19.4245,12.4414 Z M4.577,14.2424 L2.863,14.2424 C2.277,14.2424 1.801,14.7184 1.801,15.3044 L1.801,15.3044 L1.801,17.1284 C1.801,17.7144 2.277,18.1904 2.863,18.1904 L2.863,18.1904 L4.577,18.1904 C5.162,18.1904 5.639,17.7144 5.639,17.1284 L5.639,17.1284 L5.639,15.3044 C5.639,14.7184 5.162,14.2424 4.577,14.2424 L4.577,14.2424 Z M12.8572,14.2424 L11.1432,14.2424 C10.5572,14.2424 10.0812,14.7184 10.0812,15.3044 L10.0812,15.3044 L10.0812,17.1284 C10.0812,17.7144 10.5572,18.1904 11.1432,18.1904 L11.1432,18.1904 L12.8572,18.1904 C13.4432,18.1904 13.9192,17.7144 13.9192,17.1284 L13.9192,17.1284 L13.9192,15.3044 C13.9192,14.7184 13.4432,14.2424 12.8572,14.2424 L12.8572,14.2424 Z M21.1375,14.2424 L19.4245,14.2424 C18.8385,14.2424 18.3615,14.7184 18.3615,15.3044 L18.3615,15.3044 L18.3615,17.1284 C18.3615,17.7144 18.8385,18.1904 19.4245,18.1904 L19.4245,18.1904 L21.1375,18.1904 C21.7235,18.1904 22.1995,17.7144 22.1995,17.1284 L22.1995,17.1284 L22.1995,15.3044 C22.1995,14.7184 21.7235,14.2424 21.1375,14.2424 L21.1375,14.2424 Z M4.577,4 C6.155,4 7.44,5.285 7.44,6.863 L7.44,6.863 L7.44,8.687 C7.44,10.265 6.155,11.549 4.577,11.549 L4.577,11.549 L2.863,11.549 C1.285,11.549 5.37347944e-14,10.265 5.37347944e-14,8.687 L5.37347944e-14,8.687 L5.37347944e-14,6.863 C5.37347944e-14,5.285 1.285,4 2.863,4 L2.863,4 Z M12.8572,4 C14.4362,4 15.7202,5.285 15.7202,6.863 L15.7202,6.863 L15.7202,8.687 C15.7202,10.265 14.4362,11.549 12.8572,11.549 L12.8572,11.549 L11.1432,11.549 C9.5652,11.549 8.2802,10.265 8.2802,8.687 L8.2802,8.687 L8.2802,6.863 C8.2802,5.285 9.5652,4 11.1432,4 L11.1432,4 Z M21.1375,4 C22.7165,4 24.0005,5.285 24.0005,6.863 L24.0005,6.863 L24.0005,8.687 C24.0005,10.265 22.7165,11.549 21.1375,11.549 L21.1375,11.549 L19.4245,11.549 C17.8455,11.549 16.5605,10.265 16.5605,8.687 L16.5605,8.687 L16.5605,6.863 C16.5605,5.285 17.8455,4 19.4245,4 L19.4245,4 Z M4.577,5.8 L2.863,5.8 C2.277,5.8 1.801,6.277 1.801,6.863 L1.801,6.863 L1.801,8.687 C1.801,9.273 2.277,9.749 2.863,9.749 L2.863,9.749 L4.577,9.749 C5.162,9.749 5.639,9.273 5.639,8.687 L5.639,8.687 L5.639,6.863 C5.639,6.277 5.162,5.8 4.577,5.8 L4.577,5.8 Z M12.8572,5.8 L11.1432,5.8 C10.5572,5.8 10.0812,6.277 10.0812,6.863 L10.0812,6.863 L10.0812,8.687 C10.0812,9.273 10.5572,9.749 11.1432,9.749 L11.1432,9.749 L12.8572,9.749 C13.4432,9.749 13.9192,9.273 13.9192,8.687 L13.9192,8.687 L13.9192,6.863 C13.9192,6.277 13.4432,5.8 12.8572,5.8 L12.8572,5.8 Z M21.1375,5.8 L19.4245,5.8 C18.8385,5.8 18.3615,6.277 18.3615,6.863 L18.3615,6.863 L18.3615,8.687 C18.3615,9.273 18.8385,9.749 19.4245,9.749 L19.4245,9.749 L21.1375,9.749 C21.7235,9.749 22.1995,9.273 22.1995,8.687 L22.1995,8.687 L22.1995,6.863 C22.1995,6.277 21.7235,5.8 21.1375,5.8 L21.1375,5.8 Z" id="Combined-Shape" fill="#FFFFFF"></path>
        </g>
    </g>
</svg>
