<?xml version="1.0" encoding="UTF-8"?>
<svg width="32px" height="32px" viewBox="0 0 32 32" version="1.1" xmlns="http://www.w3.org/2000/svg" xmlns:xlink="http://www.w3.org/1999/xlink">
    <!-- Generator: Sketch 63.1 (92452) - https://sketch.com -->
    <title>illust/Profile/face/face04</title>
    <desc>Created with Sketch.</desc>
    <g id="illust/Profile/face/face04" stroke="none" stroke-width="1" fill="none" fill-rule="evenodd" opacity="0.6">
        <path d="M30.7878178,19.3952227 C31.2424082,20.2416105 30.9425017,21.3060245 30.1179578,21.7726579 C26.5338713,23.8009972 21.8271028,24.7971686 16.0019311,24.8039803 C10.174758,24.8107254 5.46577304,23.8175157 1.87985455,21.7811053 C1.05597728,21.3132329 0.757589547,20.2483693 1.21338689,19.4026657 C1.66918424,18.5569622 2.70656548,18.2506696 3.53044274,18.718542 C6.55101981,20.4339001 10.7052683,21.3101059 15.9980666,21.3039481 C21.2928664,21.2977879 25.4493313,20.4180863 28.4717404,18.7076167 C29.2962842,18.2409833 30.3332274,18.548835 30.7878178,19.3952227 Z M20.2352442,10.2495293 L20.3576854,10.3264968 C20.9455681,10.7362307 21.6455155,10.9429034 22.5,10.9429034 C23.2595418,10.9429034 23.8969802,10.7796065 24.4421449,10.455549 L24.6423146,10.3264968 C25.321956,9.85281024 26.2569131,10.0197697 26.7305997,10.6994111 C27.2042863,11.3790526 27.0373269,12.3140097 26.3576854,12.7876963 C25.2509705,13.5590383 23.950918,13.9429034 22.5,13.9429034 C21.049082,13.9429034 19.7490295,13.5590383 18.6423146,12.7876963 C17.9626731,12.3140097 17.7957137,11.3790526 18.2694003,10.6994111 C18.7152229,10.0597486 19.5696451,9.87422651 20.2352442,10.2495293 Z M14.2940025,10.7984414 C14.7129961,11.5130993 14.473313,12.4321054 13.7586551,12.851099 C12.5302786,13.5712786 11.2716808,13.9429034 10,13.9429034 C8.72831917,13.9429034 7.46972135,13.5712786 6.24134487,12.851099 C5.52668704,12.4321054 5.28700387,11.5130993 5.70599753,10.7984414 C6.12499118,10.0837836 7.04399729,9.84410043 7.75865513,10.2630941 C8.54478435,10.7239904 9.28618653,10.9429034 10,10.9429034 C10.7138135,10.9429034 11.4552156,10.7239904 12.2413449,10.2630941 C12.9560027,9.84410043 13.8750088,10.0837836 14.2940025,10.7984414 Z" id="Combined-Shape" fill="#0B1D41"></path>
    </g>
</svg>