<?xml version="1.0" encoding="UTF-8"?>
<svg width="32px" height="32px" viewBox="0 0 32 32" version="1.1" xmlns="http://www.w3.org/2000/svg" xmlns:xlink="http://www.w3.org/1999/xlink">
    <!-- Generator: Sketch 63.1 (92452) - https://sketch.com -->
    <title>illust/Profile/face/face05</title>
    <desc>Created with Sketch.</desc>
    <g id="illust/Profile/face/face05" stroke="none" stroke-width="1" fill="none" fill-rule="evenodd" opacity="0.6">
        <path d="M30.7878178,19.3952227 C31.2424082,20.2416105 30.9425017,21.3060245 30.1179578,21.7726579 C29.6740899,22.0238557 29.213003,22.2592228 28.7347052,22.4788405 L29.4590387,25.1888677 C30.1737477,27.8561982 28.5908353,30.597883 25.9235047,31.312592 C23.3282642,32.0079846 20.6626343,30.5282732 19.8621302,27.9909279 L19.7997804,27.7770581 L18.9766559,24.7080149 C18.0198125,24.7708698 17.0282298,24.8027802 16.0019311,24.8039803 C10.174758,24.8107254 5.46577304,23.8175157 1.87985455,21.7811053 C1.05597728,21.3132329 0.757589547,20.2483693 1.21338689,19.4026657 C1.66918424,18.5569622 2.70656548,18.2506696 3.53044274,18.718542 C6.55101981,20.4339001 10.7052683,21.3101059 15.9980666,21.3039481 C21.2928664,21.2977879 25.4493313,20.4180863 28.4717404,18.7076167 C29.2962842,18.2409833 30.3332274,18.548835 30.7878178,19.3952227 Z M25.9104848,23.5344397 C24.6935421,23.8977632 23.3898468,24.1823884 21.999491,24.3892367 L22.6975579,27.000601 C22.9568023,27.9681145 23.8827752,28.5789329 24.8486969,28.4711848 L25.0014514,28.4481477 L25.1470476,28.4148146 C26.1654829,28.1419257 26.7886881,27.1302795 26.5945943,26.110921 L26.5612612,25.9653248 L25.9104848,23.5344397 Z M10.5,8 C11.8807119,8 13,9.11928813 13,10.5 C13,11.8807119 11.8807119,13 10.5,13 C9.11928813,13 8,11.8807119 8,10.5 C8,9.11928813 9.11928813,8 10.5,8 Z M21.8857907,8 C23.2665026,8 24.3857907,9.11928813 24.3857907,10.5 C24.3857907,11.8807119 23.2665026,13 21.8857907,13 C20.5050788,13 19.3857907,11.8807119 19.3857907,10.5 C19.3857907,9.11928813 20.5050788,8 21.8857907,8 Z" id="Combined-Shape" fill="#0B1D41" fill-rule="nonzero"></path>
    </g>
</svg>