<?xml version="1.0" encoding="UTF-8"?>
<svg width="32px" height="32px" viewBox="0 0 32 32" version="1.1" xmlns="http://www.w3.org/2000/svg" xmlns:xlink="http://www.w3.org/1999/xlink">
    <!-- Generator: Sketch 63.1 (92452) - https://sketch.com -->
    <title>illust/Profile/face/face03</title>
    <desc>Created with Sketch.</desc>
    <g id="illust/Profile/face/face03" stroke="none" stroke-width="1" fill="none" fill-rule="evenodd" opacity="0.6">
        <path d="M28.4717404,18.7076167 C29.2962842,18.2409833 30.3332274,18.548835 30.7878178,19.3952227 C31.2424082,20.2416105 30.9425017,21.3060245 30.1179578,21.7726579 C26.5338713,23.8009972 21.8271028,24.7971686 16.0019311,24.8039803 C10.174758,24.8107254 5.46577304,23.8175157 1.87985455,21.7811053 C1.05597728,21.3132329 0.757589547,20.2483693 1.21338689,19.4026657 C1.66918424,18.5569622 2.70656548,18.2506696 3.53044274,18.718542 C6.55101981,20.4339001 10.7052683,21.3101059 15.9980666,21.3039481 C21.2928664,21.2977879 25.4493313,20.4180863 28.4717404,18.7076167 Z" id="Combined-Shape" fill="#0B1D41"></path>
        <circle id="Oval-Copy" fill="#0B1D41" cx="10.5" cy="10.5" r="2.5"></circle>
        <path d="M26.4074549,7.26248556 C26.7828963,7.86804625 26.6427024,8.65681905 26.0886792,9.09630429 L25.9745219,9.17735812 L23.913,10.4550309 L26.4471974,10.4550309 C27.1596312,10.4550309 27.7561416,10.9898133 27.8377298,11.6922607 L27.8464653,11.8319937 C27.8471286,12.5675335 27.3123462,13.1640439 26.6098989,13.2456321 L26.4701658,13.254367 L19,13.2550309 C17.6632556,13.2550309 17.0942753,11.5636658 18.1305375,10.7568128 L18.2447091,10.6767148 L24.479879,6.81032291 C25.1370256,6.40289879 26.0000308,6.6053389 26.4074549,7.26248556 Z" id="Combined-Shape" fill="#0B1D41" fill-rule="nonzero"></path>
    </g>
</svg>