<?xml version="1.0" encoding="UTF-8"?>
<svg width="32px" height="32px" viewBox="0 0 32 32" version="1.1" xmlns="http://www.w3.org/2000/svg" xmlns:xlink="http://www.w3.org/1999/xlink">
    <!-- Generator: Sketch 63.1 (92452) - https://sketch.com -->
    <title>illust/Profile/face/face02</title>
    <desc>Created with Sketch.</desc>
    <g id="illust/Profile/face/face02" stroke="none" stroke-width="1" fill="none" fill-rule="evenodd" opacity="0.6">
        <path d="M30.7878178,19.3952227 C31.2424082,20.2416105 30.9425017,21.3060245 30.1179578,21.7726579 C26.5338713,23.8009972 21.8271028,24.7971686 16.0019311,24.8039803 C10.174758,24.8107254 5.46577304,23.8175157 1.87985455,21.7811053 C1.05597728,21.3132329 0.757589547,20.2483693 1.21338689,19.4026657 C1.66918424,18.5569622 2.70656548,18.2506696 3.53044274,18.718542 C6.55101981,20.4339001 10.7052683,21.3101059 15.9980666,21.3039481 C21.2928664,21.2977879 25.4493313,20.4180863 28.4717404,18.7076167 C29.2962842,18.2409833 30.3332274,18.548835 30.7878178,19.3952227 Z M28.0911889,7.02060176 C28.2984598,7.77224319 27.8953114,8.54808278 27.1813511,8.8203604 L27.0439144,8.86538249 L21.6424599,10.353976 L27.0439144,11.8442949 C27.8425334,12.0645202 28.3114142,12.8904566 28.0911889,13.6890757 C27.8839181,14.4407171 27.1401003,14.9002721 26.3874957,14.7681333 L26.2464082,14.7363502 L15.9994599,11.910976 L5.75359179,14.7363502 L5.6125043,14.7681333 C4.85989966,14.9002721 4.11608187,14.4407171 3.90881105,13.6890757 C3.70154023,12.9374342 4.10468861,12.1615946 4.81864889,11.889317 L4.95608563,11.8442949 L10.3564599,10.353976 L4.95608563,8.86538249 C4.15746661,8.64515725 3.68858581,7.81922078 3.90881105,7.02060176 C4.11608187,6.26896033 4.85989966,5.80940535 5.6125043,5.94154411 L5.75359179,5.97332718 L15.9994599,8.79797602 L26.2464082,5.97332718 L26.3874957,5.94154411 C27.1401003,5.80940535 27.8839181,6.26896033 28.0911889,7.02060176 Z" id="Combined-Shape" fill="#0B1D41"></path>
    </g>
</svg>