<?xml version="1.0" encoding="UTF-8"?>
<svg width="32px" height="32px" viewBox="0 0 32 32" version="1.1" xmlns="http://www.w3.org/2000/svg" xmlns:xlink="http://www.w3.org/1999/xlink">
    <!-- Generator: Sketch 63.1 (92452) - https://sketch.com -->
    <title>illust/Profile/face/face01</title>
    <desc>Created with Sketch.</desc>
    <g id="illust/Profile/face/face01" stroke="none" stroke-width="1" fill="none" fill-rule="evenodd" opacity="0.6">
        <path d="M30.7878178,19.3952227 C31.2424082,20.2416105 30.9425017,21.3060245 30.1179578,21.7726579 C26.5338713,23.8009972 21.8271028,24.7971686 16.0019311,24.8039803 C10.174758,24.8107254 5.46577304,23.8175157 1.87985455,21.7811053 C1.05597728,21.3132329 0.757589547,20.2483693 1.21338689,19.4026657 C1.66918424,18.5569622 2.70656548,18.2506696 3.53044274,18.718542 C6.55101981,20.4339001 10.7052683,21.3101059 15.9980666,21.3039481 C21.2928664,21.2977879 25.4493313,20.4180863 28.4717404,18.7076167 C29.2962842,18.2409833 30.3332274,18.548835 30.7878178,19.3952227 Z M10.5,8 C11.8807119,8 13,9.11928813 13,10.5 C13,11.8807119 11.8807119,13 10.5,13 C9.11928813,13 8,11.8807119 8,10.5 C8,9.11928813 9.11928813,8 10.5,8 Z M21.8857907,8 C23.2665026,8 24.3857907,9.11928813 24.3857907,10.5 C24.3857907,11.8807119 23.2665026,13 21.8857907,13 C20.5050788,13 19.3857907,11.8807119 19.3857907,10.5 C19.3857907,9.11928813 20.5050788,8 21.8857907,8 Z" id="Combined-Shape" fill="#0B1D41" fill-rule="nonzero"></path>
    </g>
</svg>