<?xml version="1.0" encoding="UTF-8"?>
<svg width="20px" height="20px" viewBox="0 0 20 20" version="1.1" xmlns="http://www.w3.org/2000/svg" xmlns:xlink="http://www.w3.org/1999/xlink">
    <!-- Generator: Sketch 63.1 (92452) - https://sketch.com -->
    <title>Icon/system/account_add</title>
    <desc>Created with Sketch.</desc>
    <g id="Icon/system/account_add" stroke="none" stroke-width="1" fill="none" fill-rule="evenodd">
        <polygon id="Path" points="0 0 20 0 20 20 0 20"></polygon>
        <path d="M8.992,1 C13.416,1 17,4.584 17,9 C17,13.416 13.416,17 8.992,17 C4.576,17 1,13.416 1,9 C1,4.584 4.576,1 8.992,1 Z M8.992,2.5 C5.40641646,2.5 2.5,5.41043639 2.5,9 C2.5,12.5895636 5.40641646,15.5 8.992,15.5 C12.586567,15.5 15.5,12.5885777 15.5,9 C15.5,5.41142231 12.586567,2.5 8.992,2.5 Z M11.8805564,8.33308474 C12.1101752,8.6650698 11.9987842,9.1025679 11.6317578,9.3102641 C10.7985334,9.78177661 9.59224791,10.2777778 8,10.2777778 C6.40775209,10.2777778 5.20146663,9.78177661 4.36824218,9.3102641 C4.00121576,9.1025679 3.88982483,8.6650698 4.11944357,8.33308474 C4.34906232,8.00109969 4.83273879,7.90034366 5.19976521,8.10803985 C5.73734129,8.41224822 6.67505337,8.85966305 8,8.85966305 C9.32494663,8.85966305 10.2626587,8.41224822 10.8002348,8.10803985 C11.1672612,7.90034366 11.6509377,8.00109969 11.8805564,8.33308474 Z M6,5 C6.55228475,5 7,5.44771525 7,6 C7,6.55228475 6.55228475,7 6,7 C5.44771525,7 5,6.55228475 5,6 C5,5.44771525 5.44771525,5 6,5 Z M10,5 C10.5522847,5 11,5.44771525 11,6 C11,6.55228475 10.5522847,7 10,7 C9.44771525,7 9,6.55228475 9,6 C9,5.44771525 9.44771525,5 10,5 Z" id="Combined-Shape" fill="#000000"></path>
        <g id="+" transform="translate(7.500000, 7.500000)">
            <circle id="Oval" fill="#6C56E5" cx="6.5" cy="6.5" r="6"></circle>
            <path d="M6.5,3 C6.91421356,3 7.25,3.33578644 7.25,3.75 L7.25,5.75 L9.25,5.75 C9.66421356,5.75 10,6.08578644 10,6.5 C10,6.91421356 9.66421356,7.25 9.25,7.25 L7.25,7.25 L7.25,9.25 C7.25,9.66421356 6.91421356,10 6.5,10 C6.08578644,10 5.75,9.66421356 5.75,9.25 L5.75,7.25 L3.75,7.25 C3.33578644,7.25 3,6.91421356 3,6.5 C3,6.08578644 3.33578644,5.75 3.75,5.75 L5.75,5.75 L5.75,3.75 C5.75,3.33578644 6.08578644,3 6.5,3 Z" id="Combined-Shape" fill="#FFFFFF"></path>
        </g>
    </g>
</svg>