<?xml version="1.0" encoding="UTF-8"?>
<svg width="20px" height="20px" viewBox="0 0 20 20" version="1.1" xmlns="http://www.w3.org/2000/svg" xmlns:xlink="http://www.w3.org/1999/xlink">
    <!-- Generator: Sketch 63.1 (92452) - https://sketch.com -->
    <title>Icon/system/add1</title>
    <desc>Created with Sketch.</desc>
    <g id="Icon/system/add1" stroke="none" stroke-width="1" fill="none" fill-rule="evenodd">
        <path d="M10,1 C10.5522847,1 11,1.44771525 11,2 L11,9 L18,9 C18.5522847,9 19,9.44771525 19,10 C19,10.5522847 18.5522847,11 18,11 L10.999,11 L11,18 C11,18.5522847 10.5522847,19 10,19 C9.44771525,19 9,18.5522847 9,18 L8.999,11 L2,11 C1.44771525,11 1,10.5522847 1,10 C1,9.44771525 1.44771525,9 2,9 L9,9 L9,2 C9,1.44771525 9.44771525,1 10,1 Z" id="Combined-Shape" fill="#000000"></path>
    </g>
</svg>