<?xml version="1.0" encoding="UTF-8"?>
<svg width="20px" height="20px" viewBox="0 0 20 20" version="1.1" xmlns="http://www.w3.org/2000/svg" xmlns:xlink="http://www.w3.org/1999/xlink">
    <!-- Generator: Sketch 63.1 (92452) - https://sketch.com -->
    <title>Icon/system/add3</title>
    <desc>Created with Sketch.</desc>
    <g id="Icon/system/add3" stroke="none" stroke-width="1" fill="none" fill-rule="evenodd">
        <path d="M10,1 C14.9705627,1 19,5.02943725 19,10 C19,14.9705627 14.9705627,19 10,19 C5.02943725,19 1,14.9705627 1,10 C1,5.02943725 5.02943725,1 10,1 Z M10,3 C6.13400675,3 3,6.13400675 3,10 C3,13.8659932 6.13400675,17 10,17 C13.8659932,17 17,13.8659932 17,10 C17,6.13400675 13.8659932,3 10,3 Z M10,6 C10.4418278,6 10.8,6.3581722 10.8,6.8 L10.8,9.2 L13.2,9.2 C13.6418278,9.2 14,9.5581722 14,10 C14,10.4418278 13.6418278,10.8 13.2,10.8 L10.8,10.8 L10.8,13.2 C10.8,13.6418278 10.4418278,14 10,14 C9.5581722,14 9.2,13.6418278 9.2,13.2 L9.2,10.7992 L6.8,10.8 C6.3581722,10.8 6,10.4418278 6,10 C6,9.5581722 6.3581722,9.2 6.8,9.2 L9.2,9.1992 L9.2,6.8 C9.2,6.3581722 9.5581722,6 10,6 Z" id="Combined-Shape" fill="#000000"></path>
    </g>
</svg>