<?xml version="1.0" encoding="UTF-8"?>
<svg width="20px" height="20px" viewBox="0 0 20 20" version="1.1" xmlns="http://www.w3.org/2000/svg" xmlns:xlink="http://www.w3.org/1999/xlink">
    <!-- Generator: Sketch 63.1 (92452) - https://sketch.com -->
    <title>Icon/system/address</title>
    <desc>Created with Sketch.</desc>
    <g id="Icon/system/address" stroke="none" stroke-width="1" fill="none" fill-rule="evenodd">
        <g id="Group-2" transform="translate(0.000000, 1.000000)" fill="#000000">
            <path d="M16,0 C17.6568542,0 19,1.34314575 19,3 L19,15 C19,16.6568542 17.6568542,18 16,18 L5,18 C3.34314575,18 2,16.6568542 2,15 L2,12.999 L0.9,13 C0.402943725,13 0,12.5970563 0,12.1 C0,11.6029437 0.402943725,11.2 0.9,11.2 L2,11.199 L2,9.399 L0.9,9.4 C0.402943725,9.4 0,8.99705627 0,8.5 C0,8.00294373 0.402943725,7.6 0.9,7.6 L2,7.6 L2,5.8 L0.9,5.8 C0.402943725,5.8 0,5.39705627 0,4.9 C0,4.40294373 0.402943725,4 0.9,4 L2,4 L2,3 C2,1.34314575 3.34314575,0 5,0 L16,0 Z M16,2 L5,2 C4.48716416,2 4.06449284,2.38604019 4.00672773,2.88337887 L4,3 L4,4 L4.1,4 C4.59705627,4 5,4.40294373 5,4.9 C5,5.39705627 4.59705627,5.8 4.1,5.8 L4,5.8 L4,7.6 L4.1,7.6 C4.59705627,7.6 5,8.00294373 5,8.5 C5,8.99705627 4.59705627,9.4 4.1,9.4 L4,9.399 L4,11.199 L4.1,11.2 C4.59705627,11.2 5,11.6029437 5,12.1 C5,12.5970563 4.59705627,13 4.1,13 L4,12.999 L4,15 C4,15.5128358 4.38604019,15.9355072 4.88337887,15.9932723 L5,16 L5.20709519,15.9997783 C5.86009726,13.6913869 7.98252634,12 10.5,12 C13.0174737,12 15.1399027,13.6913869 15.7929048,15.9997783 L16,16 C16.5128358,16 16.9355072,15.6139598 16.9932723,15.1166211 L17,15 L17,3 C17,2.48716416 16.6139598,2.06449284 16.1166211,2.00672773 L16,2 Z M10.5,14 C9.1037025,14 7.89837572,14.8176429 7.33669547,16.0002529 L13.6633045,16.0002529 C13.1016243,14.8176429 11.8962975,14 10.5,14 Z M10.5,4 C12.425,4 14,5.575 14,7.5 C14,9.425 12.425,11 10.5,11 C8.575,11 7,9.425 7,7.5 C7,5.575 8.575,4 10.5,4 Z M10.5,6 C9.6795695,6 9,6.6795695 9,7.5 C9,8.3204305 9.6795695,9 10.5,9 C11.3204305,9 12,8.3204305 12,7.5 C12,6.6795695 11.3204305,6 10.5,6 Z" id="Shape"></path>
        </g>
    </g>
</svg>