<?xml version="1.0" encoding="UTF-8"?>
<svg width="20px" height="20px" viewBox="0 0 20 20" version="1.1" xmlns="http://www.w3.org/2000/svg" xmlns:xlink="http://www.w3.org/1999/xlink">
    <!-- Generator: Sketch 63.1 (92452) - https://sketch.com -->
    <title>Icon/system/alarm</title>
    <desc>Created with Sketch.</desc>
    <g id="Icon/system/alarm" stroke="none" stroke-width="1" fill="none" fill-rule="evenodd">
        <g id="TeeCalendar_Icon/alarm" transform="translate(2.000000, 1.000000)" fill="#000000">
            <path d="M8.00015946,0 C8.7279942,0 9.3237767,0.538269038 9.3913503,1.22918154 L9.39773369,1.36042227 L9.39773369,1.64301029 C12.242056,2.24260381 14.1997705,4.65959272 14.3063378,7.58546187 L14.3107442,12.7988863 C14.3108545,12.9293117 14.3619234,13.0545316 14.453057,13.1478345 L15.7240863,14.4491186 C16.2843866,14.9945243 15.9363213,15.9117974 15.1742049,15.994059 L15.0625679,16 L10,16 C10,17.1055276 9.10552764,18 8,18 C6.94472362,18 6.08175173,17.1849952 6.00548007,16.1493814 L6,16 L0.928433888,16 C0.136898669,16 -0.272613679,15.0280849 0.202314802,14.45 L1.53580838,13.1494788 C1.6322965,13.0553764 1.68670809,12.926306 1.68670809,12.7915277 L1.68670809,7.83746637 C1.68670809,4.88358653 3.56796067,2.40120077 6.36097384,1.69882427 L6.60258524,1.64301029 L6.60258524,1.36042227 C6.60258524,0.607655281 7.22683506,0 8.00015946,0 Z M7.99877567,2.93868039 C7.51582654,2.93868039 7.02551068,3.00676828 7.02551068,3.00676828 C5.03304283,3.44189062 3.36516368,5.23357086 3.36516368,7.37718828 L3.36516368,14 L12.5819354,14 L12.5819354,14 L12.5819354,7.37718828 L12.5819354,7.37718828 C12.5819354,5.23357086 10.9216102,3.44189062 8.92914239,3.00676828 C8.92914239,3.00676828 8.46742753,2.93868039 7.99877567,2.93868039 Z" id="Shape"></path>
        </g>
    </g>
</svg>