<?xml version="1.0" encoding="UTF-8"?>
<svg width="20px" height="20px" viewBox="0 0 20 20" version="1.1" xmlns="http://www.w3.org/2000/svg" xmlns:xlink="http://www.w3.org/1999/xlink">
    <!-- Generator: Sketch 63.1 (92452) - https://sketch.com -->
    <title>Icon/system/alarm_none</title>
    <desc>Created with Sketch.</desc>
    <g id="Icon/system/alarm_none" stroke="none" stroke-width="1" fill="none" fill-rule="evenodd">
        <path d="M2.86289944,1.45970461 L2.95710678,1.54289322 L18.4571068,17.0428932 C18.8476311,17.4334175 18.8476311,18.0665825 18.4571068,18.4571068 C18.0966228,18.8175907 17.5293918,18.8453203 17.1371006,18.5402954 L17.0428932,18.4571068 L15.585,17 L12,17 C12,18.1055276 11.1055276,19 10,19 C8.94472362,19 8.08175173,18.1849952 8.00548007,17.1493814 L8,17 L2.92843389,17 C2.13689867,17 1.72738632,16.0280849 2.2023148,15.45 L3.53580838,14.1494788 C3.6322965,14.0553764 3.68670809,13.926306 3.68670809,13.7915277 L3.68670809,8.83746637 C3.68670809,7.74671694 3.94322231,6.7202571 4.40743716,5.82397012 L1.54289322,2.95710678 C1.15236893,2.56658249 1.15236893,1.93341751 1.54289322,1.54289322 C1.90337718,1.18240926 2.47060824,1.15467972 2.86289944,1.45970461 Z M5.36516368,8.37718828 L5.36516368,15 L13.584,14.999 L5.59696435,7.01285728 C5.44732625,7.44297449 5.36516368,7.90141287 5.36516368,8.37718828 Z M10.0001595,1 C10.7279942,1 11.3237767,1.53826904 11.3913503,2.22918154 L11.3977337,2.36042227 L11.3977337,2.64301029 C14.242056,3.24260381 16.1997705,5.65959272 16.3063378,8.58546187 L16.309,12.394 L14.581,10.666 L14.5819354,8.37718828 C14.5819354,6.23357086 12.9216102,4.44189062 10.9291424,4.00676828 C10.9291424,4.00676828 10.4674275,3.93868039 9.99877567,3.93868039 C9.51582654,3.93868039 9.02551068,4.00676828 9.02551068,4.00676828 C8.73889365,4.06936074 8.4589933,4.16002432 8.18980817,4.27576859 L7.08622672,3.17136592 C7.48478037,2.97130739 7.911047,2.81197018 8.36097384,2.69882427 L8.60258524,2.64301029 L8.60258524,2.36042227 C8.60258524,1.60765528 9.22683506,1 10.0001595,1 Z" id="Combined-Shape" fill="#000000"></path>
    </g>
</svg>