<?xml version="1.0" encoding="UTF-8"?>
<svg width="20px" height="20px" viewBox="0 0 20 20" version="1.1" xmlns="http://www.w3.org/2000/svg" xmlns:xlink="http://www.w3.org/1999/xlink">
    <!-- Generator: Sketch 63.1 (92452) - https://sketch.com -->
    <title>Icon/system/arrow_end</title>
    <desc>Created with Sketch.</desc>
    <g id="Icon/system/arrow_end" stroke="none" stroke-width="1" fill="none" fill-rule="evenodd">
        <path d="M14.4662396,10 C14.5247237,10 14.5813569,10.0205041 14.6262857,10.0579447 C14.7146767,10.1316039 14.7393606,10.2533534 14.6939811,10.3532732 L14.6582949,10.4100461 L10.1920553,15.7695336 C10.1823755,15.7811494 10.1716619,15.791863 10.1600461,15.8015428 C10.0716551,15.875202 9.9474502,15.8775265 9.85735167,15.8148725 L9.80794468,15.7695336 L5.34170508,10.4100461 C5.30426446,10.3651173 5.2837604,10.3084841 5.2837604,10.25 C5.2837604,10.1316533 5.36599382,10.0325132 5.4764377,10.0066027 L5.5337604,10 L14.4662396,10 Z M14.4662396,4 C14.5247237,4 14.5813569,4.02050405 14.6262857,4.05794468 C14.7146767,4.13160386 14.7393606,4.25335343 14.6939811,4.35327319 L14.6582949,4.4100461 L10.1920553,9.76953362 C10.1823755,9.78114938 10.1716619,9.79186303 10.1600461,9.80154284 C10.0716551,9.87520202 9.9474502,9.87752646 9.85735167,9.81487253 L9.80794468,9.76953362 L5.34170508,4.4100461 C5.30426446,4.36511735 5.2837604,4.30848413 5.2837604,4.25 C5.2837604,4.13165327 5.36599382,4.03251318 5.4764377,4.00660268 L5.5337604,4 L14.4662396,4 Z" id="Shape" fill="#000000"></path>
    </g>
</svg>