<?xml version="1.0" encoding="UTF-8"?>
<svg width="20px" height="20px" viewBox="0 0 20 20" version="1.1" xmlns="http://www.w3.org/2000/svg" xmlns:xlink="http://www.w3.org/1999/xlink">
    <!-- Generator: Sketch 63.1 (92452) - https://sketch.com -->
    <title>Icon/system/arrow_end_line</title>
    <desc>Created with Sketch.</desc>
    <g id="Icon/system/arrow_end_line" stroke="none" stroke-width="1" fill="none" fill-rule="evenodd">
        <path d="M6.28221733,10.2295145 L10,14.1081942 L13.7177827,10.2295145 C14.0111076,9.92349516 14.4866813,9.92349516 14.7800063,10.2295145 C15.0733312,10.5355339 15.0733312,11.0316893 14.7800063,11.3377087 L10.5311118,15.7704855 C10.2377869,16.0765048 9.76221314,16.0765048 9.46888819,15.7704855 L5.21999371,11.3377087 C4.92666876,11.0316893 4.92666876,10.5355339 5.21999371,10.2295145 C5.51331867,9.92349516 5.98889238,9.92349516 6.28221733,10.2295145 Z M6.28221733,5.22951453 L10,9.10819419 L13.7177827,5.22951453 C14.0111076,4.92349516 14.4866813,4.92349516 14.7800063,5.22951453 C15.0733312,5.53553391 15.0733312,6.03168934 14.7800063,6.33770872 L10.5311118,10.7704855 C10.2377869,11.0765048 9.76221314,11.0765048 9.46888819,10.7704855 L5.21999371,6.33770872 C4.92666876,6.03168934 4.92666876,5.53553391 5.21999371,5.22951453 C5.51331867,4.92349516 5.98889238,4.92349516 6.28221733,5.22951453 Z" id="Shape" fill="#000000"></path>
    </g>
</svg>