<?xml version="1.0" encoding="UTF-8"?>
<svg width="20px" height="20px" viewBox="0 0 20 20" version="1.1" xmlns="http://www.w3.org/2000/svg" xmlns:xlink="http://www.w3.org/1999/xlink">
    <!-- Generator: Sketch 63.1 (92452) - https://sketch.com -->
    <title>Icon/system/arrow_start_line</title>
    <desc>Created with Sketch.</desc>
    <g id="Icon/system/arrow_start_line" stroke="none" stroke-width="1" fill="none" fill-rule="evenodd">
        <path d="M9.46888819,10.2295145 C9.73554724,9.9513151 10.1528251,9.92602424 10.4468694,10.153642 L10.5311118,10.2295145 L14.7800063,14.6622913 C15.0733312,14.9683107 15.0733312,15.4644661 14.7800063,15.7704855 C14.5133472,16.0486849 14.0960694,16.0739758 13.8020251,15.846358 L13.7177827,15.7704855 L10,11.8918058 L6.28221733,15.7704855 C5.98889238,16.0765048 5.51331867,16.0765048 5.21999371,15.7704855 C4.95333467,15.492286 4.92909293,15.0569494 5.14726852,14.7501795 L5.21999371,14.6622913 L9.46888819,10.2295145 Z M9.46888819,5.22951453 C9.73554724,4.9513151 10.1528251,4.92602424 10.4468694,5.15364196 L10.5311118,5.22951453 L14.7800063,9.66229128 C15.0733312,9.96831066 15.0733312,10.4644661 14.7800063,10.7704855 C14.5133472,11.0486849 14.0960694,11.0739758 13.8020251,10.846358 L13.7177827,10.7704855 L10,6.89180581 L6.28221733,10.7704855 C5.98889238,11.0765048 5.51331867,11.0765048 5.21999371,10.7704855 C4.95333467,10.492286 4.92909293,10.0569494 5.14726852,9.75017952 L5.21999371,9.66229128 L9.46888819,5.22951453 Z" id="Shape" fill="#000000"></path>
    </g>
</svg>