<?xml version="1.0" encoding="UTF-8"?>
<svg width="20px" height="20px" viewBox="0 0 20 20" version="1.1" xmlns="http://www.w3.org/2000/svg" xmlns:xlink="http://www.w3.org/1999/xlink">
    <!-- Generator: Sketch 63.1 (92452) - https://sketch.com -->
    <title>Icon/system/attach2</title>
    <desc>Created with Sketch.</desc>
    <g id="Icon/system/attach2" stroke="none" stroke-width="1" fill="none" fill-rule="evenodd">
        <path d="M16.2531062,9.4970085 L9.68131059,16.1137765 C8.44870863,17.3548135 6.36532803,17.2775531 5.03811517,15.9412578 C3.71044964,14.6045067 3.63371435,12.506869 4.86631631,11.2658321 L12.5598106,3.51968926 C13.2837555,2.79079022 14.5101025,2.83947794 15.2927597,3.6274911 C16.075417,4.41550426 16.1233211,5.64978765 15.3993762,6.37868669 L8.93712984,12.8851558 C8.72184198,13.1019169 8.35343399,13.0827134 8.11533237,12.8429824 C7.87677808,12.6027956 7.85815776,12.2323223 8.07344562,12.0155612 L13.4137633,6.63869838 C13.818021,6.23167424 13.8231955,5.57696759 13.4253208,5.17637015 C13.0274461,4.77577271 12.3771893,4.78098258 11.9729316,5.18800672 L6.63261392,10.5648695 C5.6599822,11.5441572 5.7080297,13.1866593 6.74101052,14.2267091 C7.77353867,15.2663031 9.40487715,15.3146794 10.3775089,14.3353917 L16.8397553,7.82892259 C18.3214954,6.33704257 18.2441654,3.83164057 16.6670816,2.24376443 C15.0899978,0.655888293 12.6016244,0.578029109 11.1198843,2.06990913 L3.42638994,9.81605192 C1.43554145,11.8205243 1.5417026,15.1892806 3.66334199,17.3254389 C5.78452871,19.4611414 9.13084112,19.5684848 11.1216896,17.5640124 L17.6934852,10.9472444 C18.0976159,10.5403481 18.1027888,9.88584718 17.7050391,9.4853756 C17.3072894,9.08490401 16.6572369,9.09011224 16.2531062,9.4970085 Z" id="Fill-1" fill="#000000"></path>
    </g>
</svg>