<?xml version="1.0" encoding="UTF-8"?>
<svg width="20px" height="20px" viewBox="0 0 20 20" version="1.1" xmlns="http://www.w3.org/2000/svg" xmlns:xlink="http://www.w3.org/1999/xlink">
    <!-- Generator: Sketch 63.1 (92452) - https://sketch.com -->
    <title>Icon/system/attatch1</title>
    <desc>Created with Sketch.</desc>
    <g id="Icon/system/attatch1" stroke="none" stroke-width="1" fill="none" fill-rule="evenodd">
        <rect id="Rectangle" opacity="0.242838542" x="0" y="0" width="20" height="20"></rect>
        <path d="M9.36893204,12.6387868 C9.36893204,12.9559016 9.6412972,13.234375 10,13.234375 C10.3228325,13.234375 10.5757316,13.0088116 10.623083,12.7325222 L10.631068,12.6387868 L10.631068,5.921875 C10.631068,5.45588474 10.978808,5.078125 11.407767,5.078125 C11.8009794,5.078125 12.1259453,5.39554812 12.1773757,5.80738312 L12.184466,5.921875 L12.184466,12.6387868 C12.184466,13.911521 11.1962737,14.921875 10,14.921875 C8.85573822,14.921875 7.9018571,13.9974679 7.82107398,12.8032461 L7.81553398,12.6387868 L7.81553398,4.90234375 C7.81553398,2.74713881 9.42383148,1 11.407767,1 C13.3255713,1 14.8923628,2.63260415 14.9946847,4.68823307 L15,4.90234375 L15,13.3688859 C15,16.4710201 12.7689929,19 10,19 C7.30584476,19 5.12098796,16.6058744 5.00485556,13.6191157 L5,13.3688859 L5,5.921875 C5,5.45588474 5.34774,5.078125 5.77669903,5.078125 C6.16991147,5.078125 6.49487737,5.39554812 6.54630771,5.80738312 L6.55339806,5.921875 L6.55339806,13.3688859 C6.55339806,15.5547281 8.10406345,17.3125 10,17.3125 C11.8327387,17.3125 13.3428406,15.6699598 13.4414777,13.5859939 L13.4466019,13.3688859 L13.4466019,4.90234375 C13.4466019,3.67911932 12.5337844,2.6875 11.407767,2.6875 C10.3329322,2.6875 9.45235594,3.59102091 9.37452429,4.73704736 L9.36893204,4.90234375 L9.36893204,12.6387868 Z" id="Path" fill="#000000"></path>
    </g>
</svg>