<?xml version="1.0" encoding="UTF-8"?>
<svg width="20px" height="20px" viewBox="0 0 20 20" version="1.1" xmlns="http://www.w3.org/2000/svg" xmlns:xlink="http://www.w3.org/1999/xlink">
    <!-- Generator: Sketch 63.1 (92452) - https://sketch.com -->
    <title>Icon/system/call</title>
    <desc>Created with Sketch.</desc>
    <g id="Icon/system/call" stroke="none" stroke-width="1" fill="none" fill-rule="evenodd">
        <path d="M5.34015336,1.5 C6.25596267,1.5 7.05476337,2.12203381 7.27919335,3.00995691 L7.60625057,4.27750979 L7.6619242,4.47330859 C7.71761655,4.66499337 7.79648241,4.92771052 7.897992,5.25946919 C8.09916593,5.9169558 7.94767307,6.62735476 7.50591175,7.14405816 L7.38946027,7.26905597 L5.27961024,9.34855206 C5.24935305,9.37837395 5.21767689,9.40587471 5.18480265,9.43105592 L5.097,9.489 L5.28939018,9.77499783 C5.7864772,10.4918007 6.36735107,11.1747664 7.03259426,11.8247231 L7.32286565,12.1012574 C8.26814483,12.9795952 9.27299004,13.7421084 10.3383486,14.3892795 L10.368,14.406 L12.9583132,12.4525174 C13.3283652,12.1732816 13.7823619,12.032356 14.2421794,12.0505495 L14.4147313,12.0648714 L15.5206807,12.199437 L15.9808092,12.2527004 C16.1834486,12.27821 16.4452765,12.3127234 16.7682867,12.3564489 C17.7079295,12.4836474 18.4214279,13.2503368 18.4939196,14.1817067 L18.4999951,14.3383784 L18.4999951,16.2416247 C18.4999951,16.4122417 18.4818015,16.5823723 18.4457229,16.749131 C18.1654335,18.0446556 16.8879789,18.8676629 15.5924774,18.5873529 C11.9222171,17.7932844 8.70617999,16.116725 5.96148205,13.5663973 C3.15022739,10.9542261 1.53855054,7.80352643 1.15298477,4.15202016 C1.14414514,4.06830427 1.13971614,3.98418128 1.13971614,3.9 C1.13971614,2.62971612 2.12658771,1.58993029 3.37542722,1.50553096 L3.53974539,1.5 L5.34015336,1.5 Z M14.1631334,14.0489829 L12.329,15.432 L12.4070411,15.4676766 C13.40574,15.9079609 14.4512227,16.2601672 15.5441239,16.5246188 L16.0154151,16.6325834 C16.2313285,16.679301 16.4442339,16.5421354 16.4909495,16.3262117 L16.4977273,16.2841593 L16.4999951,16.2416247 L16.4999951,14.338366 L15.4023968,14.1981548 L14.3797629,14.0763475 C14.3105213,14.067644 14.2383156,14.0585229 14.1631334,14.0489829 Z M3.53970756,3.5 C3.34641523,3.5 3.18514105,3.63710244 3.14784269,3.81938251 L3.13971614,3.9 L3.14192771,3.94200592 C3.27558142,5.20777531 3.57734189,6.40038519 4.04890726,7.52224976 L4.119,7.683 L5.98549523,5.84466762 L5.70571851,4.90737548 L5.53066298,4.24827978 L5.34016335,3.5 L3.53970756,3.5 Z" id="Line-12" fill="#000000"></path>
    </g>
</svg>