<?xml version="1.0" encoding="UTF-8"?>
<svg width="20px" height="20px" viewBox="0 0 20 20" version="1.1" xmlns="http://www.w3.org/2000/svg" xmlns:xlink="http://www.w3.org/1999/xlink">
    <!-- Generator: Sketch 63.1 (92452) - https://sketch.com -->
    <title>Icon/system/camera</title>
    <desc>Created with Sketch.</desc>
    <g id="Icon/system/camera" stroke="none" stroke-width="1" fill="none" fill-rule="evenodd">
        <path d="M17.2,2.88888889 L14.347,2.88888889 L12.9989033,1.34280215 C12.8089941,1.1250017 12.5341532,1 12.2451852,1 L7.7548148,1 C7.46584675,1 7.19100587,1.1250017 7.00109669,1.34280215 L5.653,2.88888889 L5.653,2.88888889 L2.8,2.88888889 C1.81,2.88888889 1,3.73888889 1,4.77777778 L1,16.1111111 C1,17.15 1.81,18 2.8,18 L17.2,18 C18.19,18 19,17.15 19,16.1111111 L19,4.77777778 C19,3.73888889 18.19,2.88888889 17.2,2.88888889 Z M16,16 L4,16 C3.44771525,16 3,15.5522847 3,15 L3,5.85714286 C3,5.30485811 3.44771525,4.85714286 4,4.85714286 L6.54375,4.85714286 L6.54375,4.85714286 L7.84581394,3.34699844 C8.03577663,3.12667816 8.31226357,3 8.6031705,3 L11.3968295,3 C11.6877364,3 11.9642234,3.12667816 12.1541861,3.34699844 L13.45625,4.85714286 L13.45625,4.85714286 L16,4.85714286 C16.5522847,4.85714286 17,5.30485811 17,5.85714286 L17,15 C17,15.5522847 16.5522847,16 16,16 Z M10,6 C7.792,6 6,7.792 6,10 C6,12.208 7.792,14 10,14 C12.208,14 14,12.208 14,10 C14,7.792 12.208,6 10,6 Z M10,12 C8.9,12 8,11.1 8,10 C8,8.9 8.9,8 10,8 C11.1,8 12,8.9 12,10 C12,11.1 11.1,12 10,12 Z" id="Shape" fill="#000000" fill-rule="nonzero"></path>
    </g>
</svg>