<?xml version="1.0" encoding="UTF-8"?>
<svg width="20px" height="20px" viewBox="0 0 20 20" version="1.1" xmlns="http://www.w3.org/2000/svg" xmlns:xlink="http://www.w3.org/1999/xlink">
    <!-- Generator: Sketch 63.1 (92452) - https://sketch.com -->
    <title>Icon/system/check</title>
    <desc>Created with Sketch.</desc>
    <g id="Icon/system/check" stroke="none" stroke-width="1" fill="none" fill-rule="evenodd">
        <path d="M18.6466956,4.26637835 L18.7283251,4.34775142 C19.1194633,4.7376608 19.1204595,5.370825 18.7305501,5.76196323 C18.7298096,5.76270607 18.7290679,5.76344774 18.7283251,5.76418824 L8.96454174,15.5001626 C8.9290958,15.5530236 8.88806207,15.6032538 8.84143924,15.6500236 L8.83921422,15.6522486 L8.7575847,15.7336217 C8.36731647,16.1226638 7.73586613,16.1226638 7.3455979,15.7336217 L1.27167491,9.67878116 C0.880536683,9.28887178 0.879540509,8.65570758 1.2694499,8.26456935 L1.35330444,8.18097127 C1.74357266,7.79192915 2.37502301,7.79192915 2.76529123,8.18097127 L8.036,13.435 L17.2347088,4.26637835 C17.624977,3.87733623 18.2564273,3.87733623 18.6466956,4.26637835 Z" id="Combined-Shape" fill="#000000"></path>
    </g>
</svg>