<?xml version="1.0" encoding="UTF-8"?>
<svg width="20px" height="20px" viewBox="0 0 20 20" version="1.1" xmlns="http://www.w3.org/2000/svg" xmlns:xlink="http://www.w3.org/1999/xlink">
    <!-- Generator: Sketch 63.1 (92452) - https://sketch.com -->
    <title>Icon/system/color</title>
    <desc>Created with Sketch.</desc>
    <g id="Icon/system/color" stroke="none" stroke-width="1" fill="none" fill-rule="evenodd">
        <g id="TeeCalendar_Icon/color" transform="translate(1.000000, 1.000000)" fill="#000000">
            <path d="M17,12 L17.3471074,12.6257408 C18.4490358,14.6544785 19,16.1125649 19,17 C19,18.464268 18,19.0000411 17,19.0000411 C16,19.0000411 15,18.464268 15,17 C15,16.0238213 15.6666667,14.3571547 17,12 Z M7.32624827,0.821555893 L8.01625165,1.50987381 L9,0.529870527 C9.62805517,-0.0960768196 10.6463338,-0.0960768196 11.274389,0.529870527 L17.5289586,6.76344915 C18.1570138,7.38939649 18.1570138,8.40425766 17.5289586,9.03020501 L9,17.5305395 C8.37194483,18.1564868 7.3536662,18.1564868 6.72561103,17.5305395 L0.471041378,11.2969609 C-0.157013793,10.6710135 -0.157013793,9.65615236 0.471041378,9.03020501 L4.03667201,5.47609753 L3.34606758,4.78837865 C2.24697103,3.69297079 2.24697103,1.91696375 3.34606758,0.821555893 C4.44516413,-0.273851964 6.22715172,-0.273851964 7.32624827,0.821555893 Z M2.05736167,10.1155134 L1.65567882,10.1155134 L1.60823586,10.1635829 L7.86280552,16.3971616 L11.3365825,12.9345248 C9.20243899,11.7342981 7.02787922,10.9480603 4.91747498,10.4979334 C4.24009976,10.3534564 3.61218187,10.2534238 3.04416149,10.1901575 L2.76519109,10.1615527 L2.46637864,10.1365381 C2.28757662,10.1234928 2.15013733,10.1173011 2.05736167,10.1155134 Z M10.1371945,1.66324846 L9.229,2.567 L11.1793786,4.5181262 C11.4885437,4.82729127 11.4885437,5.32854687 11.1793786,5.63771194 C10.8702135,5.946877 10.3689579,5.946877 10.0597929,5.63771194 L8.188,3.766 L7.06498014,4.72436631 L3.18350289,8.59281688 L3.22058697,8.59699166 C3.84111448,8.66602963 4.52236974,8.77452962 5.25402911,8.93058484 C7.53229432,9.41651476 9.8756144,10.2660513 12.173395,11.5647802 L12.5136832,11.7616285 L16.3917641,7.89682708 L10.1371945,1.66324846 Z M4.56930594,1.87696114 L4.48326206,1.95493382 C4.039929,2.39677901 4.01385058,3.09700293 4.40502681,3.56924561 L4.48326206,3.65500072 L5.11084983,4.28113152 L5.97781269,3.54147154 L6.87842478,2.64308059 L6.18905378,1.95493382 C5.74572072,1.51308864 5.04313886,1.48709774 4.56930594,1.87696114 Z" id="Shape"></path>
        </g>
    </g>
</svg>