<?xml version="1.0" encoding="UTF-8"?>
<svg width="20px" height="20px" viewBox="0 0 20 20" version="1.1" xmlns="http://www.w3.org/2000/svg" xmlns:xlink="http://www.w3.org/1999/xlink">
    <!-- Generator: Sketch 63.1 (92452) - https://sketch.com -->
    <title>Icon/system/comment</title>
    <desc>Created with Sketch.</desc>
    <g id="Icon/system/comment" stroke="none" stroke-width="1" fill="none" fill-rule="evenodd">
        <path d="M15.8235294,2 C17.5778457,2 19,3.34314575 19,5 L19,12 C19,13.6568542 17.5778457,15 15.8235294,15 L4.559,15 L1.90445492,18.0083898 C1.82852313,18.0944484 1.72594543,18.1510979 1.61450002,18.1703154 L1.52953106,18.1775846 C1.28407117,18.1775846 1.07992269,18.0007094 1.03758673,17.7674602 L1.02953106,17.6775846 L1.029,15 L1,15 L1,5 C1,3.34314575 2.42215432,2 4.17647059,2 L15.8235294,2 Z M15.9230769,4 L4.07692308,4 C3.52463833,4 3.06945383,4.38604019 3.00724525,4.88337887 L3,5 L3,13 L15.9230769,13 C16.4753617,13 16.9305462,12.6139598 16.9927548,12.1166211 L17,12 L17,5 C17,4.48716416 16.5842644,4.06449284 16.0486689,4.00672773 L15.9230769,4 Z M6,7.3 C6.55228475,7.3 7,7.74771525 7,8.3 C7,8.85228475 6.55228475,9.3 6,9.3 C5.44771525,9.3 5,8.85228475 5,8.3 C5,7.74771525 5.44771525,7.3 6,7.3 Z M10,7.3 C10.5522847,7.3 11,7.74771525 11,8.3 C11,8.85228475 10.5522847,9.3 10,9.3 C9.44771525,9.3 9,8.85228475 9,8.3 C9,7.74771525 9.44771525,7.3 10,7.3 Z M14,7.3 C14.5522847,7.3 15,7.74771525 15,8.3 C15,8.85228475 14.5522847,9.3 14,9.3 C13.4477153,9.3 13,8.85228475 13,8.3 C13,7.74771525 13.4477153,7.3 14,7.3 Z" id="Shape" fill="#000000"></path>
    </g>
</svg>