<?xml version="1.0" encoding="UTF-8"?>
<svg width="20px" height="20px" viewBox="0 0 20 20" version="1.1" xmlns="http://www.w3.org/2000/svg" xmlns:xlink="http://www.w3.org/1999/xlink">
    <!-- Generator: Sketch 63.1 (92452) - https://sketch.com -->
    <title>Icon/system/copy</title>
    <desc>Created with Sketch.</desc>
    <g id="Icon/system/copy" stroke="none" stroke-width="1" fill="none" fill-rule="evenodd">
        <path d="M15.8333333,5 C17.0299503,5 18,5.97004971 18,7.16666667 L18,15.8333333 C18,17.0299503 17.0299503,18 15.8333333,18 L7.16666667,18 C5.97004971,18 5,17.0299503 5,15.8333333 L5,7.16666667 C5,5.97004971 5.97004971,5 7.16666667,5 L15.8333333,5 Z M16,7 L7,7 L7,16 L16,16 L16,7 Z M13,2 C14.1045695,2 15,2.8954305 15,4 L4,4 L4,15 C2.8954305,15 2,14.1045695 2,13 L2,4 C2,2.8954305 2.8954305,2 4,2 L13,2 Z" id="Combined-Shape" fill="#000000"></path>
    </g>
</svg>