<?xml version="1.0" encoding="UTF-8"?>
<svg width="20px" height="20px" viewBox="0 0 20 20" version="1.1" xmlns="http://www.w3.org/2000/svg" xmlns:xlink="http://www.w3.org/1999/xlink">
    <!-- Generator: Sketch 63.1 (92452) - https://sketch.com -->
    <title>Icon/system/division_horizontal</title>
    <desc>Created with Sketch.</desc>
    <g id="Icon/system/division_horizontal" stroke="none" stroke-width="1" fill="none" fill-rule="evenodd">
        <g id="division_horizontal" transform="translate(1.000000, 1.000000)" fill="#000000" fill-rule="nonzero">
            <path d="M16.7142857,9.6 C17.4243661,9.6 18,10.0477153 18,10.6 L18,17 C18,17.5522847 17.4243661,18 16.7142857,18 L1.28571429,18 C0.57563389,18 -1.77635684e-15,17.5522847 -1.77635684e-15,17 L-1.77635684e-15,10.6 C-1.77635684e-15,10.0477153 0.57563389,9.6 1.28571429,9.6 L16.7142857,9.6 Z M16,11.6 L2,11.6 L2,16 L16,16 L16,11.6 Z M16.7142857,0 C17.4243661,0 18,0.44771525 18,1 L18,7.4 C18,7.95228475 17.4243661,8.4 16.7142857,8.4 L1.28571429,8.4 C0.57563389,8.4 -1.77635684e-15,7.95228475 -1.77635684e-15,7.4 L-1.77635684e-15,1 C-1.77635684e-15,0.44771525 0.57563389,0 1.28571429,0 L16.7142857,0 Z M16,2 L2,2 L2,6.399 L16,6.399 L16,2 Z" id="Combined-Shape" transform="translate(9.000000, 9.000000) rotate(90.000000) translate(-9.000000, -9.000000) "></path>
        </g>
    </g>
</svg>