<?xml version="1.0" encoding="UTF-8"?>
<svg width="20px" height="20px" viewBox="0 0 20 20" version="1.1" xmlns="http://www.w3.org/2000/svg" xmlns:xlink="http://www.w3.org/1999/xlink">
    <!-- Generator: Sketch 63.1 (92452) - https://sketch.com -->
    <title>Icon/system/division_vertical</title>
    <desc>Created with Sketch.</desc>
    <g id="Icon/system/division_vertical" stroke="none" stroke-width="1" fill="none" fill-rule="evenodd">
        <path d="M16.8571429,10.6 C17.4883254,10.6 18,11.0477153 18,11.6 L18,18 C18,18.5522847 17.4883254,19 16.8571429,19 L3.14285714,19 C2.51167457,19 2,18.5522847 2,18 L2,11.6 C2,11.0477153 2.51167457,10.6 3.14285714,10.6 L16.8571429,10.6 Z M15.7142857,12.6 L4.28571429,12.6 L4.28571429,17 L15.7142857,17 L15.7142857,12.6 Z M16.8571429,1 C17.4883254,1 18,1.44771525 18,2 L18,8.4 C18,8.95228475 17.4883254,9.4 16.8571429,9.4 L3.14285714,9.4 C2.51167457,9.4 2,8.95228475 2,8.4 L2,2 C2,1.44771525 2.51167457,1 3.14285714,1 L16.8571429,1 Z M15.7142857,3 L4.28571429,3 L4.28571429,7.399 L15.7142857,7.399 L15.7142857,3 Z" id="Combined-Shape" fill="#000000"></path>
    </g>
</svg>