<?xml version="1.0" encoding="UTF-8"?>
<svg width="20px" height="20px" viewBox="0 0 20 20" version="1.1" xmlns="http://www.w3.org/2000/svg" xmlns:xlink="http://www.w3.org/1999/xlink">
    <!-- Generator: Sketch 63.1 (92452) - https://sketch.com -->
    <title>Icon/system/edit</title>
    <desc>Created with Sketch.</desc>
    <g id="Icon/system/edit" stroke="none" stroke-width="1" fill="none" fill-rule="evenodd">
        <path d="M11.9231157,4.49410586 L15.4791981,8.02352941 L5.84929747,17.7052083 C5.66160929,17.8939057 5.40644304,18 5.14029734,18 L5.14029734,18 L2,18 L2,14.8832317 C2,14.6189444 2.10462194,14.3654036 2.29099945,14.1780238 L2.29099945,14.1780238 L11.9231157,4.49410586 Z M12.0109221,7.02963341 L3.89657727,15.2517647 L3.89657727,16.1176471 L4.76900282,16.1176471 L12.8833476,7.89551577 L12.0109221,7.02963341 Z M14.8303452,2 C15.0769003,2 15.3139724,2.08470588 15.5036302,2.27294118 L15.5036302,2.27294118 L17.7226256,4.47529412 C18.0924581,4.84235294 18.0924581,5.43529412 17.7226256,5.80235294 L17.7226256,5.80235294 L15.9872574,7.52470588 L12.431175,3.99529412 L14.1665432,2.27294118 C14.346718,2.09411765 14.5932731,2 14.8303452,2 Z" id="Combined-Shape" fill="#000000"></path>
    </g>
</svg>