<?xml version="1.0" encoding="UTF-8"?>
<svg width="20px" height="20px" viewBox="0 0 20 20" version="1.1" xmlns="http://www.w3.org/2000/svg" xmlns:xlink="http://www.w3.org/1999/xlink">
    <!-- Generator: Sketch 63.1 (92452) - https://sketch.com -->
    <title>Icon/system/emoticon</title>
    <desc>Created with Sketch.</desc>
    <g id="Icon/system/emoticon" stroke="none" stroke-width="1" fill="none" fill-rule="evenodd">
        <rect id="Rectangle" opacity="0.242838542" x="0" y="0" width="20" height="20"></rect>
        <path d="M10,1 C14.9705627,1 19,5.02943725 19,10 C19,14.9705627 14.9705627,19 10,19 C5.02943725,19 1,14.9705627 1,10 C1,5.02943725 5.02943725,1 10,1 Z M10,2.6875 C5.96141777,2.6875 2.6875,5.96141777 2.6875,10 C2.6875,14.0385822 5.96141777,17.3125 10,17.3125 C14.0385822,17.3125 17.3125,14.0385822 17.3125,10 C17.3125,5.96141777 14.0385822,2.6875 10,2.6875 Z M14.8296602,10.3454911 C15.1084533,10.7305297 15.0376107,11.28031 14.6714289,11.5734598 C13.4786372,12.5283587 11.9138796,12.9968365 10.0013038,13.0000157 C8.08742307,13.003134 6.52119446,12.53583 5.32746446,11.5768674 C4.96174838,11.2830757 4.8917783,10.7331719 5.17118193,10.3486229 C5.45058555,9.96407393 5.9735584,9.89050069 6.33927449,10.1842925 C7.2160321,10.8886207 8.42755683,11.2500943 9.99869518,11.2475086 C11.5711385,11.2449207 12.7841342,10.881758 13.6618301,10.1791116 C14.0280118,9.88596183 14.5508672,9.9604525 14.8296602,10.3454911 Z M8,7 C8.55228475,7 9,7.44771525 9,8 C9,8.55228475 8.55228475,9 8,9 C7.44771525,9 7,8.55228475 7,8 C7,7.44771525 7.44771525,7 8,7 Z M12,7 C12.5522847,7 13,7.44771525 13,8 C13,8.55228475 12.5522847,9 12,9 C11.4477153,9 11,8.55228475 11,8 C11,7.44771525 11.4477153,7 12,7 Z" id="Shape" fill="#000000" fill-rule="nonzero"></path>
    </g>
</svg>