<?xml version="1.0" encoding="UTF-8"?>
<svg width="20px" height="20px" viewBox="0 0 20 20" version="1.1" xmlns="http://www.w3.org/2000/svg" xmlns:xlink="http://www.w3.org/1999/xlink">
    <!-- Generator: Sketch 63.1 (92452) - https://sketch.com -->
    <title>Icon/system/event_edit</title>
    <desc>Created with Sketch.</desc>
    <g id="Icon/system/event_edit" stroke="none" stroke-width="1" fill="none" fill-rule="evenodd">
        <path d="M6,9 C6.55228475,9 7,9.44771525 7,10 C7,10.5522847 6.55228475,11 6,11 C5.44771525,11 5,10.5522847 5,10 C5,9.44771525 5.44771525,9 6,9 Z M13,0 C13.5522847,-1.01453063e-16 14,0.44771525 14,1 L14,2 L18,2 C18.5522847,2 19,2.44771525 19,3 L19,8.243 L19.7746333,9.01117647 C20.0478051,9.28229947 20.0726389,9.70509966 19.8491347,10.0038003 L19.7746333,10.0894118 L18.3646466,11.4888235 L15.4753297,8.62117647 L16.8853163,7.22176471 C16.9205641,7.18678127 16.9589387,7.15578777 16.9995795,7.12889094 L17,7 L3,7 L3,16 L8.126,15.999 L10.1227095,13.9925462 C10.0824954,13.9974667 10.0415435,14 10,14 C9.44771525,14 9,13.5522847 9,13 C9,12.4477153 9.44771525,12 10,12 C10.5522847,12 11,12.4477153 11,13 L10.9932723,13.1166211 L10.9932723,13.1166211 L13.343743,10.7545571 C13.1331272,10.571224 13,10.3011588 13,10 C13,9.44771525 13.4477153,9 14,9 C14.2992344,9 14.5677714,9.13143132 14.7510322,9.33971515 L15.0625315,9.02646101 L17.9518484,11.8941176 L10.182532,19.7052083 C10.0261252,19.8624561 9.82285862,19.9623407 9.60542822,19.9912676 L9.47353189,20 L7,20 L7.00047302,18 L2,18 C1.44771525,18 1,17.5522847 1,17 L1,3 C1,2.44771525 1.44771525,2 2,2 L6,2 L6,1 C6,0.44771525 6.44771525,1.01453063e-16 7,0 C7.55228475,-1.01453063e-16 8,0.44771525 8,1 L8,2 L12,2 L12,1 C12,0.44771525 12.4477153,1.01453063e-16 13,0 Z M15.1338742,11.0865771 L10.831,15.445 L14.636,12.91 L10.828,15.448 L8.54096903,17.7670588 L8.54096903,18.4705882 L9.24981479,18.4705882 L15.8427199,11.7901065 L15.1338742,11.0865771 Z M6,12 C6.55228475,12 7,12.4477153 7,13 C7,13.5522847 6.55228475,14 6,14 C5.44771525,14 5,13.5522847 5,13 C5,12.4477153 5.44771525,12 6,12 Z M10,9 C10.5522847,9 11,9.44771525 11,10 C11,10.5522847 10.5522847,11 10,11 C9.44771525,11 9,10.5522847 9,10 C9,9.44771525 9.44771525,9 10,9 Z M17,4 L3,4 L3,5 L17,5 L17,4 Z" id="Combined-Shape" fill="#000000"></path>
    </g>
</svg>