<?xml version="1.0" encoding="UTF-8"?>
<svg width="20px" height="20px" viewBox="0 0 20 20" version="1.1" xmlns="http://www.w3.org/2000/svg" xmlns:xlink="http://www.w3.org/1999/xlink">
    <!-- Generator: Sketch 63.1 (92452) - https://sketch.com -->
    <title>Icon/system/filter</title>
    <desc>Created with Sketch.</desc>
    <g id="Icon/system/filter" stroke="none" stroke-width="1" fill="none" fill-rule="evenodd">
        <path d="M13,13.5 C13.5522847,13.5 14,13.9477153 14,14.5 C14,15.0522847 13.5522847,15.5 13,15.5 L7,15.5 C6.44771525,15.5 6,15.0522847 6,14.5 C6,13.9477153 6.44771525,13.5 7,13.5 L13,13.5 Z M16,9.5 C16.5522847,9.5 17,9.94771525 17,10.5 C17,11.0522847 16.5522847,11.5 16,11.5 L4,11.5 C3.44771525,11.5 3,11.0522847 3,10.5 C3,9.94771525 3.44771525,9.5 4,9.5 L16,9.5 Z M18,4.5 C18.5522847,4.5 19,4.94771525 19,5.5 C19,6.05228475 18.5522847,6.5 18,6.5 L2,6.5 C1.44771525,6.5 1,6.05228475 1,5.5 C1,4.94771525 1.44771525,4.5 2,4.5 L18,4.5 Z" id="Combined-Shape" fill="#000000"></path>
    </g>
</svg>