<?xml version="1.0" encoding="UTF-8"?>
<svg width="20px" height="20px" viewBox="0 0 20 20" version="1.1" xmlns="http://www.w3.org/2000/svg" xmlns:xlink="http://www.w3.org/1999/xlink">
    <!-- Generator: Sketch 63.1 (92452) - https://sketch.com -->
    <title>Icon/system/filter_up</title>
    <desc>Created with Sketch.</desc>
    <g id="Icon/system/filter_up" stroke="none" stroke-width="1" fill="none" fill-rule="evenodd">
        <path d="M8,13.5 C8.55228475,13.5 9,13.9477153 9,14.5 C9,15.0522847 8.55228475,15.5 8,15.5 L2,15.5 C1.44771525,15.5 1,15.0522847 1,14.5 C1,13.9477153 1.44771525,13.5 2,13.5 L8,13.5 Z M14,9 C14.5522847,9 15,9.44771525 15,10 C15,10.5522847 14.5522847,11 14,11 L2,11 C1.44771525,11 1,10.5522847 1,10 C1,9.44771525 1.44771525,9 2,9 L14,9 Z M18,4.5 C18.5522847,4.5 19,4.94771525 19,5.5 C19,6.05228475 18.5522847,6.5 18,6.5 L2,6.5 C1.44771525,6.5 1,6.05228475 1,5.5 C1,4.94771525 1.44771525,4.5 2,4.5 L18,4.5 Z" id="Combined-Shape" fill="#000000" transform="translate(10.000000, 10.000000) scale(1, -1) translate(-10.000000, -10.000000) "></path>
    </g>
</svg>