<?xml version="1.0" encoding="UTF-8"?>
<svg width="20px" height="20px" viewBox="0 0 20 20" version="1.1" xmlns="http://www.w3.org/2000/svg" xmlns:xlink="http://www.w3.org/1999/xlink">
    <!-- Generator: Sketch 63.1 (92452) - https://sketch.com -->
    <title>Icon/system/folder</title>
    <desc>Created with Sketch.</desc>
    <g id="Icon/system/folder" stroke="none" stroke-width="1" fill="none" fill-rule="evenodd">
        <path d="M7.42393107,2 L3.51371298,2 C2.11337467,2 1,3.2108488 1,4.67821802 L1,15.321782 C1,16.7891512 2.11337467,18 3.51371298,18 L16.486287,18 C17.8866253,18 19,16.7891512 19,15.321782 L19,7.55200662 C19,6.0846374 17.8866253,4.8737886 16.486287,4.8737886 L10.3260907,4.8737886 C10.0539884,4.8737886 9.80666202,3.77912962 9.69234532,3.52397003 C9.27729004,2.59771459 8.39806681,2 7.42393107,2 Z M3.46645405,4 L7.4051619,4 C7.57068102,4 7.73137533,4.11216928 7.81569388,4.30537799 C8.26893046,5.34411566 8.26893046,6.80730215 10.3284665,6.80730215 L16.5335459,6.80730215 C16.7790206,6.80730215 17,7.05406459 17,7.38565069 L17,15.4216515 C17,15.7532376 16.7790206,16 16.5335459,16 L3.46645405,16 C3.22097938,16 3,15.7532376 3,15.4216515 L3,4.57834854 C3,4.24676244 3.22097938,4 3.46645405,4 Z" id="Path" fill="#000000" fill-rule="nonzero"></path>
    </g>
</svg>