<?xml version="1.0" encoding="UTF-8"?>
<svg width="20px" height="20px" viewBox="0 0 20 20" version="1.1" xmlns="http://www.w3.org/2000/svg" xmlns:xlink="http://www.w3.org/1999/xlink">
    <!-- Generator: Sketch 63.1 (92452) - https://sketch.com -->
    <title>Icon/system/friends</title>
    <desc>Created with Sketch.</desc>
    <g id="Icon/system/friends" stroke="none" stroke-width="1" fill="none" fill-rule="evenodd">
        <g id="friends" transform="translate(0.000000, 1.000000)" fill="#000000">
            <path d="M7.04118225,0 C7.45225861,0 7.84901311,0.09782126 8.20605554,0.28231013 L8.38114986,0.38172522 L8.54362829,0.49171281 L8.5381307,0.53824599 L8.57387486,0.50919051 C8.84898887,0.30002638 9.16394961,0.15000328 9.50179004,0.06897244 L9.70710412,0.02871181 L9.91956406,0.00554101 L10.0869024,0 C11.3613594,0 12.4041632,0.99182551 12.4855433,2.24638149 L12.4906556,2.40451664 L12.4895592,2.4688559 L12.4811328,2.61757631 L12.3050761,4.31558425 L12.5539111,4.49461436 C12.7869243,4.66957843 13.0093653,4.85775742 13.1785238,5.04499836 C13.4605044,5.00288187 13.7497135,4.98172893 14.0436796,4.98172893 C17.2573949,4.98172893 19.878426,7.50798464 19.9958908,10.6718864 L20,10.8936345 L19.9933827,11.1730916 C19.9588563,11.902547 19.7898548,12.6135311 19.4957753,13.2756472 L19.3621108,13.5563307 L19.3088709,13.6327949 L19.366648,13.9800978 C19.4336502,14.3813056 19.3791442,14.7920101 19.2115705,15.1612005 L19.1328552,15.3167346 L19.050456,15.451276 C18.5563794,16.1924736 17.6400624,16.5211943 16.795441,16.2819422 L16.6380353,16.2303886 L16.6391194,16.2115498 L16.5123407,16.272879 C15.7406881,16.6219511 14.9014774,16.8031865 14.0436796,16.8031865 C13.4964085,16.8031865 12.9587742,16.7298679 12.4841176,16.5788828 C11.2052393,17.5187233 9.66021397,18.0338587 8.03752804,18.0338587 C7.0858118,18.0338587 6.15256247,17.8559883 5.27866046,17.5114584 L4.95380896,17.3744694 L4.63840299,17.2236305 L4.49493565,17.1186683 L4.30879185,17.2344889 C3.50507199,17.732632 2.47627004,17.6093533 1.81262107,16.9668713 L1.69261012,16.8403465 L1.58948337,16.7115439 L1.49667593,16.5744215 C1.30560345,16.2661391 1.2007871,15.9137565 1.19112324,15.5525039 L1.19426188,15.3713015 L1.21315735,15.1934105 L1.37288913,14.3844066 C0.931102819,14.1907378 0.556719366,13.8414247 0.33909844,13.409656 C-0.0518579236,12.6339827 -0.103488498,12.1914547 0.177638709,11.5730296 C0.265747532,11.3792074 0.373592004,11.2072965 0.520353677,11.1088291 C0.545855231,11.0817423 0.564435128,11.060597 0.583377909,11.0400166 L0.533419499,11.0128866 L0.522398883,10.8444054 L0.515117357,10.511448 C0.515117357,7.91841681 1.84576798,5.53358314 3.99958577,4.16278652 L4.23347871,4.0198324 L4.46956608,3.88707098 L4.58622092,3.85871299 L4.53916431,2.59820022 C4.49353692,1.38889803 5.3161204,0.33766551 6.48377342,0.06637533 L6.64508856,0.03427398 L6.80909653,0.01245862 L6.97609415,0.0009533 L7.04118225,0 Z M7.04212157,1.5941444 L7.00688544,1.59480004 C6.58287825,1.61079798 6.23302482,1.91625786 6.1502496,2.31730661 L6.13444126,2.42890786 L6.13218416,2.53809726 L6.18431195,4.87859671 C3.84988962,5.64617127 2.2173282,7.78744085 2.11443066,10.262715 L2.10853503,10.50547 L2.20457576,10.5351785 C2.42146299,10.6148099 2.60832061,10.7570514 2.74454878,10.9459136 L2.82004535,11.0646975 L2.87063049,11.163105 L2.9093113,11.2564018 L2.93797256,11.3479363 L2.93945489,11.4225385 L3.20007546,11.5831263 C3.36959329,11.6893245 3.46744508,11.7604689 3.58232625,11.8621266 C3.92236985,12.1630293 4.10196219,12.513772 4.10196219,12.9387942 C4.10196219,13.7697776 3.73671032,14.2667044 3.08238285,14.4233453 L2.93777296,14.4517005 L2.78943777,15.4314539 C2.77354761,15.5366858 2.7956081,15.6441387 2.8516743,15.7345977 C2.95197411,15.8964246 3.14078659,15.974164 3.31770841,15.9394932 L3.39251132,15.9176694 L3.46896762,15.8794908 L4.50619965,15.273633 C5.5199887,16.0266395 6.74745815,16.4397055 8.03752804,16.4397055 C11.3116142,16.4397055 13.9657855,13.7855342 13.9657855,10.511448 C13.9657855,8.40795673 12.8608178,6.49885796 11.1026918,5.43595834 L10.8886104,5.31251386 L10.6541387,5.15498076 L10.8931452,2.47804838 L10.8965081,2.40375898 C10.8965081,1.95662608 10.5340353,1.5941444 10.0869024,1.5941444 C9.66902585,1.5941444 9.31166631,1.87819674 9.2090042,2.26855094 L9.18746615,2.37751345 L9.17923179,2.48476311 L9.094,4.354 L9.08930204,4.62559692 L9.082,4.624 L9.08059598,4.67464758 C8.91007624,4.64438184 8.73787304,4.62155374 8.56465421,4.60628482 L8.3041477,4.58906602 L7.98771075,4.53337333 L7.98771075,2.54068175 C7.98771075,2.05526802 7.62231271,1.65519757 7.15156747,1.60052125 L7.04212157,1.5941444 Z M14.4602337,6.5958091 L14.5832541,6.80278853 C14.8486932,7.27190659 15.0590962,7.76599876 15.1908033,8.26332462 L15.2601948,8.56193424 L15.3161518,8.55614573 C15.5116908,8.55614573 15.6701724,8.71489417 15.6701724,8.91067844 C15.6701724,9.0724653 15.5610479,9.2125416 15.4432737,9.1963616 C15.47059,9.3468899 15.4931306,9.4990302 15.5108991,9.6529002 L15.5339732,9.8850173 L15.5548869,10.2346349 L15.5409807,10.2887711 C15.6644534,10.4071669 15.8107086,10.4613095 16.0067933,10.4607724 C16.2518214,10.4601013 16.4221404,10.3755122 16.5663627,10.1833556 C16.748035,9.9413016 17.0915331,9.8923527 17.3335871,10.0740251 C17.575641,10.2556975 17.62459,10.5991956 17.4429176,10.8412495 C17.0920722,11.3087037 16.5981834,11.5551368 16.0097946,11.5567564 C15.8174093,11.5572807 15.6344647,11.531436 15.5192432,11.4433436 C15.5136433,11.4424291 15.5077157,11.4407714 15.5018024,11.4390824 C15.3534621,12.669005 14.8984108,13.836367 14.166068,14.7881406 C14.0664323,14.9306986 13.9616786,15.0699291 13.852296,15.2052642 L13.8165468,15.2028538 C13.8896114,15.2069981 13.9654723,15.2090332 14.0436796,15.2090332 C14.9614682,15.2090332 15.8364382,14.9279699 16.6283681,14.4148375 L16.6726497,14.4472618 L16.7214537,14.4771122 L17.1328472,14.7076636 C17.3488588,14.82872 17.6221063,14.7517435 17.7431627,14.5357319 C17.7805786,14.4689674 17.8000737,14.3941282 17.8003915,14.3184191 L17.7942703,14.2426869 L17.6827083,13.5746561 L17.6316733,13.3485673 C18.1329484,12.6326901 18.4058606,11.7827421 18.4058606,10.8924577 C18.4058606,8.69766654 16.7445545,6.86848284 14.5761499,6.60769634 L14.4602337,6.5958091 Z M1.79074187,11.5576111 C1.52555514,11.5576111 1.32543141,11.6964711 1.17536737,12.0265828 C1.10374833,12.1841307 1.09517628,12.3313047 1.14110955,12.5009362 L1.17514181,12.6056727 L1.21594821,12.705144 L1.31779351,12.9163722 C1.44245504,13.1637057 1.6795707,13.3504715 1.92119912,13.4204064 L2.02471575,13.4430615 L2.11906242,13.4503563 L2.42548605,13.4489901 C2.85743381,13.4368033 3.00598182,13.3294805 3.00598182,12.9387942 C3.00598182,12.8002454 2.90291057,12.6936439 2.6123766,12.5088953 L2.28147343,12.3024951 C2.17125262,12.2298989 2.10553919,12.1769311 2.04447019,12.1118629 C1.98522039,12.0487331 1.94986801,11.9713964 1.92598131,11.8709215 L1.90111128,11.7413326 C1.87567,11.5944132 1.85518452,11.5576111 1.79074187,11.5576111 Z M11.3837221,9.5689216 C11.6484808,9.7661738 11.7032056,10.1407076 11.5059534,10.4054663 C10.8692273,11.2601021 9.98889826,11.7022715 8.91830214,11.7052838 C7.84618571,11.708184 6.96413278,11.2667747 6.32676879,10.4083174 C6.12995557,10.1432322 6.18530092,9.7687896 6.45038609,9.5719764 C6.71547126,9.3751632 7.08991389,9.4305085 7.28672711,9.6955937 C7.69781221,10.2492789 8.22235887,10.5115261 8.91500711,10.5096148 C9.60918787,10.5076993 10.1354568,10.2437786 10.5471774,9.691153 C10.7444296,9.4263943 11.1189634,9.3716694 11.3837221,9.5689216 Z M16.7476968,8.55614573 C16.9432357,8.55614573 17.1017174,8.71489417 17.1017174,8.91067847 C17.1017174,9.1064627 16.9432357,9.2652112 16.7476968,9.2652112 C16.5521578,9.2652112 16.3936762,9.1064627 16.3936762,8.91067847 C16.3936762,8.71489417 16.5521578,8.55614573 16.7476968,8.55614573 Z M9.99212404,7.57222797 C10.3223666,7.57222797 10.5899315,7.84177482 10.5899315,8.17409463 C10.5899315,8.50641444 10.3223666,8.77596129 9.99212404,8.77596129 C9.66188145,8.77596129 9.39431657,8.50641444 9.39431657,8.17409463 C9.39431657,7.84177482 9.66188145,7.57222797 9.99212404,7.57222797 Z M7.88221532,7.57222797 C8.2124579,7.57222797 8.48002279,7.84177482 8.48002279,8.17409463 C8.48002279,8.50641444 8.2124579,8.77596129 7.88221532,8.77596129 C7.55197273,8.77596129 7.28440784,8.50641444 7.28440784,8.17409463 C7.28440784,7.84177482 7.55197273,7.57222797 7.88221532,7.57222797 Z M10.2602687,2.49086446 C10.5090036,2.49086446 10.7106431,2.69250398 10.7106431,2.94123893 L10.7053335,3.01019153 L10.534164,4.11503009 C10.5167304,4.2275583 10.4741424,4.33470574 10.4095699,4.42849765 C10.3562292,4.50597535 10.2751263,4.55849223 10.1846179,4.57639987 L10.1152598,4.58319062 L9.98716174,4.58248314 C9.83634468,4.55679119 9.72159853,4.43909355 9.69544266,4.29364545 L9.68999039,4.21890634 L9.72831787,3.0062677 C9.73739675,2.71902189 9.97287942,2.49086446 10.2602687,2.49086446 Z M7.24045141,2.49086446 C7.49332736,2.49086446 7.70364377,2.67308354 7.74723846,2.91457337 L7.75552889,3.00767024 L7.69131598,3.96356926 C7.68396233,4.07117141 7.66273407,4.17737214 7.6281586,4.27953298 C7.59888976,4.36601422 7.53648475,4.43614162 7.45620071,4.47566168 L7.39287376,4.49934014 L7.24649094,4.53754064 C7.02589825,4.56448259 6.82523178,4.40749765 6.79828983,4.18690497 L6.7243511,3.04101824 C6.70815097,2.78765439 6.87724801,2.5652586 7.11632958,2.50611169 L7.20904048,2.49184225 L7.24045141,2.49086446 Z" id="Combined-Shape"></path>
        </g>
    </g>
</svg>