<?xml version="1.0" encoding="UTF-8"?>
<svg width="20px" height="20px" viewBox="0 0 20 20" version="1.1" xmlns="http://www.w3.org/2000/svg" xmlns:xlink="http://www.w3.org/1999/xlink">
    <!-- Generator: Sketch 63.1 (92452) - https://sketch.com -->
    <title>Icon/system/friend_add</title>
    <desc>Created with Sketch.</desc>
    <g id="Icon/system/friend_add" stroke="none" stroke-width="1" fill="none" fill-rule="evenodd">
        <path d="M12.869499,16.0011702 L11,16 C10.9577582,16 10.9161282,15.9973809 10.8752635,15.9922961 L11,16 C10.9410187,16 10.88323,15.9948937 10.8270519,15.9850991 C10.8024826,15.9808142 10.77827,15.9756449 10.7543991,15.9696172 C10.7369745,15.9652161 10.7197904,15.9603759 10.7028005,15.9550948 C10.6821697,15.9486899 10.661507,15.9415126 10.6411647,15.9336896 C10.6230006,15.9266934 10.6055711,15.9193995 10.5884002,15.9116347 C10.5683874,15.9025948 10.5483651,15.8927225 10.5287345,15.8822141 C10.5139815,15.8743107 10.4997269,15.8662146 10.4856962,15.8577841 C10.4623757,15.8437886 10.439245,15.8285617 10.4168099,15.8124284 C10.407072,15.8054312 10.3971848,15.7980459 10.3874411,15.7904844 C10.2934828,15.717512 10.2131004,15.6284895 10.1502429,15.527433 C10.1415492,15.5134661 10.133034,15.4989879 10.1248788,15.4842824 C10.1144945,15.4655573 10.1046965,15.4464695 10.0955062,15.4270381 C10.092495,15.4206675 10.0896445,15.4144732 10.0868558,15.4082451 C10.0312053,15.2843242 10,15.1458063 10,15 C10,14.4477153 10.4477153,14 11,14 L14,14 L14,11 C14,10.4477153 14.4477153,10 15,10 C15.1183467,10 15.2318918,10.0205584 15.3372588,10.0582986 L15.4090934,10.0885549 L15.4090934,10.0885549 C15.5638296,10.1575293 15.694482,10.2622218 15.7940219,10.3920268 C15.7990789,10.39887 15.8040131,10.405463 15.808867,10.4121186 C15.8265096,10.4361069 15.8431437,10.4612357 15.8586402,10.4871237 C15.8667768,10.5008451 15.8746864,10.5147912 15.8822649,10.5289418 C15.8927225,10.5483651 15.9025948,10.5683874 15.9118035,10.5887737 C15.9195415,10.6059672 15.9268231,10.6233763 15.9336181,10.6410279 C15.9410178,10.6602203 15.9477793,10.6795569 15.9539537,10.6991541 C15.9596734,10.7173223 15.9649298,10.7358431 15.9696573,10.7545748 C15.9756449,10.77827 15.9808142,10.8024826 15.9850904,10.8270019 C15.9879131,10.8432119 15.9903194,10.8593388 15.9923359,10.8755867 C15.9973809,10.9161282 16,10.9577582 16,11 L16,14 L19,14 C19.5522847,14 20,14.4477153 20,15 C20,15.5522847 19.5522847,16 19,16 L16,16 L16,19 C16,19.5522847 15.5522847,20 15,20 C14.4477153,20 14,19.5522847 14,19 L14,16 L12.8715258,16.000047 C12.8708502,16.0004215 12.8701746,16.0007959 12.869499,16.0011702 Z M8.992,1 C13.416,1 17,4.584 17,9 C17,9.45651371 16.9616983,9.90413597 16.8881265,10.3398264 C16.6691384,9.71339344 16.1481559,9.22983946 15.5000192,9.06301369 L15.5,9 C15.5,5.41142231 12.586567,2.5 8.992,2.5 C5.40641646,2.5 2.5,5.41043639 2.5,9 C2.5,12.5895636 5.40641646,15.5 8.992,15.5 L9.06272595,15.4989 C9.22925654,16.1474536 9.71288048,16.6688475 10.3385468,16.8880307 C9.90148513,16.9613747 9.45126897,17 8.992,17 C4.576,17 1,13.416 1,9 C1,4.584 4.576,1 8.992,1 Z M11.8805564,8.33308474 C12.1101752,8.6650698 11.9987842,9.1025679 11.6317578,9.3102641 C10.7985334,9.78177661 9.59224791,10.2777778 8,10.2777778 C6.40775209,10.2777778 5.20146663,9.78177661 4.36824218,9.3102641 C4.00121576,9.1025679 3.88982483,8.6650698 4.11944357,8.33308474 C4.34906232,8.00109969 4.83273879,7.90034366 5.19976521,8.10803985 C5.73734129,8.41224822 6.67505337,8.85966305 8,8.85966305 C9.32494663,8.85966305 10.2626587,8.41224822 10.8002348,8.10803985 C11.1672612,7.90034366 11.6509377,8.00109969 11.8805564,8.33308474 Z M6,5 C6.55228475,5 7,5.44771525 7,6 C7,6.55228475 6.55228475,7 6,7 C5.44771525,7 5,6.55228475 5,6 C5,5.44771525 5.44771525,5 6,5 Z M10,5 C10.5522847,5 11,5.44771525 11,6 C11,6.55228475 10.5522847,7 10,7 C9.44771525,7 9,6.55228475 9,6 C9,5.44771525 9.44771525,5 10,5 Z" id="Combined-Shape" fill="#000000" fill-rule="nonzero"></path>
    </g>
</svg>