<?xml version="1.0" encoding="UTF-8"?>
<svg width="20px" height="20px" viewBox="0 0 20 20" version="1.1" xmlns="http://www.w3.org/2000/svg" xmlns:xlink="http://www.w3.org/1999/xlink">
    <!-- Generator: Sketch 63.1 (92452) - https://sketch.com -->
    <title>Icon/system/group</title>
    <desc>Created with Sketch.</desc>
    <g id="Icon/system/group" stroke="none" stroke-width="1" fill="none" fill-rule="evenodd">
        <g id="group_add-24px" transform="translate(1.000000, 1.000000)">
            <polygon id="Path" points="0 0 18 0 18 18 0 18"></polygon>
            <path d="M6.63157895,9.984375 C4.41473684,9.984375 0,11.2379464 0,13.734375 L0,15.609375 L13.2631579,15.609375 L13.2631579,13.734375 C13.2631579,11.2379464 8.84842105,9.984375 6.63157895,9.984375 Z M6.75,11.8125 C5.24571429,11.8125 2.25,12.3139286 2.25,13.3125 L2.25,14.0625 L11.25,14.0625 L11.25,13.3125 C11.25,12.3139286 8.25428571,11.8125 6.75,11.8125 Z M6.63157895,8.4375 C8.46,8.4375 9.94736842,7.04973214 9.94736842,5.34375 C9.94736842,3.63776786 8.46,2.25 6.63157895,2.25 C4.80315789,2.25 3.31578947,3.63776786 3.31578947,5.34375 C3.31578947,7.04973214 4.80315789,8.4375 6.63157895,8.4375 Z M6.63157895,4.01785714 C7.41789474,4.01785714 8.05263158,4.61008929 8.05263158,5.34375 C8.05263158,6.07741071 7.41789474,6.66964286 6.63157895,6.66964286 C5.84526316,6.66964286 5.21052632,6.07741071 5.21052632,5.34375 C5.21052632,4.61008929 5.84526316,4.01785714 6.63157895,4.01785714 Z M11.3684211,8.4375 C13.1968421,8.4375 14.6842105,7.04973214 14.6842105,5.34375 C14.6842105,3.63776786 13.1968421,2.25 11.3684211,2.25 C11.1410526,2.25 10.9136842,2.26767857 10.6957895,2.311875 C11.4157895,3.14276786 11.8421053,4.19464286 11.8421053,5.34375 C11.8421053,6.49285714 11.3968421,7.53589286 10.6768421,8.36678571 C10.9042105,8.41098214 11.1315789,8.4375 11.3684211,8.4375 Z M13.7347671,10.6847794 C14.6821355,11.599689 15.1578947,11.599689 15.1578947,13.8713791 L15.1578947,15.8480357 L18,15.8480357 L18,13.8713791 C18,11.9624935 15.8568723,11.2156529 13.7347671,10.6847794 Z" id="Shape" fill="#000000"></path>
        </g>
    </g>
</svg>