<?xml version="1.0" encoding="UTF-8"?>
<svg width="20px" height="20px" viewBox="0 0 20 20" version="1.1" xmlns="http://www.w3.org/2000/svg" xmlns:xlink="http://www.w3.org/1999/xlink">
    <!-- Generator: Sketch 63.1 (92452) - https://sketch.com -->
    <title>Icon/system/image</title>
    <desc>Created with Sketch.</desc>
    <g id="Icon/system/image" stroke="none" stroke-width="1" fill="none" fill-rule="evenodd">
        <polygon id="Path-9" fill="#000000" opacity="0.25" points="2 15.7 8.31944444 11.6285714 11.8384977 14.1268329 17.625 10 17.625 17.22 2 17.22"></polygon>
        <path d="M17,1 C18.1045695,1 19,1.8954305 19,3 L19,17 C19,18.1045695 18.1045695,19 17,19 L3,19 C1.8954305,19 1,18.1045695 1,17 L1,3 C1,1.8954305 1.8954305,1 3,1 L17,1 Z M16.999,10.987 L12.3790142,14.1678364 C12.0590978,14.3879787 11.6445689,14.4010967 11.3142993,14.2113504 L11.2075756,14.1405938 L8.318,11.947 L2.999,15.611 L3,17 L17,17 L16.999,10.987 Z M3,3 L2.999,13.183 L7.77998031,9.89073449 C8.09992,9.67036787 8.51462007,9.65714672 8.84501809,9.84694639 L8.95178284,9.91772658 L11.841,12.11 L16.999,8.561 L17,3 L3,3 Z M6.5,5.31666667 C7.32842712,5.31666667 8,5.98823954 8,6.81666667 C8,7.64509379 7.32842712,8.31666667 6.5,8.31666667 C5.67157288,8.31666667 5,7.64509379 5,6.81666667 C5,5.98823954 5.67157288,5.31666667 6.5,5.31666667 Z" id="Combined-Shape" fill="#000000"></path>
    </g>
</svg>