<?xml version="1.0" encoding="UTF-8"?>
<svg width="20px" height="20px" viewBox="0 0 20 20" version="1.1" xmlns="http://www.w3.org/2000/svg" xmlns:xlink="http://www.w3.org/1999/xlink">
    <!-- Generator: Sketch 63.1 (92452) - https://sketch.com -->
    <title>Icon/system/language</title>
    <desc>Created with Sketch.</desc>
    <g id="Icon/system/language" stroke="none" stroke-width="1" fill="none" fill-rule="evenodd">
        <polygon id="Path" points="0 0 20 0 20 20 0 20"></polygon>
        <path d="M11.719,13.3428571 C11.8913192,13.3428571 12.0148722,13.5090273 11.9652507,13.6740474 C11.5751602,14.9713252 10.9832201,16.194514 10.2114843,17.3102766 C10.109241,17.4580983 9.89075903,17.4580983 9.78851573,17.3102766 C9.01677991,16.194514 8.42483979,14.9713252 8.03474926,13.6740474 C7.98512783,13.5090273 8.10868078,13.3428571 8.281,13.3428571 L8.281,13.3428571 Z M6.427,13.3428571 C6.5444542,13.3428571 6.64698064,13.4224431 6.67610956,13.536228 C6.96239454,14.6545286 7.37149126,15.7128441 7.89521025,16.6817242 C8.00652256,16.887652 7.80716893,17.1231057 7.58570373,17.047278 C5.87919753,16.4629851 4.44886851,15.284062 3.54940063,13.7287322 C3.45026126,13.5573037 3.57396882,13.3428571 3.772,13.3428571 L3.772,13.3428571 Z M16.228,13.3428571 C16.4263311,13.3428571 16.5500004,13.5578884 16.450261,13.7293155 C15.5470901,15.2816404 14.1139392,16.465335 12.4142963,17.047278 C12.1928311,17.1231057 11.9934774,16.887652 12.1047898,16.6817242 C12.6285087,15.7128441 13.0376055,14.6545286 13.3238904,13.536228 C13.3530194,13.4224431 13.4555458,13.3428571 13.573,13.3428571 L13.573,13.3428571 Z M6.076,7.94285714 C6.23028616,7.94285714 6.34983987,8.07777727 6.3312744,8.23094235 C6.24811876,8.91697641 6.20714286,9.46195589 6.20714286,10 C6.20714286,10.5380441 6.24811876,11.0830236 6.3312744,11.7690576 C6.34983987,11.9222227 6.23028616,12.0571429 6.076,12.0571429 L6.076,12.0571429 L3.034,12.0571429 C2.91600546,12.0571429 2.81315266,11.9768378 2.78453479,11.8623663 C2.62621319,11.2290799 2.54285714,10.6108559 2.54285714,10 C2.54285714,9.38914411 2.62621319,8.77092007 2.78453479,8.1376337 C2.81315266,8.02316218 2.91600546,7.94285714 3.034,7.94285714 L3.034,7.94285714 Z M12.106,7.94285714 C12.2343883,7.94285714 12.343104,8.03755702 12.3607128,8.16473207 C12.4578258,8.86610345 12.5071429,9.43861035 12.5071429,10 C12.5071429,10.5582453 12.4591249,11.1135834 12.3607849,11.8347434 C12.3434107,11.9621539 12.2345896,12.0571429 12.106,12.0571429 L12.106,12.0571429 L7.894,12.0571429 C7.76541039,12.0571429 7.65658925,11.9621539 7.6392151,11.8347434 C7.5408751,11.1135834 7.49285714,10.5582453 7.49285714,10 C7.49285714,9.43861035 7.54217422,8.86610345 7.63928718,8.16473207 C7.65689603,8.03755702 7.76561167,7.94285714 7.894,7.94285714 L7.894,7.94285714 Z M16.966,7.94285714 C17.0839945,7.94285714 17.1868473,8.02316218 17.2154652,8.1376337 C17.3737868,8.77092007 17.4571429,9.38914411 17.4571429,10 C17.4571429,10.6108559 17.3737868,11.2290799 17.2154652,11.8623663 C17.1868473,11.9768378 17.0839945,12.0571429 16.966,12.0571429 L16.966,12.0571429 L13.924,12.0571429 C13.7697138,12.0571429 13.6501601,11.9222227 13.6687256,11.7690576 C13.7518812,11.0830236 13.7928571,10.5380441 13.7928571,10 C13.7928571,9.46195589 13.7518812,8.91697641 13.6687256,8.23094235 C13.6501601,8.07777727 13.7697138,7.94285714 13.924,7.94285714 L13.924,7.94285714 Z M12.3546617,2.93950338 L12.4142963,2.95272201 C14.1139392,3.53466498 15.5470901,4.71835959 16.450261,6.27068451 C16.5500004,6.44211164 16.4263311,6.65714286 16.228,6.65714286 L16.228,6.65714286 L13.573,6.65714286 C13.4555458,6.65714286 13.3530194,6.57755692 13.3238904,6.46377205 C13.0376055,5.34547136 12.6285087,4.28715594 12.1047898,3.31827581 C11.9934774,3.11234802 12.1928311,2.87689425 12.4142963,2.95272201 Z M9.78851573,2.68972338 C9.89075903,2.54190173 10.109241,2.54190173 10.2114843,2.68972338 C10.9832201,3.805486 11.5751602,5.02867477 11.9652507,6.32595257 C12.0148722,6.49097266 11.8913192,6.65714286 11.719,6.65714286 L11.719,6.65714286 L8.281,6.65714286 C8.10868078,6.65714286 7.98512783,6.49097266 8.03474926,6.32595257 C8.42483979,5.02867477 9.01677991,3.805486 9.78851573,2.68972338 Z M7.58570373,2.95272201 C7.80716893,2.87689425 8.00652256,3.11234802 7.89521025,3.31827581 C7.37149126,4.28715594 6.96239454,5.34547136 6.67610956,6.46377205 C6.64698064,6.57755692 6.5444542,6.65714286 6.427,6.65714286 L6.427,6.65714286 L3.772,6.65714286 C3.57396882,6.65714286 3.45026126,6.44269634 3.54940063,6.27126784 C4.44886851,4.71593796 5.87919753,3.53701489 7.58570373,2.95272201 Z M9.991,1 C5.023,1 1,5.032 1,10 C1,14.968 5.023,19 9.991,19 C14.968,19 19,14.968 19,10 C19,5.032 14.968,1 9.991,1 Z" id="Shape" fill="#000000"></path>
    </g>
</svg>