<?xml version="1.0" encoding="UTF-8"?>
<svg width="20px" height="20px" viewBox="0 0 20 20" version="1.1" xmlns="http://www.w3.org/2000/svg" xmlns:xlink="http://www.w3.org/1999/xlink">
    <!-- Generator: Sketch 63.1 (92452) - https://sketch.com -->
    <title>Icon/system/list</title>
    <desc>Created with Sketch.</desc>
    <g id="Icon/system/list" stroke="none" stroke-width="1" fill="none" fill-rule="evenodd">
        <path d="M16.1764706,14 C16.6312933,14 17,14.4477153 17,15 C17,15.5522847 16.6312933,16 16.1764706,16 L3.82352941,16 C3.36870668,16 3,15.5522847 3,15 C3,14.4477153 3.36870668,14 3.82352941,14 L16.1764706,14 Z M16.1764706,9 C16.6312933,9 17,9.44771525 17,10 C17,10.5522847 16.6312933,11 16.1764706,11 L3.82352941,11 C3.36870668,11 3,10.5522847 3,10 C3,9.44771525 3.36870668,9 3.82352941,9 L16.1764706,9 Z M16.1764706,4 C16.6312933,4 17,4.44771525 17,5 C17,5.55228475 16.6312933,6 16.1764706,6 L3.82352941,6 C3.36870668,6 3,5.55228475 3,5 C3,4.44771525 3.36870668,4 3.82352941,4 L16.1764706,4 Z" id="Shape" fill="#000000"></path>
    </g>
</svg>