<?xml version="1.0" encoding="UTF-8"?>
<svg width="20px" height="20px" viewBox="0 0 20 20" version="1.1" xmlns="http://www.w3.org/2000/svg" xmlns:xlink="http://www.w3.org/1999/xlink">
    <!-- Generator: Sketch 63.1 (92452) - https://sketch.com -->
    <title>Icon/system/list_view</title>
    <desc>Created with Sketch.</desc>
    <g id="Icon/system/list_view" stroke="none" stroke-width="1" fill="none" fill-rule="evenodd">
        <path d="M3.25,13.25 C3.94035594,13.25 4.5,13.8096441 4.5,14.5 C4.5,15.1903559 3.94035594,15.75 3.25,15.75 C2.55964406,15.75 2,15.1903559 2,14.5 C2,13.8096441 2.55964406,13.25 3.25,13.25 Z M17,13.5 C17.5522847,13.5 18,13.9477153 18,14.5 C18,15.0522847 17.5522847,15.5 17,15.5 L7,15.5 C6.44771525,15.5 6,15.0522847 6,14.5 C6,13.9477153 6.44771525,13.5 7,13.5 L17,13.5 Z M3.25,8.75 C3.94035594,8.75 4.5,9.30964406 4.5,10 C4.5,10.6903559 3.94035594,11.25 3.25,11.25 C2.55964406,11.25 2,10.6903559 2,10 C2,9.30964406 2.55964406,8.75 3.25,8.75 Z M17,9 C17.5522847,9 18,9.44771525 18,10 C18,10.5522847 17.5522847,11 17,11 L7,11 C6.44771525,11 6,10.5522847 6,10 C6,9.44771525 6.44771525,9 7,9 L17,9 Z M3.25,4.25 C3.94035594,4.25 4.5,4.80964406 4.5,5.5 C4.5,6.19035594 3.94035594,6.75 3.25,6.75 C2.55964406,6.75 2,6.19035594 2,5.5 C2,4.80964406 2.55964406,4.25 3.25,4.25 Z M17,4.5 C17.5522847,4.5 18,4.94771525 18,5.5 C18,6.05228475 17.5522847,6.5 17,6.5 L7,6.5 C6.44771525,6.5 6,6.05228475 6,5.5 C6,4.94771525 6.44771525,4.5 7,4.5 L17,4.5 Z" id="Combined-Shape" fill="#000000"></path>
    </g>
</svg>