<?xml version="1.0" encoding="UTF-8"?>
<svg width="20px" height="20px" viewBox="0 0 20 20" version="1.1" xmlns="http://www.w3.org/2000/svg" xmlns:xlink="http://www.w3.org/1999/xlink">
    <!-- Generator: Sketch 63.1 (92452) - https://sketch.com -->
    <title>Icon/system/location</title>
    <desc>Created with Sketch.</desc>
    <g id="Icon/system/location" stroke="none" stroke-width="1" fill="none" fill-rule="evenodd">
        <g id="TeeCalendar_Icon/location" transform="translate(3.000000, 1.000000)" fill="#000000">
            <path d="M7,-4.4408921e-14 C10.8654,-4.4408921e-14 14,2.9391875 14,6.56508265 C14,7.66276447 13.7082556,8.69424837 13.1997124,9.60289836 L13.0557,9.84762397 L13.062,9.84762397 L7.79338576,17.6589805 C7.52443502,17.8857318 7.2599731,17.9994049 7,18 C6.78335575,18.0004857 6.57152248,17.9224412 6.36450018,17.7658664 L6.24086412,17.6624978 L0.938,9.84762397 C0.3472,8.88124381 0,7.76255372 0,6.56508265 C0,2.9391875 3.1339,-4.4408921e-14 7,-4.4408921e-14 Z M7,2 C4.2385,2 2,4.07293173 2,6.63018032 C2,7.47472521 2.248,8.26370793 2.6745,8.94527047 L2.67,8.94527047 L6.4463565,14.5986876 C6.62837918,14.866644 6.81223806,15.0004147 6.99793313,15 C7.1836282,14.999584 7.36941733,14.8649863 7.55530053,14.5962069 L11.33,8.94527047 L11.3255,8.94527047 C11.752,8.26370793 12,7.47472521 12,6.63018032 C12,4.07293173 9.761,2 7,2 Z M7,4 C8.65685425,4 10,5.34314575 10,7 C10,8.65685425 8.65685425,10 7,10 C5.34314575,10 4,8.65685425 4,7 C4,5.34314575 5.34314575,4 7,4 Z M7,5.75 C6.30964406,5.75 5.75,6.30964406 5.75,7 C5.75,7.69035594 6.30964406,8.25 7,8.25 C7.69035594,8.25 8.25,7.69035594 8.25,7 C8.25,6.30964406 7.69035594,5.75 7,5.75 Z" id="Shape"></path>
        </g>
    </g>
</svg>