<?xml version="1.0" encoding="UTF-8"?>
<svg width="20px" height="20px" viewBox="0 0 20 20" version="1.1" xmlns="http://www.w3.org/2000/svg" xmlns:xlink="http://www.w3.org/1999/xlink">
    <!-- Generator: Sketch 63.1 (92452) - https://sketch.com -->
    <title>Icon/system/lock</title>
    <desc>Created with Sketch.</desc>
    <g id="Icon/system/lock" stroke="none" stroke-width="1" fill="none" fill-rule="evenodd">
        <g id="TeeNote_Icon/lock">
            <rect id="Rectangle" x="0" y="0" width="20" height="20"></rect>
            <path d="M10,1 C12.209139,1 14,2.79070952 14,4.99966165 L14,7.999 L15,8 C16.1045695,8 17,8.8954305 17,10 L17,17 C17,18.1045695 16.1045695,19 15,19 L5,19 C3.8954305,19 3,18.1045695 3,17 L3,10 C3,8.8954305 3.8954305,8 5,8 L6,7.999 L6,4.99966165 C6,2.79070952 7.790861,1 10,1 Z M10,10.75 C9.48716416,10.75 9.06449284,11.1360402 9.00672773,11.6333789 L9,11.75 L9,15.25 C9,15.8022847 9.44771525,16.25 10,16.25 C10.5128358,16.25 10.9355072,15.8639598 10.9932723,15.3666211 L11,15.25 L11,11.75 C11,11.1977153 10.5522847,10.75 10,10.75 Z M10,2.99983083 C8.9456382,2.99983083 8.08183488,3.81563961 8.00548574,4.85041194 L8,4.99966165 L8,7.9994079 L12,7.9994079 L12,4.99966165 C12,3.94538904 11.1841222,3.08165878 10.1492623,3.0053161 L10,2.99983083 Z" id="Combined-Shape" fill="#000000"></path>
        </g>
    </g>
</svg>