<?xml version="1.0" encoding="UTF-8"?>
<svg width="20px" height="20px" viewBox="0 0 20 20" version="1.1" xmlns="http://www.w3.org/2000/svg" xmlns:xlink="http://www.w3.org/1999/xlink">
    <!-- Generator: Sketch 63.1 (92452) - https://sketch.com -->
    <title>Icon/system/member</title>
    <desc>Created with Sketch.</desc>
    <g id="Icon/system/member" stroke="none" stroke-width="1" fill="none" fill-rule="evenodd">
        <path d="M10,0 C14.418278,0 18,3.581722 18,8 C18,10.1630176 17.141568,12.1255377 15.7468031,13.5654611 C17.1179018,14.4323983 18,15.6959766 18,17.363961 C18,20.8786797 3,20.8786797 3,17.363961 C3,15.8317003 3.53198607,14.6407102 4.47531643,13.7846504 C2.95002194,12.3290799 2,10.2754847 2,8 C2,3.581722 5.581722,0 10,0 Z M14.4443263,14.6521495 L14.3027276,14.7455539 C13.0603116,15.5396933 11.583911,16 10,16 C8.55310268,16 7.19592022,15.615885 6.02486274,14.9440652 C5.44105255,15.3752136 5.10377148,16.0254496 4.99591167,16.9734051 L4.987,17.079 L5.02889635,17.1043705 C5.18839084,17.1940632 5.41539513,17.2920591 5.70174817,17.3875299 L5.88061655,17.4444227 C7.03905653,17.7960601 8.71871395,18 10.4875514,18 C12.2563888,18 13.9360462,17.7960601 15.0944862,17.4444227 C15.4662055,17.3315896 15.754813,17.2120017 15.9462064,17.1043705 L15.987,17.079 L15.9791911,16.9734051 C15.8408003,15.7571198 15.3567845,15.0518677 14.4443263,14.6521495 Z M10,2 C6.6862915,2 4,4.6862915 4,8 C4,11.3137085 6.6862915,14 10,14 C13.3137085,14 16,11.3137085 16,8 C16,4.6862915 13.3137085,2 10,2 Z M12.6358217,7.85221776 C12.8555108,8.20337242 12.7489369,8.66613268 12.3977822,8.88582175 C11.723545,9.30763742 10.7617321,9.5 9.5,9.5 C8.23826786,9.5 7.27645495,9.30763742 6.60221776,8.88582175 C6.25106311,8.66613268 6.14448919,8.20337242 6.36417825,7.85221776 C6.56389558,7.53298626 6.96449821,7.4158876 7.29951218,7.56229085 L7.39778224,7.61417825 C7.78915614,7.85902925 8.4940099,8 9.5,8 C10.4221576,8 11.091277,7.88154541 11.4978506,7.67320537 L11.6022178,7.61417825 C11.9533724,7.39448919 12.4161327,7.50106311 12.6358217,7.85221776 Z M7.8,5 C8.2418278,5 8.6,5.3581722 8.6,5.8 C8.6,6.2418278 8.2418278,6.6 7.8,6.6 C7.3581722,6.6 7,6.2418278 7,5.8 C7,5.3581722 7.3581722,5 7.8,5 Z M10.8,5 C11.2418278,5 11.6,5.3581722 11.6,5.8 C11.6,6.2418278 11.2418278,6.6 10.8,6.6 C10.3581722,6.6 10,6.2418278 10,5.8 C10,5.3581722 10.3581722,5 10.8,5 Z" id="Combined-Shape" fill="#000000"></path>
    </g>
</svg>