<?xml version="1.0" encoding="UTF-8"?>
<svg width="20px" height="20px" viewBox="0 0 20 20" version="1.1" xmlns="http://www.w3.org/2000/svg" xmlns:xlink="http://www.w3.org/1999/xlink">
    <!-- Generator: Sketch 63.1 (92452) - https://sketch.com -->
    <title>Icon/system/mention</title>
    <desc>Created with Sketch.</desc>
    <g id="Icon/system/mention" stroke="none" stroke-width="1" fill="none" fill-rule="evenodd">
        <rect id="Rectangle" opacity="0.242838542" x="0" y="0" width="20" height="20"></rect>
        <path d="M10.0043332,1 C12.4771305,1 14.5946076,1.88065448 16.3567646,3.64196343 C18.1189215,5.40904716 19,7.52839269 19,10 C19,13.759384 17.7953779,15.639076 15.3861338,15.639076 C14.0572942,15.639076 13.3119884,15.0413859 13.1502167,13.8460058 C12.2258065,14.5909528 11.1771786,14.9634264 10.0043332,14.9634264 C8.63505055,14.9634264 7.46509389,14.4783446 6.49446317,13.5081809 C5.52383245,12.5380173 5.03851709,11.3686237 5.03851709,10 C5.03851709,8.63137632 5.52383245,7.46198268 6.49446317,6.49181906 C7.46509389,5.52165544 8.63505055,5.03657363 10.0043332,5.03657363 C11.3736158,5.03657363 12.5406837,5.52165544 13.5055368,6.49181906 C14.4819451,7.46198268 14.9701493,8.63137632 14.9701493,10 L14.9701493,10 L14.9701493,13.3695861 C14.9701493,13.6467757 15.1088108,13.7853705 15.3861338,13.7853705 C16.5647569,13.7853705 17.1540684,12.5235804 17.1540684,10 C17.1540684,8.9894129 16.9792971,8.06833494 16.6297545,7.23676612 C16.2802118,6.40519731 15.7558979,5.64292589 15.0568127,4.94995188 C14.3519499,4.25120308 13.5835339,3.72569779 12.7515648,3.373436 C11.9195956,3.02117421 11.0038517,2.84504331 10.0043332,2.84504331 C8.02262879,2.84504331 6.33269138,3.5466795 4.93452094,4.94995188 C3.54212807,6.3358999 2.84593163,8.01924928 2.84593163,10 C2.84593163,11.9807507 3.54212807,13.6641001 4.93452094,15.0500481 C6.33269138,16.4533205 8.02262879,17.1549567 10.0043332,17.1549567 C11.0558498,17.1549567 12.0380356,16.9528393 12.9508907,16.5486044 C13.0895522,16.4677575 13.2339913,16.427334 13.384208,16.427334 C13.6441984,16.427334 13.8623014,16.5182868 14.0385171,16.7001925 C14.2147328,16.8820982 14.3028406,17.1029836 14.3028406,17.3628489 C14.3028406,17.5534167 14.2465094,17.7309913 14.1338469,17.8955727 C14.0211844,18.060154 13.8810785,18.1684312 13.7135291,18.2204042 C12.5695715,18.7401347 11.3331728,19 10.0043332,19 C7.51998074,19 5.39672605,18.1193455 3.63456909,16.3580366 C1.8781897,14.5967276 1,12.4773821 1,10 C1,7.52839269 1.8781897,5.40904716 3.63456909,3.64196343 C5.39672605,1.88065448 7.51998074,1 10.0043332,1 Z M10.0083565,7 C9.59610028,7 9.20612813,7.07821229 8.83844011,7.23463687 C8.47075209,7.39106145 8.15181058,7.60335196 7.8816156,7.87150838 C7.61142061,8.1396648 7.39693593,8.45810056 7.23816156,8.82681564 C7.07938719,9.19553073 7,9.58659218 7,10 C7,10.4134078 7.07938719,10.8044693 7.23816156,11.1731844 C7.39693593,11.5418994 7.61142061,11.8603352 7.8816156,12.1284916 C8.15181058,12.396648 8.47075209,12.6089385 8.83844011,12.7653631 C9.20612813,12.9217877 9.59610028,13 10.0083565,13 C10.4206128,13 10.810585,12.9203911 11.178273,12.7611732 C11.545961,12.6019553 11.8635097,12.3854749 12.1309192,12.1117318 C12.3983287,11.8379888 12.6100279,11.5195531 12.7660167,11.1564246 C12.9220056,10.7932961 13,10.4078212 13,10 C13,9.59217877 12.9220056,9.20670391 12.7660167,8.84357542 C12.6100279,8.48044693 12.3983287,8.16201117 12.1309192,7.88826816 C11.8635097,7.61452514 11.545961,7.39804469 11.178273,7.23882682 C10.810585,7.07960894 10.4206128,7 10.0083565,7 Z" id="@" fill="#000000"></path>
    </g>
</svg>