<?xml version="1.0" encoding="UTF-8"?>
<svg width="20px" height="20px" viewBox="0 0 20 20" version="1.1" xmlns="http://www.w3.org/2000/svg" xmlns:xlink="http://www.w3.org/1999/xlink">
    <!-- Generator: Sketch 63.1 (92452) - https://sketch.com -->
    <title>Icon/system/mic_none</title>
    <desc>Created with Sketch.</desc>
    <g id="Icon/system/mic_none" stroke="none" stroke-width="1" fill="none" fill-rule="evenodd">
        <path d="M2.86289944,1.45970461 L2.95710678,1.54289322 L18.4571068,17.0428932 C18.8476311,17.4334175 18.8476311,18.0665825 18.4571068,18.4571068 C18.0966228,18.8175907 17.5293918,18.8453203 17.1371006,18.5402954 L17.0428932,18.4571068 L13.5499728,14.9653646 C12.7821083,15.4504071 11.9202765,15.7828956 11.000787,15.923927 L11,18.5 C11,18.7761424 10.7761424,19 10.5,19 L9.5,19 C9.22385763,19 9,18.7761424 9,18.5 L8.99994082,15.9528582 C6.12358861,15.6083304 3.77395269,13.3963369 3.03155403,10.4745788 C2.99184658,10.3183075 2.96980009,10.1957789 3.08987889,10.0828162 C3.16118755,10.0157335 3.21507192,10.0029512 3.3142942,10.0005479 L4.50114593,10.0003423 C4.61058038,10.0003423 4.74041897,10.0118103 4.81138334,10.0828162 C4.86460662,10.1360707 4.89230158,10.1865868 4.91773284,10.2538695 L4.94327118,10.3274635 C5.62226071,12.3927753 7.41951395,13.8932047 9.55614095,13.9942268 L9.786,14 L10,14 C10.7494348,14 11.4613595,13.8279292 12.1032362,13.5186498 L10.5362686,11.9522062 C10.3622669,11.983606 10.1830479,12 10,12 C8.34314575,12 7,10.6568542 7,9 L7,8.415 L1.54289322,2.95710678 C1.15236893,2.56658249 1.15236893,1.93341751 1.54289322,1.54289322 C1.90337718,1.18240926 2.47060824,1.15467972 2.86289944,1.45970461 Z M16.6964495,10.0831585 C16.8165283,10.1961212 16.7944818,10.3186498 16.7547744,10.4749211 C16.6203526,11.0039466 16.4332389,11.5097031 16.1998471,11.9853183 L14.7645526,10.5509232 L14.7660648,10.5468897 L14.8430572,10.3278058 C14.8784,10.2203022 14.9039807,10.1541645 14.9749451,10.0831585 C15.0459094,10.0121526 15.175748,10.000744 15.2851825,10.0007082 L16.388136,10.0003423 C16.5454033,10.0003423 16.6073137,9.9993051 16.6964495,10.0831585 Z M10,1 C11.6568542,1 13,2.34314575 13,4 L12.999,8.784 L10.999,6.785 L11,4 C11,3.44771525 10.5522847,3 10,3 C9.48716416,3 9.06449284,3.38604019 9.00672773,3.88337887 L9,4 L8.999,4.785 L7.18222413,2.96799448 C7.60296092,1.81955089 8.70577228,1 10,1 Z" id="Combined-Shape" fill="#000000"></path>
    </g>
</svg>