<?xml version="1.0" encoding="UTF-8"?>
<svg width="20px" height="20px" viewBox="0 0 20 20" version="1.1" xmlns="http://www.w3.org/2000/svg" xmlns:xlink="http://www.w3.org/1999/xlink">
    <!-- Generator: Sketch 63.1 (92452) - https://sketch.com -->
    <title>Icon/system/new_folder</title>
    <desc>Created with Sketch.</desc>
    <g id="Icon/system/new_folder" stroke="none" stroke-width="1" fill="none" fill-rule="evenodd">
        <path d="M7.42393107,2 C8.39806681,2 9.27729004,2.59771459 9.69234532,3.52397003 C9.80666202,3.77912962 10.0539884,4.8737886 10.3260907,4.8737886 L10.3260907,4.8737886 L16.486287,4.8737886 C17.8866253,4.8737886 19,6.0846374 19,7.55200662 L19,7.55200662 L19,15.321782 C19,16.7891512 17.8866253,18 16.486287,18 L16.486287,18 L3.51371298,18 C2.11337467,18 1,16.7891512 1,15.321782 L1,15.321782 L1,4.67821802 C1,3.2108488 2.11337467,2 3.51371298,2 L3.51371298,2 Z M7.4051619,4 L3.46645405,4 C3.22097938,4 3,4.24676244 3,4.57834854 L3,4.57834854 L3,15.4216515 C3,15.7532376 3.22097938,16 3.46645405,16 L3.46645405,16 L16.5335459,16 C16.7790206,16 17,15.7532376 17,15.4216515 L17,15.4216515 L17,7.38565069 C17,7.05406459 16.7790206,6.80730215 16.5335459,6.80730215 L16.5335459,6.80730215 L10.3284665,6.80730215 C8.26893046,6.80730215 8.26893046,5.34411566 7.81569388,4.30537799 C7.73137533,4.11216928 7.57068102,4 7.4051619,4 L7.4051619,4 Z M10,7.8 C10.4588212,7.8 10.8374518,8.14333667 10.8929877,8.58710591 L10.9,8.7 L10.899,10.6 L12.8,10.6 C13.2205861,10.6 13.5737898,10.8884982 13.6725132,11.2783965 L13.6929877,11.3871059 L13.7,11.5 C13.7,11.9588212 13.3566633,12.3374518 12.9128941,12.3929877 L12.8,12.4 L10.899,12.399 L10.9,14.3 C10.9,14.7205861 10.6115018,15.0737898 10.2216035,15.1725132 L10.1128941,15.1929877 L10,15.2 C9.54117882,15.2 9.16254822,14.8566633 9.10701228,14.4128941 L9.1,14.3 L9.1,12.399 L7.2,12.4 C6.77941392,12.4 6.4262102,12.1115018 6.32748683,11.7216035 L6.30701228,11.6128941 L6.3,11.5 C6.3,11.0411788 6.64333667,10.6625482 7.08705348,10.6070123 L7.19993333,10.6 L9.1,10.599 L9.1,8.7 C9.1,8.27941392 9.38849817,7.9262102 9.77839652,7.82748683 L9.88710591,7.80701228 L10,7.8 Z" id="Combined-Shape" fill="#000000" fill-rule="nonzero"></path>
    </g>
</svg>