<?xml version="1.0" encoding="UTF-8"?>
<svg width="20px" height="20px" viewBox="0 0 20 20" version="1.1" xmlns="http://www.w3.org/2000/svg" xmlns:xlink="http://www.w3.org/1999/xlink">
    <!-- Generator: Sketch 63.1 (92452) - https://sketch.com -->
    <title>Icon/system/office</title>
    <desc>Created with Sketch.</desc>
    <g id="Icon/system/office" stroke="none" stroke-width="1" fill="none" fill-rule="evenodd">
        <path d="M9,0.999999997 C9.55228475,0.999999997 10,1.44771525 10,2 L10,2 L10,4.85714285 L18,4.85714285 C18.5522847,4.85714285 19,5.3048581 19,5.85714285 L19,5.85714285 L19,18 C19,18.5522847 18.5522847,19 18,19 L18,19 L2,19 C1.44771525,19 1,18.5522847 1,18 L1,18 L1,2 C1,1.44771525 1.44771525,0.999999997 2,0.999999997 L2,0.999999997 Z M17,7 L10,7 L10,17 L17,17 L17,7 Z M5,17 L3,17 L3,15 L5,15 L5,17 Z M5,11 L3,11 L3,9.00000001 L5,9.00000001 L5,11 Z M5,14 L3,14 L3,12 L5,12 L5,14 Z M5,8 L3,8 L3,6 L5,6 L5,8 Z M5,5 L3,5 L3,3 L5,3 L5,5 Z M8,17 L6,17 L6,15 L8,15 L8,17 Z M8,11 L6,11 L6,9 L8,9 L8,11 Z M8,14 L6,14 L6,12 L8,12 L8,14 Z M8,8 L6,8 L6,6 L8,6 L8,8 Z M8,5 L6,5 L6,3 L8,3 L8,5 Z M10,13 L12,13 L12,15 L10,15 L10,13 Z M15,9 L13,9 L13,11 L15,11 L15,9 Z M12,9 L10,9 L10,11 L12,11 L12,9 Z M15,13 L13,13 L13,15 L15,15 L15,13 Z" id="Shape" fill="#000000"></path>
    </g>
</svg>