<?xml version="1.0" encoding="UTF-8"?>
<svg width="20px" height="20px" viewBox="0 0 20 20" version="1.1" xmlns="http://www.w3.org/2000/svg" xmlns:xlink="http://www.w3.org/1999/xlink">
    <!-- Generator: Sketch 63.1 (92452) - https://sketch.com -->
    <title>Icon/system/pause</title>
    <desc>Created with Sketch.</desc>
    <g id="Icon/system/pause" stroke="none" stroke-width="1" fill="none" fill-rule="evenodd">
        <path d="M7,4 C7.55228475,4 8,4.44771525 8,5 L8,15 C8,15.5522847 7.55228475,16 7,16 C6.44771525,16 6,15.5522847 6,15 L6,5 C6,4.44771525 6.44771525,4 7,4 Z M13,4 C13.5522847,4 14,4.44771525 14,5 L14,15 C14,15.5522847 13.5522847,16 13,16 C12.4477153,16 12,15.5522847 12,15 L12,5 C12,4.44771525 12.4477153,4 13,4 Z" id="Combined-Shape" fill="#000000"></path>
    </g>
</svg>