<?xml version="1.0" encoding="UTF-8"?>
<svg width="20px" height="20px" viewBox="0 0 20 20" version="1.1" xmlns="http://www.w3.org/2000/svg" xmlns:xlink="http://www.w3.org/1999/xlink">
    <!-- Generator: Sketch 63.1 (92452) - https://sketch.com -->
    <title>Icon/system/pin</title>
    <desc>Created with Sketch.</desc>
    <g id="Icon/system/pin" stroke="none" stroke-width="1" fill="none" fill-rule="evenodd">
        <g id="icn_pin">
            <rect id="Rectangle" fill="#D8D8D8" opacity="0" x="0" y="0" width="20" height="20"></rect>
            <path d="M18.5939328,6.52705879 C19.1353557,7.06862627 19.1353557,7.94668063 18.5939328,8.4882481 L18.4713911,8.61082243 C18.0245767,9.05775614 17.3486579,9.13585355 16.8217758,8.84511467 L13.1393351,12.5283785 C13.627535,13.7023909 13.3942966,15.1056864 12.4396199,16.0606179 L11.7860645,16.7143477 L8.51828777,13.4456988 L3.40867321,18.556677 L1,19 L1.44800716,16.5954877 L6.55762172,11.4845095 L3.28984497,8.2158607 L3.94340032,7.56213093 C4.89807709,6.60719938 6.30099819,6.37389874 7.47469734,6.862229 L11.1569784,3.17880554 C10.8663171,2.65178285 10.9443937,1.97568365 11.3912082,1.52874994 L11.5137498,1.4061756 C12.0551728,0.864608132 12.9329929,0.864608132 13.4744159,1.4061756 L18.5939328,6.52705879 Z M16.5,6.8972412 L13.1027588,3.5 L13.091839,3.56140353 C13.0299113,3.83865789 12.9018753,4.10229266 12.7112793,4.3272435 L12.6107843,4.43637923 L9.0457186,8.0015995 C8.56735804,8.47998079 7.86377165,8.64497199 7.22795742,8.43851441 L7.09285562,8.3885669 C6.93951996,8.32478695 6.77850109,8.29100509 6.61773514,8.28610828 L6.5,8.28676284 L11.7132372,13.5 L11.7145245,13.3828976 C11.7108519,13.2623231 11.6909314,13.1416064 11.6542936,13.0240955 L11.6120659,12.9077771 C11.3522479,12.2831395 11.4680259,11.5698013 11.9013409,11.0607605 L11.9990333,10.9549142 L15.5642535,7.38984841 C15.8108402,7.14327246 16.1157658,6.98104277 16.4392292,6.90879372 L16.5,6.8972412 Z" id="Shape" fill="#000000"></path>
        </g>
    </g>
</svg>