<?xml version="1.0" encoding="UTF-8"?>
<svg width="20px" height="20px" viewBox="0 0 20 20" version="1.1" xmlns="http://www.w3.org/2000/svg" xmlns:xlink="http://www.w3.org/1999/xlink">
    <!-- Generator: Sketch 63.1 (92452) - https://sketch.com -->
    <title>Icon/system/popup/info</title>
    <desc>Created with Sketch.</desc>
    <g id="Icon/system/popup/info" stroke="none" stroke-width="1" fill="none" fill-rule="evenodd">
        <g id="icons/popup_info" fill="#000000">
            <path d="M10,0 C15.5228475,0 20,4.4771525 20,10 C20,15.5228475 15.5228475,20 10,20 C4.4771525,20 0,15.5228475 0,10 C0,4.4771525 4.4771525,0 10,0 Z M10,2 C5.581722,2 2,5.581722 2,10 C2,14.418278 5.581722,18 10,18 C14.418278,18 18,14.418278 18,10 C18,5.581722 14.418278,2 10,2 Z M10,8 C10.5522847,8 11,8.44771525 11,9 L11,14 C11,14.5522847 10.5522847,15 10,15 C9.44771525,15 9,14.5522847 9,14 L9,9 C9,8.44771525 9.44771525,8 10,8 Z M10,4.5 C10.6903559,4.5 11.25,5.05964406 11.25,5.75 C11.25,6.44035594 10.6903559,7 10,7 C9.30964406,7 8.75,6.44035594 8.75,5.75 C8.75,5.05964406 9.30964406,4.5 10,4.5 Z" id="Shape"></path>
        </g>
    </g>
</svg>