<?xml version="1.0" encoding="UTF-8"?>
<svg width="20px" height="20px" viewBox="0 0 20 20" version="1.1" xmlns="http://www.w3.org/2000/svg" xmlns:xlink="http://www.w3.org/1999/xlink">
    <!-- Generator: Sketch 63.1 (92452) - https://sketch.com -->
    <title>Icon/system/profile_edit</title>
    <desc>Created with Sketch.</desc>
    <g id="Icon/system/profile_edit" stroke="none" stroke-width="1" fill="none" fill-rule="evenodd">
        <path d="M8.992,1 C12.8281309,1 16.0326709,3.69478804 16.8165842,7.29011251 L16.8853163,7.22176471 C17.0317084,7.07647059 17.2320344,7 17.4246555,7 C17.5849163,7 17.740246,7.04404706 17.874865,7.13997176 L17.9716995,7.22176471 L19.7746333,9.01117647 C20.0478051,9.28229947 20.0726389,9.70509966 19.8491347,10.0038003 L19.7746333,10.0894118 L18.3646466,11.4888235 L15.863,9.006 L15.4889244,9.38229687 C15.4962741,9.2557987 15.5,9.12833235 15.5,9 C15.5,8.87740884 15.4966,8.75560792 15.489889,8.63468632 L15.4753297,8.62117647 L15.4884553,8.60971506 C15.2863284,5.2026875 12.4553143,2.5 8.992,2.5 C5.40641646,2.5 2.5,5.41043639 2.5,9 C2.5,12.4689656 5.21440426,15.3036705 8.63299148,15.4902292 L15.0625315,9.02646101 L17.9518484,11.8941176 L10.182532,19.7052083 C10.0261252,19.8624561 9.82285862,19.9623407 9.60542822,19.9912676 L9.47353189,20 L7,20 L7,17.5449964 C7,17.324757 7.07265413,17.1119804 7.20472952,16.9387353 L7.29099945,16.8397885 L7.3084442,16.8222163 C3.70172196,16.0482186 1,12.8384036 1,9 C1,4.584 4.576,1 8.992,1 Z M15.1338742,11.0865771 L8.54096903,17.7670588 L8.54096903,18.4705882 L9.24981479,18.4705882 L15.8427199,11.7901066 L15.1338742,11.0865771 Z M11.8805564,8.33308474 C12.1101752,8.6650698 11.9987842,9.1025679 11.6317578,9.3102641 C10.7985334,9.78177661 9.59224791,10.2777778 8,10.2777778 C6.40775209,10.2777778 5.20146663,9.78177661 4.36824218,9.3102641 C4.00121576,9.1025679 3.88982483,8.6650698 4.11944357,8.33308474 C4.34906232,8.00109969 4.83273879,7.90034366 5.19976521,8.10803985 C5.73734129,8.41224822 6.67505337,8.85966305 8,8.85966305 C9.32494663,8.85966305 10.2626587,8.41224822 10.8002348,8.10803985 C11.1672612,7.90034366 11.6509377,8.00109969 11.8805564,8.33308474 Z M6,5 C6.55228475,5 7,5.44771525 7,6 C7,6.55228475 6.55228475,7 6,7 C5.44771525,7 5,6.55228475 5,6 C5,5.44771525 5.44771525,5 6,5 Z M10,5 C10.5522847,5 11,5.44771525 11,6 C11,6.55228475 10.5522847,7 10,7 C9.44771525,7 9,6.55228475 9,6 C9,5.44771525 9.44771525,5 10,5 Z" id="Combined-Shape" fill="#000000"></path>
    </g>
</svg>