<?xml version="1.0" encoding="UTF-8"?>
<svg width="20px" height="20px" viewBox="0 0 20 20" version="1.1" xmlns="http://www.w3.org/2000/svg" xmlns:xlink="http://www.w3.org/1999/xlink">
    <!-- Generator: Sketch 63.1 (92452) - https://sketch.com -->
    <title>Icon/system/recording_none</title>
    <desc>Created with Sketch.</desc>
    <g id="Icon/system/recording_none" stroke="none" stroke-width="1" fill="none" fill-rule="evenodd">
        <path d="M10,2 C14.418278,2 18,5.581722 18,10 C18,14.418278 14.418278,18 10,18 C5.581722,18 2,14.418278 2,10 C2,5.581722 5.581722,2 10,2 Z M10,4 C6.6862915,4 4,6.6862915 4,10 C4,13.3137085 6.6862915,16 10,16 C13.3137085,16 16,13.3137085 16,10 C16,6.6862915 13.3137085,4 10,4 Z M12,7 C12.5522847,7 13,7.44771525 13,8 L13,12 C13,12.5522847 12.5522847,13 12,13 L8,13 C7.44771525,13 7,12.5522847 7,12 L7,8 C7,7.44771525 7.44771525,7 8,7 L12,7 Z" id="Combined-Shape" fill="#000000"></path>
    </g>
</svg>