<?xml version="1.0" encoding="UTF-8"?>
<svg width="20px" height="20px" viewBox="0 0 20 20" version="1.1" xmlns="http://www.w3.org/2000/svg" xmlns:xlink="http://www.w3.org/1999/xlink">
    <!-- Generator: Sketch 63.1 (92452) - https://sketch.com -->
    <title>Icon/system/refresh2</title>
    <desc>Created with Sketch.</desc>
    <g id="Icon/system/refresh2" stroke="none" stroke-width="1" fill="none" fill-rule="evenodd">
        <path d="M15.6336639,4.3529219 C14.0036639,2.7229219 11.6936639,1.7829219 9.1536639,2.0429219 C5.4836639,2.4129219 2.4636639,5.3929219 2.0536639,9.0629219 C1.5036639,13.9129219 5.2536639,18.0029219 9.9836639,18.0029219 C13.1736639,18.0029219 15.9136639,16.1329219 17.1936639,13.4429219 C17.5136639,12.7729219 17.0336639,12.0029219 16.2936639,12.0029219 C15.9236639,12.0029219 15.5736639,12.2029219 15.4136639,12.5329219 C14.2836639,14.9629219 11.5736639,16.5029219 8.6136639,15.8429219 C6.3936639,15.3529219 4.6036639,13.5429219 4.1336639,11.3229219 C3.2936639,7.4429219 6.2436639,4.0029219 9.9836639,4.0029219 C11.6436639,4.0029219 13.1236639,4.6929219 14.2036639,5.7829219 L12.6936639,7.2929219 C12.0636639,7.9229219 12.5036639,9.0029219 13.3936639,9.0029219 L16.9836639,9.0029219 C17.5336639,9.0029219 17.9836639,8.5529219 17.9836639,8.0029219 L17.9836639,4.4129219 C17.9836639,3.5229219 16.9036639,3.0729219 16.2736639,3.7029219 L15.6336639,4.3529219 Z" id="Path" fill="#000000"></path>
    </g>
</svg>