<?xml version="1.0" encoding="UTF-8"?>
<svg width="20px" height="20px" viewBox="0 0 20 20" version="1.1" xmlns="http://www.w3.org/2000/svg" xmlns:xlink="http://www.w3.org/1999/xlink">
    <!-- Generator: Sketch 63.1 (92452) - https://sketch.com -->
    <title>Icon/system/refresh</title>
    <desc>Created with Sketch.</desc>
    <g id="Icon/system/refresh" stroke="none" stroke-width="1" fill="none" fill-rule="evenodd">
        <path d="M7.82618026,1.00000047 C8.07164015,1.00000047 8.27578863,1.17687563 8.31812459,1.41012483 L8.32618026,1.50000047 L8.326,3.13500047 L8.33050948,3.20032127 L8.326,3.20100047 L8.32618026,6.73458919 C8.32618026,7.24742503 7.94014007,7.67009635 7.44280138,7.72786146 L7.32618026,7.73458919 C6.81334442,7.73458919 6.3906731,7.348549 6.33290799,6.85121031 L6.32618026,6.73458919 L6.32666909,4.04010982 C4.33032179,5.27316253 3,7.48122485 3,10.0000005 C3,13.4865866 5.54905115,16.37781 8.88519932,16.9117164 L8.91331496,16.9060146 L9.025,16.9 C9.59109187,16.9 10.05,17.3589081 10.05,17.925 C10.05,18.4910919 9.59109187,18.95 9.025,18.95 C8.93609455,18.95 8.84983279,18.938681 8.7675772,18.9174054 L8.98233211,18.943101 C4.49089151,18.4376372 1,14.6264895 1,10.0000005 C1,7.17258529 2.30380441,4.64968995 4.34298818,2.99973949 L2,3.00000047 C1.44771525,3.00000047 1,2.55228522 1,2.00000047 C1,1.48716463 1.38604019,1.06449331 1.88337887,1.0067282 L2,1.00000047 L7.82618026,1.00000047 Z M11.025,1.00000047 C11.1139055,1.00000047 11.2001672,1.01131948 11.2824228,1.03259505 L11.0676679,1.00689949 C15.5591085,1.51236332 19.05,5.32351096 19.05,9.95 C19.05,12.7774152 17.7461956,15.3003105 15.7070118,16.950261 L18.05,16.95 C18.6022847,16.95 19.05,17.3977153 19.05,17.95 C19.05,18.4628358 18.6639598,18.8855072 18.1666211,18.9432723 L18.05,18.95 L12.2238197,18.95 C11.9783599,18.95 11.7742114,18.7731248 11.7318754,18.5398756 L11.7238197,18.45 L11.724,16.815 L11.7194905,16.7496792 L11.724,16.749 L11.7238197,13.2154113 C11.7238197,12.7025754 12.1098599,12.2799041 12.6071986,12.222139 L12.7238197,12.2154113 C13.2366556,12.2154113 13.6593269,12.6014515 13.717092,13.0987902 L13.7238197,13.2154113 L13.7233309,15.9098907 C15.7196782,14.6768379 17.05,12.4687756 17.05,9.95 C17.05,6.46341384 14.5009488,3.57219047 11.1648007,3.03828403 L11.136685,3.04398591 L11.025,3.05000047 C10.4589081,3.05000047 10,2.59109234 10,2.02500047 C10,1.4589086 10.4589081,1.00000047 11.025,1.00000047 Z" id="Shape" fill="#000000"></path>
    </g>
</svg>