<?xml version="1.0" encoding="UTF-8"?>
<svg width="20px" height="20px" viewBox="0 0 20 20" version="1.1" xmlns="http://www.w3.org/2000/svg" xmlns:xlink="http://www.w3.org/1999/xlink">
    <!-- Generator: Sketch 63.1 (92452) - https://sketch.com -->
    <title>Icon/system/reply</title>
    <desc>Created with Sketch.</desc>
    <g id="Icon/system/reply" stroke="none" stroke-width="1" fill="none" fill-rule="evenodd">
        <rect id="Rectangle-Copy-7" x="1" y="2.5" width="16" height="16"></rect>
        <path d="M3.57655112,2.42344888 C4.08938696,2.42344888 4.51205828,2.80948907 4.56982339,3.30682776 L4.57655112,3.42344888 L4.57655112,8.42344888 C4.57655112,10.5656443 6.26051959,12.3145278 8.37691077,12.4185536 L8.57655112,12.4234489 L14.2515511,12.4234489 L11.2928932,9.46446609 C10.9302635,9.10183639 10.9043614,8.529991 11.2151869,8.13747334 L11.2928932,8.05025253 C11.6555229,7.68762283 12.2273683,7.66172071 12.619886,7.97254617 L12.7071068,8.05025253 L16.9497475,12.2928932 C17.3123772,12.6555229 17.3382793,13.2273683 17.0274538,13.619886 L16.9497475,13.7071068 L12.7071068,17.9497475 C12.3165825,18.3402718 11.6834175,18.3402718 11.2928932,17.9497475 C10.9302635,17.5871178 10.9043614,17.0152724 11.2151869,16.6227547 L11.2928932,16.5355339 L13.4035511,14.4234489 L8.57655112,14.4234489 C5.33815417,14.4234489 2.69897936,11.857874 2.58068959,8.64838715 L2.57655112,8.42344888 L2.57655112,3.42344888 C2.57655112,2.87116413 3.02426637,2.42344888 3.57655112,2.42344888 Z" id="Combined-Shape" fill="#000000"></path>
    </g>
</svg>