<?xml version="1.0" encoding="UTF-8"?>
<svg width="20px" height="20px" viewBox="0 0 20 20" version="1.1" xmlns="http://www.w3.org/2000/svg" xmlns:xlink="http://www.w3.org/1999/xlink">
    <!-- Generator: Sketch 63.1 (92452) - https://sketch.com -->
    <title>Icon/system/rocket</title>
    <desc>Created with Sketch.</desc>
    <g id="Icon/system/rocket" stroke="none" stroke-width="1" fill="none" fill-rule="evenodd">
        <path d="M18.0524233,1.43034337 C18.2970846,1.50373297 18.4895543,1.69347304 18.5664321,1.93706218 C19.782652,5.7906878 18.3796238,9.97721045 15.1164188,12.3239097 L14.8801794,12.4883728 C14.9285938,13.4007447 14.806952,14.489679 14.5149118,15.7674098 C14.0790822,17.6742469 11.8581494,18.6790513 8.00668447,18.9973147 C7.57015909,19.0333867 7.20012772,18.701427 7.17323389,18.2791664 L7.1746146,18.1619743 L7.42008127,15.3209704 L7.34494401,15.2543764 L6.5655273,14.4772539 L6.11684676,14.9266503 C5.82869924,15.2147997 5.36151982,15.2147997 5.07337231,14.9266503 C4.7852248,14.6385009 4.7852248,14.1713185 5.07337231,13.8831691 L5.52185424,13.4335741 L4.81579351,12.7280798 C4.76814695,12.6804329 4.72278509,12.631256 4.67972209,12.5806956 L1.83802031,12.8258319 C1.36196857,12.8670479 0.963334242,12.4699692 1.00268526,11.9937566 C1.32094662,8.1422668 2.32574453,5.9213197 4.2325693,5.48548721 C5.51029189,5.19344515 6.59921907,5.07180254 7.50733277,5.12773323 C9.71546139,1.84881722 13.7284805,0.325932682 17.5277701,1.28192911 L17.8053561,1.3563145 L18.0524233,1.43034337 Z M4.5111834,9.57363504 L6.45861445,6.68274762 L6.42031479,6.68604457 C5.87880362,6.73183853 5.26355094,6.83247089 4.57633871,6.98954322 C3.69889515,7.1900957 3.02011187,8.45059092 2.6780444,10.8700566 L2.63290138,11.2082828 L4.0886281,11.082426 C4.06723954,10.6268847 4.17041272,10.1642484 4.40337896,9.74869084 L4.5111834,9.57363504 Z M13.3163101,13.5404876 L10.4264356,15.4889255 C9.96815177,15.797678 9.43826961,15.9359277 8.91765442,15.9114835 L8.79091539,17.3661397 L9.13037729,17.3219448 C11.3520635,17.0078355 12.5965088,16.4098047 12.9403876,15.6347466 L12.9817054,15.5279697 L13.0108655,15.4236382 C13.1417583,14.8509576 13.2334569,14.3282493 13.2868882,13.8565444 L13.3163101,13.5404876 Z M17.2059991,2.79318915 L17.1051659,2.76668297 C14.0407994,2.01551705 10.8173595,3.1916516 8.95661819,5.74591965 L8.79125623,5.98190706 L8.69432468,6.12663225 C8.68280617,6.1750463 8.66633921,6.22312153 8.64463593,6.27024857 L8.6081178,6.34015182 L7.72418685,7.84631838 L6.94590763,9.20322807 L6.69356496,9.65452481 L6.47498389,10.0534222 C6.11643599,10.7159349 5.92739579,11.2461498 5.89321363,11.6239175 L6.61280169,12.3426196 L9.76900731,9.18750375 C10.0571548,8.89935437 10.5243342,8.89935437 10.8124818,9.18750375 C11.1006293,9.47565312 11.1006293,9.94283556 10.8124818,10.2309849 L7.65647474,13.3862994 L8.37706793,14.1071811 C8.75415915,14.0726178 9.28441837,13.883574 9.94700639,13.5249807 L10.797195,13.0540539 L11.5721908,12.6123289 L13.6602527,11.391833 C13.7284501,11.3518096 13.7993981,11.3235982 13.8711144,11.3062627 L14.0181404,11.208825 C16.643524,9.44006537 17.9146008,6.28064261 17.3076302,3.22968037 L17.2472628,2.95266067 L17.2059991,2.79318915 Z M15.2364014,4.76355556 C16.1401718,5.66733185 16.1401718,7.13264275 15.2364014,8.03641905 C14.3326309,8.94019535 12.8673295,8.94019535 11.963559,8.03641905 C11.0597885,7.13264275 11.0597885,5.66733185 11.963559,4.76355556 C12.8673295,3.85977926 14.3326309,3.85977926 15.2364014,4.76355556 Z M14.1454539,5.85451005 C13.8441971,5.55325129 13.3557633,5.55325129 13.0545065,5.85451005 C12.7532496,6.15576882 12.7532496,6.64420579 13.0545065,6.94546455 C13.3557633,7.24672332 13.8441971,7.24672332 14.1454539,6.94546455 C14.4467107,6.64420579 14.4467107,6.15576882 14.1454539,5.85451005 Z" id="Shape" fill="#000000"></path>
    </g>
</svg>