<?xml version="1.0" encoding="UTF-8"?>
<svg width="20px" height="20px" viewBox="0 0 20 20" version="1.1" xmlns="http://www.w3.org/2000/svg" xmlns:xlink="http://www.w3.org/1999/xlink">
    <!-- Generator: Sketch 63.1 (92452) - https://sketch.com -->
    <title>Icon/system/schedule</title>
    <desc>Created with Sketch.</desc>
    <g id="Icon/system/schedule" stroke="none" stroke-width="1" fill="none" fill-rule="evenodd">
        <path d="M13,1 C13.5522847,1 14,1.44771525 14,2 L14,3 L18,3 C18.5522847,3 19,3.44771525 19,4 L19,18 C19,18.5522847 18.5522847,19 18,19 L2,19 C1.44771525,19 1,18.5522847 1,18 L1,4 C1,3.44771525 1.44771525,3 2,3 L6,3 L6,2 C6,1.44771525 6.44771525,1 7,1 C7.55228475,1 8,1.44771525 8,2 L8,3 L12,3 L12,2 C12,1.44771525 12.4477153,1 13,1 Z M17,8 L3,8 L3,17 L17,17 L17,8 Z M10,13 C10.5522847,13 11,13.4477153 11,14 C11,14.5522847 10.5522847,15 10,15 C9.44771525,15 9,14.5522847 9,14 C9,13.4477153 9.44771525,13 10,13 Z M14,13 C14.5522847,13 15,13.4477153 15,14 C15,14.5522847 14.5522847,15 14,15 C13.4477153,15 13,14.5522847 13,14 C13,13.4477153 13.4477153,13 14,13 Z M6,10 C6.55228475,10 7,10.4477153 7,11 C7,11.5522847 6.55228475,12 6,12 C5.44771525,12 5,11.5522847 5,11 C5,10.4477153 5.44771525,10 6,10 Z M10,10 C10.5522847,10 11,10.4477153 11,11 C11,11.5522847 10.5522847,12 10,12 C9.44771525,12 9,11.5522847 9,11 C9,10.4477153 9.44771525,10 10,10 Z M14,10 C14.5522847,10 15,10.4477153 15,11 C15,11.5522847 14.5522847,12 14,12 C13.4477153,12 13,11.5522847 13,11 C13,10.4477153 13.4477153,10 14,10 Z M17,5 L3,5 L3,6 L17,6 L17,5 Z" id="Combined-Shape" fill="#000000"></path>
    </g>
</svg>