<?xml version="1.0" encoding="UTF-8"?>
<svg width="20px" height="20px" viewBox="0 0 20 20" version="1.1" xmlns="http://www.w3.org/2000/svg" xmlns:xlink="http://www.w3.org/1999/xlink">
    <!-- Generator: Sketch 63.1 (92452) - https://sketch.com -->
    <title>Icon/system/search</title>
    <desc>Created with Sketch.</desc>
    <g id="Icon/system/search" stroke="none" stroke-width="1" fill="none" fill-rule="evenodd">
        <path d="M8.5,1 C12.6421356,1 16,4.35786438 16,8.5 C16,10.226118 15.4168833,11.8160418 14.4368922,13.083529 L14.4588834,13.1032468 L18.7192385,17.3636018 C19.0935872,17.7379505 19.0935872,18.3448897 18.7192385,18.7192385 C18.3789214,19.0595555 17.8463809,19.0904934 17.4711141,18.8120522 L17.3636018,18.7192385 L13.1032468,14.4588834 L13.083529,14.4368922 C11.8160418,15.4168833 10.226118,16 8.5,16 C4.35786438,16 1,12.6421356 1,8.5 C1,4.35786438 4.35786438,1 8.5,1 Z M8.5,3 C5.46243388,3 3,5.46243388 3,8.5 C3,11.5375661 5.46243388,14 8.5,14 C11.5375661,14 14,11.5375661 14,8.5 C14,5.46243388 11.5375661,3 8.5,3 Z" id="Combined-Shape" fill="#000000"></path>
    </g>
</svg>