<?xml version="1.0" encoding="UTF-8"?>
<svg width="20px" height="20px" viewBox="0 0 20 20" version="1.1" xmlns="http://www.w3.org/2000/svg" xmlns:xlink="http://www.w3.org/1999/xlink">
    <!-- Generator: Sketch 63.1 (92452) - https://sketch.com -->
    <title>Icon/system/setting</title>
    <desc>Created with Sketch.</desc>
    <g id="Icon/system/setting" stroke="none" stroke-width="1" fill="none" fill-rule="evenodd">
        <g id="settings-24px" transform="translate(1.000000, 1.000000)" fill="#000000">
            <path d="M15.8766355,9.882 C15.9136455,9.594 15.9414029,9.306 15.9414029,9 C15.9414029,8.694 15.9136455,8.406 15.8766355,8.118 L17.8289086,6.633 C18.0047057,6.498 18.0509681,6.255 17.9399384,6.057 L16.0894426,2.943 C16.0061702,2.799 15.8488781,2.718 15.6823335,2.718 C15.6268186,2.718 15.5713037,2.727 15.5250413,2.745 L13.2211741,3.645 C12.7400452,3.285 12.2219063,2.988 11.6575051,2.763 L11.3059109,0.378 C11.2781535,0.162 11.0838514,0 10.8525394,0 L7.15154784,0 C6.92023586,0 6.7259338,0.162 6.69817637,0.378 C6.59291933,1.09199931 6.51397656,1.6274988 6.46134805,1.98449845 C6.43584452,2.1574988 6.39758922,2.41699931 6.34658216,2.763 C5.78218094,2.988 5.26404212,3.294 4.78291321,3.645 L2.47904594,2.745 C2.42353107,2.727 2.36801619,2.718 2.31250132,2.718 C2.15520918,2.718 1.99791703,2.799 1.91464472,2.943 L0.064148921,6.057 C-0.0561333061,6.255 -0.000618432059,6.498 0.175178669,6.633 L2.12745174,8.118 C2.09044182,8.406 2.06268439,8.703 2.06268439,9 C2.06268439,9.297 2.09044182,9.594 2.12745174,9.882 L0.175178669,11.367 C-0.000618432059,11.502 -0.0468808271,11.745 0.064148921,11.943 L1.91464472,15.057 C1.99791703,15.201 2.15520918,15.282 2.3217538,15.282 C2.37726867,15.282 2.43278355,15.273 2.47904594,15.255 L4.78291321,14.355 C5.26404212,14.715 5.78218094,15.012 6.34658216,15.237 L6.69817637,17.622 C6.7259338,17.838 6.92023586,18 7.15154784,18 L10.8525394,18 C11.0838514,18 11.2781535,17.838 11.3059109,17.622 L11.6575051,15.237 C12.2219063,15.012 12.7400452,14.706 13.2211741,14.355 L15.5250413,15.255 C15.5805562,15.273 15.6360711,15.282 15.691586,15.282 C15.8488781,15.282 16.0061702,15.201 16.0894426,15.057 L17.9399384,11.943 C18.0509681,11.745 18.0047057,11.502 17.8289086,11.367 L15.8766355,9.882 Z M14.2403846,8.36125 C14.2788462,8.6325 14.2884615,8.81625 14.2884615,9 C14.2884615,9.18375 14.2692308,9.37625 14.2403846,9.63875 L14.1057692,10.6275 L14.9615385,11.24 L16,11.975 L15.3269231,13.03375 L14.1057692,12.5875 L13.1057692,12.22 L12.2403846,12.815 C11.8269231,13.095 11.4326923,13.305 11.0384615,13.45375 L10.0192308,13.83 L9.86538462,14.81875 L9.67307692,16 L8.32692308,16 L8.14423077,14.81875 L7.99038462,13.83 L6.97115385,13.45375 C6.55769231,13.29625 6.17307692,13.095 5.78846154,12.8325 L4.91346154,12.22 L3.89423077,12.59625 L2.67307692,13.0425 L2,11.98375 L3.03846154,11.24875 L3.89423077,10.63625 L3.75961538,9.6475 C3.73076923,9.37625 3.71153846,9.175 3.71153846,9 C3.71153846,8.825 3.73076923,8.62375 3.75961538,8.36125 L3.89423077,7.3725 L3.03846154,6.76 L2,6.025 L2.67307692,4.96625 L3.89423077,5.4125 L4.89423077,5.78 L5.75961538,5.185 C6.17307692,4.905 6.56730769,4.695 6.96153846,4.54625 L7.98076923,4.17 L8.13461538,3.18125 L8.32692308,2 L9.66346154,2 L9.84615385,3.18125 L10,4.17 L11.0192308,4.54625 C11.4326923,4.70375 11.8173077,4.905 12.2019231,5.1675 L13.0769231,5.78 L14.0961538,5.40375 L15.3173077,4.9575 L15.9903846,6.01625 L14.9615385,6.76 L14.1057692,7.3725 L14.2403846,8.36125 Z M8.99726027,5.5 C6.98214897,5.5 5.35,7.06625 5.35,9 C5.35,10.93375 6.98214897,12.5 8.99726027,12.5 C11.0123716,12.5 12.6445205,10.93375 12.6445205,9 C12.6445205,7.06625 11.0123716,5.5 8.99726027,5.5 Z M9,11 C7.9,11 7,10.1 7,9 C7,7.9 7.9,7 9,7 C10.1,7 11,7.9 11,9 C11,10.1 10.1,11 9,11 Z" id="Shape"></path>
        </g>
    </g>
</svg>