<?xml version="1.0" encoding="UTF-8"?>
<svg width="20px" height="20px" viewBox="0 0 20 20" version="1.1" xmlns="http://www.w3.org/2000/svg" xmlns:xlink="http://www.w3.org/1999/xlink">
    <!-- Generator: Sketch 63.1 (92452) - https://sketch.com -->
    <title>Icon/system/share</title>
    <desc>Created with Sketch.</desc>
    <g id="Icon/system/share" stroke="none" stroke-width="1" fill="none" fill-rule="evenodd">
        <path d="M11,2 L11,3.999 L3,4 L3,17 L16,17 L16,9.999 L18,9.999 L18,17.1111111 C18,18.1543156 17.1543156,19 16.1111111,19 L2.88888889,19 C1.84568436,19 1,18.1543156 1,17.1111111 L1,3.88888889 C1,2.84568436 1.84568436,2 2.88888889,2 L11,2 Z M18.0090784,1 C18.5613631,1 19.0090784,1.44771525 19.0090784,2 L19.0090784,7.15341653 C19.0090784,7.70570128 18.5613631,8.15341653 18.0090784,8.15341653 L17.9652451,8.15341653 C17.4129603,8.15341653 16.9652451,7.70570128 16.9652451,7.15341653 L16.9660784,4.489 L7.73810222,13.716185 C7.34757793,14.1067093 6.71441251,14.1067093 6.32388822,13.716185 L6.29289322,13.68519 C5.90236893,13.2946657 5.90236893,12.6615013 6.29289322,12.270977 L15.5210784,3.044 L12.8556619,3.04383329 C12.3033771,3.04383329 11.8556619,2.59611804 11.8556619,2.04383329 L11.8556619,2 C11.8556619,1.44771525 12.3033771,1 12.8556619,1 L18.0090784,1 Z" id="Combined-Shape" fill="#000000"></path>
    </g>
</svg>