<?xml version="1.0" encoding="UTF-8"?>
<svg width="20px" height="20px" viewBox="0 0 20 20" version="1.1" xmlns="http://www.w3.org/2000/svg" xmlns:xlink="http://www.w3.org/1999/xlink">
    <!-- Generator: Sketch 63.1 (92452) - https://sketch.com -->
    <title>Icon/system/slideshow</title>
    <desc>Created with Sketch.</desc>
    <g id="Icon/system/slideshow" stroke="none" stroke-width="1" fill="none" fill-rule="evenodd">
        <g transform="translate(1.000000, 2.000000)">
            <polygon id="Path" points="1 0 19 0 19 18 1 18"></polygon>
            <path d="M7.05087957,11.0198376 L7.05087957,4.98016542 C7.05087957,4.84209424 7.16280838,4.73016542 7.30087957,4.73016542 C7.35217259,4.73016542 7.40222427,4.74594282 7.44424515,4.77535744 L11.7582967,7.79519355 C11.8714091,7.87437218 11.8989178,8.0302548 11.8197391,8.14336712 C11.8030019,8.16727745 11.7822071,8.18807228 11.7582967,8.20480951 L7.44424515,11.2246456 C7.33113283,11.3038242 7.17525021,11.2763156 7.09607159,11.1632032 C7.06665697,11.1211823 7.05087957,11.0711307 7.05087957,11.0198376 Z M16,0.5 L2,0.5 C0.9,0.5 0,1.25 0,2.16666667 L0,13.8333333 C0,14.75 0.9,15.5 2,15.5 L16,15.5 C17.1,15.5 18,14.75 18,13.8333333 L18,2.16666667 C18,1.25 17.1,0.5 16,0.5 Z M16,13.5 L2,13.5 L2,2.5 L16,2.5 L16,13.5 Z" id="Shape" fill="#000000"></path>
        </g>
    </g>
</svg>