<?xml version="1.0" encoding="UTF-8"?>
<svg width="20px" height="20px" viewBox="0 0 20 20" version="1.1" xmlns="http://www.w3.org/2000/svg" xmlns:xlink="http://www.w3.org/1999/xlink">
    <!-- Generator: Sketch 63.1 (92452) - https://sketch.com -->
    <title>Icon/system/space</title>
    <desc>Created with Sketch.</desc>
    <g id="Icon/system/space" stroke="none" stroke-width="1" fill="none" fill-rule="evenodd">
        <path d="M18.3302439,1.15989486 C19.1016999,1.56220711 19.1297773,2.30402912 18.8009497,3.09300158 C18.1930588,4.55154454 17.5817953,5.73405954 16.5060482,7.2510173 C16.739757,7.9694937 16.8672003,8.73495105 16.8672003,9.52993822 C16.8672003,13.5822361 13.5558925,16.8672726 9.4711873,16.8672726 C8.61880818,16.8672726 7.80010711,16.7242238 7.03814584,16.4610049 L6.72478816,16.6934387 C3.85425855,18.7962486 2.4415751,19.4616407 1.50110376,18.6880767 C0.457861504,17.8299808 1.06082416,16.3977716 3.14863627,13.3415022 C2.46787602,12.2299657 2.07517431,10.9254483 2.07517431,9.52993822 C2.07517431,5.47764031 5.38648212,2.1926038 9.4711873,2.1926038 C10.8179022,2.1926038 12.0805488,2.54968757 13.1681731,3.17362286 L13.3580888,3.05010101 C14.7448906,2.15821314 15.8388565,1.54606949 16.6176575,1.24556541 C17.3097518,0.978517534 17.8300686,0.899054786 18.3302439,1.15989486 Z M4.45887749,14.9253851 L4.41559125,14.9910913 C4.11795229,15.4457245 3.86560776,15.8526311 3.65890655,16.2108062 L3.49816721,16.4955144 L3.50865522,16.4898735 C3.95154613,16.2275614 4.48054647,15.8793575 5.09351841,15.4461203 C4.87264876,15.2834131 4.66057788,15.1098942 4.45887749,14.9253851 Z M9.49134039,14.5561965 L9.07292702,14.8963649 C9.2044355,14.9058333 9.33724439,14.9106501 9.4711873,14.9106501 C12.4666378,14.9106501 14.8949302,12.5016233 14.8949302,9.52993822 L14.8915066,9.32852147 C13.4471202,11.0303693 11.6630499,12.7745614 9.49134039,14.5561965 Z M9.4711873,4.14922631 C6.47573683,4.14922631 4.04744444,6.55825309 4.04744444,9.52993822 C4.04744444,11.5294888 5.1468557,13.2742954 6.77869982,14.2018778 L6.32840712,14.54362 C9.82252759,11.9176167 12.4068411,9.39469638 14.2533952,6.9916563 C13.340389,5.2996803 11.541214,4.14922631 9.4711873,4.14922631 Z M16.4747185,3.47223492 L16.3243999,3.55364776 C15.8895907,3.79005335 15.3817384,4.09101293 14.8094251,4.45121967 C15.0516128,4.70196734 15.2765335,4.9700561 15.481624,5.25323094 C15.8104417,4.73879808 16.0837029,4.25645927 16.3312001,3.76607772 L16.4747185,3.47223492 Z" id="Combined-Shape" fill="#000000"></path>
        <circle id="Oval" fill="#000000" opacity="0.400000006" cx="7.5" cy="7.5" r="1.5"></circle>
        <circle id="Oval" fill="#000000" opacity="0.400000006" cx="10" cy="6" r="1"></circle>
    </g>
</svg>