<?xml version="1.0" encoding="UTF-8"?>
<svg width="20px" height="20px" viewBox="0 0 20 20" version="1.1" xmlns="http://www.w3.org/2000/svg" xmlns:xlink="http://www.w3.org/1999/xlink">
    <!-- Generator: Sketch 63.1 (92452) - https://sketch.com -->
    <title>Icon/system/star_line</title>
    <desc>Created with Sketch.</desc>
    <g id="Icon/system/star_line" stroke="none" stroke-width="1" fill="none" fill-rule="evenodd">
        <path d="M6.24,5.42 L3.341,6.235 L3.26298615,6.24821971 C-1.11888276e-12,6.87328346 -1.04272146e-12,9.43524079 1.98370764,11.1322512 L4.059,12.91 L3.43960853,15.5398687 L3.40685654,15.6974145 C2.63046768,20 5.27175284,20 7.63173619,18.5884157 L9.998,17.179 L12.3688185,18.5968315 L12.5082686,18.6753714 C15.0124479,20 17.6080934,20 16.5606081,15.5488724 L15.94,12.917 L18.0169973,11.1397319 L18.1423384,11.0264062 C20,9.2506964 20,6.88136538 16.7370139,6.25630376 L16.658,6.243 L13.759,5.429 L12.5907297,2.70288785 C11.4426752,-2.52520227e-12 8.55732727,-2.51509924e-12 7.40657303,2.70920785 L6.24,5.42 Z M9.24739604,3.49110979 C9.50917133,2.87481515 10.3651494,2.83856253 10.6968308,3.38235191 L10.752604,3.49110979 L12.2987143,7.09662365 L16.249885,8.20585001 C16.9318786,8.25946043 17.2320862,9.06039213 16.7957718,9.5432254 L16.7161723,9.62056957 L13.7139369,12.1913171 L14.6137895,16.0070179 C14.7696081,16.6691451 14.0869741,17.1992869 13.4845461,16.9270406 L13.3948983,16.880102 L10,14.8509899 L6.60510171,16.8720178 C6.01299094,17.2261789 5.29474127,16.7444319 5.36901128,16.0971792 L5.38621052,15.9989338 L6.28606308,12.183233 L3.28382772,9.61248546 C2.76458265,9.16828479 3.00156724,8.34679571 3.64004525,8.21343792 L3.75011495,8.1977659 L7.70128574,7.08853953 L9.24739604,3.49110979 Z" id="Path" fill="#000000"></path>
    </g>
</svg>