<?xml version="1.0" encoding="UTF-8"?>
<svg width="20px" height="20px" viewBox="0 0 20 20" version="1.1" xmlns="http://www.w3.org/2000/svg" xmlns:xlink="http://www.w3.org/1999/xlink">
    <!-- Generator: Sketch 63.1 (92452) - https://sketch.com -->
    <title>Icon/system/subtitle</title>
    <desc>Created with Sketch.</desc>
    <g id="Icon/system/subtitle" stroke="none" stroke-width="1" fill="none" fill-rule="evenodd">
        <path d="M17.2,2 L2.8,2 C1.81,2 1,2.9 1,4 L1,16 C1,17.1 1.81,18 2.8,18 L17.2,18 C18.19,18 19,17.1 19,16 L19,4 C19,2.9 18.19,2 17.2,2 Z M17,16 L3,16 L3,4 L17,4 L17,16 Z M5,8 L7,8 L7,10 L5,10 L5,8 Z M5,12 L11,12 L11,14 L5,14 L5,12 Z M13,12 L15,12 L15,14 L13,14 L13,12 Z M9,8 L15,8 L15,10 L9,10 L9,8 Z" id="Shape" fill="#000000" fill-rule="nonzero"></path>
    </g>
</svg>