<?xml version="1.0" encoding="UTF-8"?>
<svg width="20px" height="20px" viewBox="0 0 20 20" version="1.1" xmlns="http://www.w3.org/2000/svg" xmlns:xlink="http://www.w3.org/1999/xlink">
    <!-- Generator: Sketch 63.1 (92452) - https://sketch.com -->
    <title>Icon/system/tag</title>
    <desc>Created with Sketch.</desc>
    <g id="Icon/system/tag" stroke="none" stroke-width="1" fill="none" fill-rule="evenodd">
        <path d="M9.25661411,1.00074646 L15.2257839,1.23974807 C15.938545,1.26919481 16.5453679,1.87289763 16.5740999,2.58806415 L16.813751,8.5532031 C16.8245397,8.90252886 16.7042534,9.22062458 16.4710217,9.4538563 L16.2094751,9.714 L16.21005,12.6903498 C16.2213991,13.5454257 15.8043524,13.8449615 15.5670493,14.0737698 L15.5191714,14.1218943 L10.0106081,19.6093089 C9.54658771,20.1014907 8.77232136,20.0834719 8.28610575,19.5691763 L8.28610575,19.5691763 L1.91528974,13.1731645 C1.42907413,12.6588688 1.41098911,11.8387761 1.87500948,11.3465943 L1.87500948,11.3465943 L3.16947508,9.945 L2.41636224,9.19185043 C1.89140658,8.66689476 1.85836477,7.84445326 2.34276913,7.36004891 L8.3599917,1.34282634 C8.59322342,1.10959461 8.91131914,0.989308278 9.25661411,1.00074646 Z M4.26047508,11.036 L3.02365046,12.2861419 L9.12199782,18.3939493 L14.3010438,13.0642755 L14.3004751,11.623 L10.4537991,15.4710789 C9.96939474,15.9554832 9.14695324,15.9224414 8.62199757,15.3974858 L4.26047508,11.036 Z M9.40361522,2.49877551 L3.5782823,8.32410843 L9.48973958,14.2355657 L15.3150725,8.41023278 L15.0875637,2.72712965 L9.40361522,2.49877551 Z M12.3435348,4.00000003 C12.8958195,4.00000003 13.3435348,4.44771528 13.3435348,5.00000003 C13.3435348,5.55228478 12.8958195,6.00000003 12.3435348,6.00000003 C11.79125,6.00000003 11.3435348,5.55228478 11.3435348,5.00000003 C11.3435348,4.44771528 11.79125,4.00000003 12.3435348,4.00000003 Z" id="Combined-Shape" fill="#000000"></path>
    </g>
</svg>