<?xml version="1.0" encoding="UTF-8"?>
<svg width="20px" height="20px" viewBox="0 0 20 20" version="1.1" xmlns="http://www.w3.org/2000/svg" xmlns:xlink="http://www.w3.org/1999/xlink">
    <!-- Generator: Sketch 63.1 (92452) - https://sketch.com -->
    <title>Icon/system/thumbnail</title>
    <desc>Created with Sketch.</desc>
    <g id="Icon/system/thumbnail" stroke="none" stroke-width="1" fill="none" fill-rule="evenodd">
        <path d="M8,11 C8.55228475,11 9,11.4477153 9,12 L9,17 C9,17.5522847 8.55228475,18 8,18 L3,18 C2.44771525,18 2,17.5522847 2,17 L2,12 C2,11.4477153 2.44771525,11 3,11 L8,11 Z M17,11 C17.5522847,11 18,11.4477153 18,12 L18,17 C18,17.5522847 17.5522847,18 17,18 L12,18 C11.4477153,18 11,17.5522847 11,17 L11,12 C11,11.4477153 11.4477153,11 12,11 L17,11 Z M7,13 L4,13 L4,16 L7,16 L7,13 Z M16,13 L13,13 L13,16 L16,16 L16,13 Z M8,2 C8.55228475,2 9,2.44771525 9,3 L9,8 C9,8.55228475 8.55228475,9 8,9 L3,9 C2.44771525,9 2,8.55228475 2,8 L2,3 C2,2.44771525 2.44771525,2 3,2 L8,2 Z M17,2 C17.5522847,2 18,2.44771525 18,3 L18,8 C18,8.55228475 17.5522847,9 17,9 L12,9 C11.4477153,9 11,8.55228475 11,8 L11,3 C11,2.44771525 11.4477153,2 12,2 L17,2 Z M7,4 L4,4 L4,7 L7,7 L7,4 Z M16,4 L13,4 L13,7 L16,7 L16,4 Z" id="Shape" fill="#000000"></path>
    </g>
</svg>