<?xml version="1.0" encoding="UTF-8"?>
<svg width="20px" height="20px" viewBox="0 0 20 20" version="1.1" xmlns="http://www.w3.org/2000/svg" xmlns:xlink="http://www.w3.org/1999/xlink">
    <!-- Generator: Sketch 63.1 (92452) - https://sketch.com -->
    <title>Icon/system/undo</title>
    <desc>Created with Sketch.</desc>
    <g id="Icon/system/undo" stroke="none" stroke-width="1" fill="none" fill-rule="evenodd">
        <path d="M7.6582413,13.2309553 C8.04202329,13.5658669 8.10762041,14.1288635 7.82950997,14.5398623 L7.75280701,14.6392254 C7.41723474,15.0222518 6.85312746,15.0877198 6.44131785,14.8101569 L6.3417587,14.733605 L1.3417587,10.3703 C0.890548015,9.97654605 0.89062564,9.28754014 1.31523011,8.89138865 L1.4127049,8.81119584 L6.4127049,5.19025166 C6.85970919,4.86653614 7.48501875,4.96576799 7.80937288,5.4118922 C8.10877669,5.82369916 8.04708837,6.38713574 7.68424526,6.72599259 L7.5872951,6.80581034 L4.57198882,8.988061 L13.6915194,8.98838199 C17.1531694,8.99138862 19,11.1408422 19,15.0018974 C19,15.5530948 18.5522847,15.9999286 18,15.9999286 C17.4477153,15.9999286 17,15.5530948 17,15.0018974 C17,12.2661231 16.0351739,11.0602976 13.8947632,10.987921 L13.6906492,10.9844443 L5.08398882,10.9841233 L7.6582413,13.2309553 Z" id="Path" fill="#000000"></path>
    </g>
</svg>