<?xml version="1.0" encoding="UTF-8"?>
<svg width="20px" height="20px" viewBox="0 0 20 20" version="1.1" xmlns="http://www.w3.org/2000/svg" xmlns:xlink="http://www.w3.org/1999/xlink">
    <!-- Generator: Sketch 63.1 (92452) - https://sketch.com -->
    <title>Icon/system/update</title>
    <desc>Created with Sketch.</desc>
    <g id="Icon/system/update" stroke="none" stroke-width="1" fill="none" fill-rule="evenodd">
        <path d="M15,11.5 L12,11.5 L12,15.5 L8,15.5 L8,11.5 L5,11.5 L10,6.5 L15,11.5 Z M16,3 L12.82,3 C12.4,1.84 11.3,1 10,1 C8.7,1 7.6,1.84 7.18,3 L4,3 C3.86,3 3.73,3.01 3.6,3.04 C3.21,3.12 2.86,3.32 2.59,3.59 C2.41,3.77 2.26,3.99 2.16,4.23 C2.06,4.46 2,4.72 2,5 L2,17 C2,17.27 2.06,17.54 2.16,17.78 C2.26,18.02 2.41,18.23 2.59,18.42 C2.86,18.69 3.21,18.89 3.6,18.97 C3.73,18.99 3.86,19 4,19 L16,19 C17.1,19 18,18.1 18,17 L18,5 C18,3.9 17.1,3 16,3 Z M10,2.75 C10.41,2.75 10.75,3.09 10.75,3.5 C10.75,3.91 10.41,4.25 10,4.25 C9.59,4.25 9.25,3.91 9.25,3.5 C9.25,3.09 9.59,2.75 10,2.75 Z M16,17 L4,17 L4,5 L16,5 L16,17 Z" id="Shape" fill="#000000"></path>
    </g>
</svg>