<?xml version="1.0" encoding="UTF-8"?>
<svg width="20px" height="20px" viewBox="0 0 20 20" version="1.1" xmlns="http://www.w3.org/2000/svg" xmlns:xlink="http://www.w3.org/1999/xlink">
    <!-- Generator: Sketch 63.1 (92452) - https://sketch.com -->
    <title>Icon/system/upload</title>
    <desc>Created with Sketch.</desc>
    <g id="Icon/system/upload" stroke="none" stroke-width="1" fill="none" fill-rule="evenodd">
        <path d="M16,16.1956871 C16.5522847,16.1956871 17,16.6434023 17,17.1956871 C17,17.7479718 16.5522847,18.1956871 16,18.1956871 L4,18.1956871 C3.44771525,18.1956871 3,17.7479718 3,17.1956871 C3,16.6434023 3.44771525,16.1956871 4,16.1956871 L16,16.1956871 Z M9.24254637,3.22774764 C9.6058466,2.92797724 10.1317727,2.92413403 10.4992428,3.21621801 L10.595292,3.30321432 L15.473304,8.32469725 L15.5497383,8.41303497 C15.8294177,8.77693393 15.8239984,9.28740196 15.5378175,9.64519312 L15.4528103,9.73876232 L15.3644726,9.81519659 C15.0005737,10.0948759 14.4901056,10.0894567 14.1323145,9.80327575 L14.0387453,9.71826862 L10.898,6.48768706 L10.8986442,14.1956871 C10.8986442,14.7479718 10.450929,15.1956871 9.89864423,15.1956871 C9.38580839,15.1956871 8.96313707,14.8096469 8.90537196,14.3123082 L8.89864423,14.1956871 L8.898,6.44468706 L5.71728004,9.71826862 L5.63119445,9.79723076 C5.24322225,10.1137116 4.67106155,10.096099 4.30321497,9.73876232 C3.93754501,9.38354007 3.90159851,8.81677041 4.20090659,8.42010021 L4.28272128,8.32469725 L9.16073328,3.30321432 L9.24254637,3.22774764 Z" id="Shape" fill="#000000"></path>
    </g>
</svg>