<?xml version="1.0" encoding="UTF-8"?>
<svg width="20px" height="20px" viewBox="0 0 20 20" version="1.1" xmlns="http://www.w3.org/2000/svg" xmlns:xlink="http://www.w3.org/1999/xlink">
    <!-- Generator: Sketch 63.1 (92452) - https://sketch.com -->
    <title>Icon/system/video</title>
    <desc>Created with Sketch.</desc>
    <g id="Icon/system/video" stroke="none" stroke-width="1" fill="none" fill-rule="evenodd">
        <path d="M12.9166667,4 C13.5149751,4 14,4.48841664 14,5.09090909 L14,7.388 L17.7298976,4.99435118 C17.9622806,4.84517772 18.2715933,4.91263244 18.4207668,5.14501551 C18.472499,5.22560417 18.5,5.31935388 18.5,5.41511794 L18.5,14.5848821 C18.5,14.8610244 18.2761424,15.0848821 18,15.0848821 C17.9042359,15.0848821 17.8104862,15.057381 17.7298976,15.0056488 L14,12.611 L14,14.9090909 C14,15.5115834 13.5149751,16 12.9166667,16 L2.08333333,16 C1.48502485,16 1,15.5115834 1,14.9090909 L1,5.09090909 C1,4.48841664 1.48502485,4 2.08333333,4 L12.9166667,4 Z M11.8333333,6.18181818 L3.16666667,6.18181818 L3.16666667,13.8181818 L11.8333333,13.8181818 L11.8333333,6.18181818 Z" id="Combined-Shape" fill="#000000"></path>
    </g>
</svg>