<?xml version="1.0" encoding="UTF-8"?>
<svg width="20px" height="20px" viewBox="0 0 20 20" version="1.1" xmlns="http://www.w3.org/2000/svg" xmlns:xlink="http://www.w3.org/1999/xlink">
    <!-- Generator: Sketch 63.1 (92452) - https://sketch.com -->
    <title>Icon/system/video_share</title>
    <desc>Created with Sketch.</desc>
    <g id="Icon/system/video_share" stroke="none" stroke-width="1" fill="none" fill-rule="evenodd">
        <path d="M2,13 L2,4 C2,2.8954305 2.8954305,2 4,2 L16,2 C17.1045695,2 18,2.8954305 18,4 L18,13 C18,14.1045695 17.1045695,15 16,15 L18,15 C18.5522847,15 19,15.4477153 19,16 C19,16.5522847 18.5522847,17 18,17 L2,17 C1.44771525,17 1,16.5522847 1,16 C1,15.4477153 1.44771525,15 2,15 L4,15 C2.8954305,15 2,14.1045695 2,13 Z M16,4 L4,4 L4,13 L16,13 L16,4 Z M10.3921321,5.36055976 L10.4822424,5.42559397 L13.4822424,7.94424292 C13.8110707,8.22031059 13.8367694,8.70769206 13.5607673,9.01694512 L13.4780148,9.09657786 L10.4780148,11.5779289 C10.1588335,11.8419292 9.6860714,11.7971962 9.42207109,11.4780148 C9.18207082,11.18785 9.19722208,10.7707589 9.44176598,10.4989749 L9.52198517,10.4220711 L10.936,9.25 L6.5,9.25 C6.08578644,9.25 5.75,8.91421356 5.75,8.5 C5.75,8.12030423 6.03215388,7.80650904 6.39822944,7.75684662 L6.5,7.75 L10.917,7.75 L9.51775762,6.57440603 C9.22936154,6.3322832 9.169042,5.9192988 9.36055976,5.60786788 L9.42559397,5.51775762 C9.6677168,5.22936154 10.0807012,5.169042 10.3921321,5.36055976 Z" id="Combined-Shape" fill="#ffffff"></path>
    </g>
</svg>