<?xml version="1.0" encoding="UTF-8"?>
<svg width="20px" height="20px" viewBox="0 0 20 20" version="1.1" xmlns="http://www.w3.org/2000/svg" xmlns:xlink="http://www.w3.org/1999/xlink">
    <!-- Generator: Sketch 63.1 (92452) - https://sketch.com -->
    <title>Icon/system/video_end</title>
    <desc>Created with Sketch.</desc>
    <g id="Icon/system/video_end" stroke="none" stroke-width="1" fill="none" fill-rule="evenodd">
        <g id="input-24px">
            <g id="Group">
                <polygon id="Path" points="0 0 20 0 20 20 0 20"></polygon>
                <polygon id="Path" opacity="0.87" points="0 0 20 0 20 20 0 20"></polygon>
            </g>
        </g>
        <path d="M17.2179305,2 C17.7702152,2 18.2179305,2.44771525 18.2179305,3 L18.2179305,17 C18.2179305,17.5522847 17.7702152,18 17.2179305,18 L3,18 C2.44771525,18 2,17.5522847 2,17 L2,14 C2,13.4477153 2.44771525,13 3,13 C3.55228475,13 4,13.4477153 4,14 L4,16 L16.2179305,16 L16.2179305,4 L4,4 L4,6 C4,6.55228475 3.55228475,7 3,7 C2.44771525,7 2,6.55228475 2,6 L2,3 C2,2.44771525 2.44771525,2 3,2 L17.2179305,2 Z M8.81880571,5.86050808 L12.2855832,9.3272856 C12.6571131,9.6988155 12.6571131,10.3011845 12.2855832,10.6727144 L8.81880563,14.139492 C8.44727571,14.5110219 7.84490671,14.5110219 7.47337681,14.139492 L7.44388952,14.1100047 C7.07235962,13.7384748 7.07235962,13.1361058 7.44388953,12.7645759 L9.23684151,10.9727451 L3.00764611,10.9722129 C2.48222347,10.9722129 2.05628398,10.5462734 2.05628398,10.0208508 L2.05628398,9.97914921 C2.05628399,9.45372658 2.48222282,9.02778775 3.00764546,9.02778774 L9.23684153,9.02860043 L7.44388959,7.2354242 C7.07235969,6.86389429 7.07235969,6.2615253 7.44388961,5.88999538 L7.47337689,5.86050809 C7.84490681,5.48897818 8.44727581,5.48897817 8.81880571,5.86050808 Z" id="Combined-Shape" fill="#000000"></path>
    </g>
</svg>