<?xml version="1.0" encoding="UTF-8"?>
<svg width="20px" height="20px" viewBox="0 0 20 20" version="1.1" xmlns="http://www.w3.org/2000/svg" xmlns:xlink="http://www.w3.org/1999/xlink">
    <!-- Generator: Sketch 63.1 (92452) - https://sketch.com -->
    <title>Icon/system/view_more</title>
    <desc>Created with Sketch.</desc>
    <g transform="rotate(-45)" id="Icon/system/view_more" stroke="none" stroke-width="1" fill="none" fill-rule="evenodd">
        <path d="M10,14 C10.6875,14 11.25,14.5625 11.25,15.25 C11.25,15.9375 10.6875,16.5 10,16.5 C9.3125,16.5 8.75,15.9375 8.75,15.25 C8.75,14.5625 9.3125,14 10,14 Z M10,9 C10.6875,9 11.25,9.5625 11.25,10.25 C11.25,10.9375 10.6875,11.5 10,11.5 C9.3125,11.5 8.75,10.9375 8.75,10.25 C8.75,9.5625 9.3125,9 10,9 Z M10,4 C10.6875,4 11.25,4.5625 11.25,5.25 C11.25,5.9375 10.6875,6.5 10,6.5 C9.3125,6.5 8.75,5.9375 8.75,5.25 C8.75,4.5625 9.3125,4 10,4 Z" id="Combined-Shape" fill="#ffffff"></path>
    </g>
</svg>