<?xml version="1.0" encoding="UTF-8"?>
<svg width="20px" height="20px" viewBox="0 0 20 20" version="1.1" xmlns="http://www.w3.org/2000/svg" xmlns:xlink="http://www.w3.org/1999/xlink">
    <!-- Generator: Sketch 63.1 (92452) - https://sketch.com -->
    <title>Icon/system/view_change</title>
    <desc>Created with Sketch.</desc>
    <g id="Icon/system/view_change" stroke="none" stroke-width="1" fill="none" fill-rule="evenodd">
        <path d="M19,15 C19,16.1045695 18.1045695,17 17,17 L3,17 C1.8954305,17 1,16.1045695 1,15 L1,5 C1,3.8954305 1.8954305,3 3,3 L17,3 C18.1045695,3 19,3.8954305 19,5 L19,15 Z M6,13 L3,13 L3,15 L6,15 L6,13 Z M12,13 L8,13 L8,15 L12,15 L12,13 Z M17,13 L14,13 L14,15 L17,15 L17,13 Z M6,9 L3,9 L3,11 L6,11 L6,9 Z M12,9 L8,9 L8,11 L12,11 L12,9 Z M17,9 L14,9 L14,11 L17,11 L17,9 Z M6,5 L3,5 L3,7 L6,7 L6,5 Z M12,5 L8,5 L8,7 L12,7 L12,5 Z M17,5 L14,5 L14,7 L17,7 L17,5 Z" id="Combined-Shape" fill="#000000" fill-rule="nonzero"></path>
    </g>
</svg>