<?xml version="1.0" encoding="UTF-8"?>
<svg width="20px" height="20px" viewBox="0 0 20 20" version="1.1" xmlns="http://www.w3.org/2000/svg" xmlns:xlink="http://www.w3.org/1999/xlink">
    <!-- Generator: Sketch 63.1 (92452) - https://sketch.com -->
    <title>Icon/system/view</title>
    <desc>Created with Sketch.</desc>
    <g id="Icon/system/view" stroke="none" stroke-width="1" fill="none" fill-rule="evenodd">
        <path d="M9.29225562,2.15805773 C9.69139069,1.97073005 10.1445764,1.94991586 10.5557228,2.09561517 L10.7077444,2.15805773 L17.367074,5.28350779 C18.3040348,5.72325539 18.923772,6.64595919 18.9934402,7.68177117 L19,7.8772211 L19,15.1428571 C19,16.6623707 17.8323476,17.9048356 16.3588297,17.9947857 L16.1875,18 L3.8125,18 C2.3167288,18 1.09367744,16.8138134 1.00513286,15.3169063 L1,15.1428571 L1,7.8772211 C1,6.82871532 1.5646219,5.87020222 2.4610202,5.37152981 L2.63292604,5.28350779 L9.29225562,2.15805773 Z M10,3.71428571 L3.34067042,6.83973578 C2.98228291,7.00793924 2.73992488,7.35279147 2.69503715,7.74493319 L2.6875,7.8772211 L2.6875,15.1428571 C2.6875,15.7319609 3.12626095,16.2169599 3.68991886,16.2790082 L3.8125,16.2857143 L16.1875,16.2857143 C16.767399,16.2857143 17.2448199,15.8399889 17.3058987,15.267384 L17.3125,15.1428571 L17.3125,7.8772211 C17.3125,7.47616764 17.1059807,7.10803041 16.774383,6.9021687 L16.6593296,6.83973578 L10,3.71428571 Z M14.8940654,8.72170707 C15.2413122,8.55952972 15.6611095,8.67851737 15.8744736,9.01721797 C16.0896158,9.35874107 16.0201892,9.80510374 15.7275666,10.0627012 L15.6422728,10.1280544 L13.051,11.848 L15.6438831,13.5487905 C16.0062486,13.7864097 16.1090214,14.2753253 15.8734325,14.6408139 C15.6592609,14.9730762 15.2391809,15.0889501 14.8923222,14.9287452 L14.7907403,14.8723417 L11.2991913,12.5830032 L11.244467,12.5558358 L11.244467,12.5558358 L11.1914384,12.5240535 L9.9926933,11.7405967 L9.774,11.878 L5.20925966,14.8723417 C4.87983644,15.0883592 4.44927912,15.022329 4.19671708,14.7339412 L4.12656746,14.6408139 C3.91239577,14.3085515 3.97786183,13.8742834 4.26378535,13.6195447 L4.35611695,13.5487905 L6.929,11.861 L4.35331362,10.1251062 L4.26128266,10.052691 C4.00492527,9.81822775 3.92775301,9.43654795 4.07203824,9.11672296 L4.12839343,9.01269234 L4.19893703,8.91821973 C4.4273406,8.65506099 4.79915588,8.5758413 5.11071497,8.72395452 L5.21205692,8.78180486 L8.34819647,10.8943911 L9.58888803,10.1080455 L9.68759301,10.0550329 C9.89027459,9.96440241 10.1213581,9.96611704 10.3227422,10.0597457 L10.4206903,10.1142175 L11.6090166,10.8922488 L14.7923468,8.77885668 L14.8940654,8.72170707 Z" id="Shape" fill="#000000"></path>
    </g>
</svg>