<?xml version="1.0" encoding="UTF-8"?>
<svg width="20px" height="20px" viewBox="0 0 20 20" version="1.1" xmlns="http://www.w3.org/2000/svg" xmlns:xlink="http://www.w3.org/1999/xlink">
    <!-- Generator: Sketch 63.1 (92452) - https://sketch.com -->
    <title>Icon/system/write_to_me</title>
    <desc>Created with Sketch.</desc>
    <g id="Icon/system/write_to_me" stroke="none" stroke-width="1" fill="none" fill-rule="evenodd">
        <g id="Icons/work_exchange.svg">
            <rect id="work_notebook.svg" x="0" y="0" width="20" height="20"></rect>
        </g>
        <path d="M6.50274861,10.2579267 C6.79454636,10.5708289 6.80893138,11.0575247 6.55049957,11.387543 L6.48602064,11.4607694 L3.93484771,14.0421604 L18.0813463,14.0430811 C18.5887047,14.0430811 19,14.4715226 19,15.0000319 C19,15.5285413 18.5887047,15.9569828 18.0813463,15.9569828 L3.93484771,15.9560622 L6.48606117,18.5392377 C6.7864411,18.8432 6.81435979,19.3292573 6.5652176,19.6669385 L6.50280291,19.7420806 C6.21100875,20.0549793 5.74440379,20.084056 5.42023362,19.8245235 L5.34809795,19.7595059 L1.24760391,15.6101087 C0.939477161,15.2983071 0.918932623,14.7965509 1.18597233,14.4594254 L1.24759693,14.3898333 L5.34804345,10.240487 C5.67152578,9.91314699 6.18850489,9.920955 6.50274861,10.2579267 Z M13.4972514,0.257926676 C13.8114951,-0.0790450027 14.3284742,-0.0868530127 14.6519565,0.240486998 L14.6519565,0.240486998 L18.7524031,4.38983333 L18.8140277,4.45942542 C19.0810674,4.79655091 19.0605228,5.29830712 18.7523961,5.61010865 L18.7523961,5.61010865 L14.6519021,9.75950593 L14.5797664,9.82452348 C14.2555962,10.084056 13.7889912,10.0549793 13.4971971,9.7420806 L13.4971971,9.7420806 L13.4347824,9.66693849 C13.1856402,9.3292573 13.2135589,8.84319999 13.5139388,8.53923768 L13.5139388,8.53923768 L16.0651523,5.95606217 L1.9186537,5.95698279 C1.41129527,5.95698279 1,5.52854129 1,5.00003192 C1,4.47152255 1.41129527,4.04308106 1.9186537,4.04308106 L1.9186537,4.04308106 L16.0651523,4.04216045 L13.5139794,1.46076939 L13.4495004,1.38754301 C13.1910686,1.05752474 13.2054536,0.570828949 13.4972514,0.257926676 Z" id="Combined-Shape" fill="#000000"></path>
    </g>
</svg>