<?xml version="1.0" encoding="UTF-8"?>
<svg width="24px" height="24px" viewBox="0 0 24 24" version="1.1" xmlns="http://www.w3.org/2000/svg" xmlns:xlink="http://www.w3.org/1999/xlink">
    <title>Icon/participation</title>
    <g id="Icon/participation" stroke="none" stroke-width="1" fill="none" fill-rule="evenodd">
        <g id="Group">
            <polygon id="Path" points="0 0 24 0 24 24 0 24"></polygon>
            <path d="M20,3 C21.1,3 22,3.9 22,5 L22,5 L22,17 C22,18.1 21.1,19 20,19 L20,19 L6,19 L2,23 L2,5 C2,3.9 2.9,3 4,3 L4,3 Z M20,5 L4,5 L4,19 L6,17 L20,17 L20,5 Z M15.8888889,12.5222222 C16.6588889,12.5222222 17.39,12.6855556 18.0511111,12.9733333 C18.6266667,13.2222222 19,13.7822222 19,14.4122222 L19,14.4122222 L19,15.6333333 L15.5,15.6333333 L15.5,14.3811111 C15.5,13.7355556 15.3211111,13.1288889 15.01,12.6 C15.2977778,12.5533333 15.5855556,12.5222222 15.8888889,12.5222222 Z M9.66666667,11.55 C10.9344444,11.55 12.0544444,11.8455556 12.9644444,12.25 C13.8044444,12.6233333 14.3333333,13.4633333 14.3333333,14.3811111 L14.3333333,14.3811111 L14.3333333,15.6333333 L5,15.6333333 L5,14.3811111 C5,13.4633333 5.52888889,12.6233333 6.36888889,12.25 C7.27888889,11.8533333 8.39888889,11.55 9.66666667,11.55 Z M9.66666667,13.1055556 C8.86555556,13.1055556 8.07222222,13.2455556 7.31777778,13.5411111 C6.71111111,13.7744444 6.68,13.8988889 6.61,14.0777778 L6.61,14.0777778 L12.7233333,14.0777778 C12.6455556,13.8988889 12.6144444,13.7744444 12.0155556,13.5411111 C11.2611111,13.2455556 10.4677778,13.1055556 9.66666667,13.1055556 Z M15.8888889,8.63333333 C16.7444444,8.63333333 17.4444444,9.33333333 17.4444444,10.1888889 C17.4444444,11.0444444 16.7444444,11.7444444 15.8888889,11.7444444 C15.0333333,11.7444444 14.3333333,11.0444444 14.3333333,10.1888889 C14.3333333,9.33333333 15.0333333,8.63333333 15.8888889,8.63333333 Z M9.66666667,6.3 C10.9577778,6.3 12,7.34222222 12,8.63333333 C12,9.92444444 10.9577778,10.9666667 9.66666667,10.9666667 C8.37555556,10.9666667 7.33333333,9.92444444 7.33333333,8.63333333 C7.33333333,7.34222222 8.37555556,6.3 9.66666667,6.3 Z M9.66666667,7.85555556 C9.23888889,7.85555556 8.88888889,8.20555556 8.88888889,8.63333333 C8.88888889,9.06111111 9.23888889,9.41111111 9.66666667,9.41111111 C10.0944444,9.41111111 10.4444444,9.06111111 10.4444444,8.63333333 C10.4444444,8.20555556 10.0944444,7.85555556 9.66666667,7.85555556 Z" id="Combined-Shape" fill="#FFFFFF" fill-rule="nonzero"></path>
        </g>
    </g>
</svg>