<?xml version="1.0" encoding="UTF-8"?>
<svg width="24px" height="24px" viewBox="0 0 24 24" version="1.1" xmlns="http://www.w3.org/2000/svg" xmlns:xlink="http://www.w3.org/1999/xlink">
    <title>Icon/password</title>
    <g id="Icon/password" stroke="none" stroke-width="1" fill="none" fill-rule="evenodd">
        <g id="vpn_key-24px">
            <polygon id="Path" points="0 0 24 0 24 24 0 24"></polygon>
            <g id="Group-6" transform="translate(1.000000, 0.000000)" fill="#FFA618">
                <path d="M19.1333,21.0244 L11.9713,14.0004 C11.6523,13.6864 11.1633,13.6234 10.7733,13.8474 C9.8883,14.3564 8.8773,14.6254 7.8483,14.6254 C4.6233,14.6254 2.0003,12.0174 2.0003,8.8124 C2.0003,5.6074 4.6233,3.0004 7.8483,3.0004 C11.0733,3.0004 13.6963,5.6074 13.6963,8.8124 C13.6963,9.8104 13.4383,10.7944 12.9493,11.6574 C12.8173,11.8924 12.7843,12.1704 12.8593,12.4294 C12.9343,12.6874 13.1113,12.9054 13.3483,13.0324 L16.3243,14.6234 L16.3243,17.0244 C16.3243,17.4684 16.6163,17.8584 17.0423,17.9834 L19.7793,18.7884 L19.9463,21.0244 L19.1333,21.0244 Z M21.7213,17.9494 C21.6913,17.5344 21.4053,17.1824 21.0073,17.0654 L18.3243,16.2764 L18.3243,14.0244 C18.3243,13.6554 18.1213,13.3164 17.7963,13.1424 L15.1343,11.7194 C15.5043,10.7994 15.6963,9.8114 15.6963,8.8124 C15.6963,4.5044 12.1763,1.0004 7.8483,1.0004 C3.5213,1.0004 0.0003,4.5044 0.0003,8.8124 C0.0003,13.1204 3.5213,16.6254 7.8483,16.6254 C8.9683,16.6254 10.0723,16.3864 11.0843,15.9314 L18.0243,22.7384 C18.2113,22.9214 18.4633,23.0244 18.7243,23.0244 L21.0243,23.0244 C21.3023,23.0244 21.5683,22.9084 21.7573,22.7044 C21.9463,22.5004 22.0423,22.2274 22.0213,21.9494 L21.7213,17.9494 Z" id="Fill-1"></path>
                <path d="M7.8745,10.8247 C6.7995,10.8247 5.9245,9.9497 5.9245,8.8747 C5.9245,7.7997 6.7995,6.9247 7.8745,6.9247 C8.9495,6.9247 9.8245,7.7997 9.8245,8.8747 C9.8245,9.9497 8.9495,10.8247 7.8745,10.8247 M7.8745,5.1247 C5.8065,5.1247 4.1245,6.8067 4.1245,8.8747 C4.1245,10.9427 5.8065,12.6247 7.8745,12.6247 C9.9425,12.6247 11.6245,10.9427 11.6245,8.8747 C11.6245,6.8067 9.9425,5.1247 7.8745,5.1247" id="Fill-4"></path>
            </g>
        </g>
    </g>
</svg>