<?xml version="1.0" encoding="UTF-8"?>
<svg width="24px" height="24px" viewBox="0 0 24 24" version="1.1" xmlns="http://www.w3.org/2000/svg" xmlns:xlink="http://www.w3.org/1999/xlink">
    <title>Icon/startmeeting</title>
    <g id="Icon/startmeeting" stroke="none" stroke-width="1" fill="none" fill-rule="evenodd">
        <g id="Group">
            <polygon id="Path" points="0 0 24 0 24 24 0 24"></polygon>
            <path d="M20,3 L4,3 C2.9,3 2.01,3.9 2.01,5 L2,23 L6,19 L20,19 C21.1,19 22,18.1 22,17 L22,5 C22,3.9 21.1,3 20,3 Z M20,17 L5.17,17 L4,18.17 L4,5 L20,5 L20,17 Z M14,11.6 L17,14 L17,8 L14,10.4 L14,8 L7,8 L7,14 L14,14 L14,11.6 Z" id="Shape" fill="#FFFFFF" fill-rule="nonzero"></path>
        </g>
    </g>
</svg>